<?xml version="1.0" encoding="UTF-8" standalone="no"?>
<!-- Created with Inkscape (http://www.inkscape.org/) -->

<svg
   width="195.13106mm"
   height="195.13106mm"
   viewBox="0 0 195.13106 195.13106"
   version="1.1"
   id="svg1"
   xml:space="preserve"
   sodipodi:docname="dibujo.svg"
   inkscape:version="1.4.4 (dcaf3e7, 2026-05-05)"
   inkscape:export-filename="key-spam.svg"
   inkscape:export-xdpi="96"
   inkscape:export-ydpi="96"
   xmlns:inkscape="http://www.inkscape.org/namespaces/inkscape"
   xmlns:sodipodi="http://sodipodi.sourceforge.net/DTD/sodipodi-0.dtd"
   xmlns="http://www.w3.org/2000/svg"
   xmlns:svg="http://www.w3.org/2000/svg"><sodipodi:namedview
     id="namedview1"
     pagecolor="#505050"
     bordercolor="#eeeeee"
     borderopacity="1"
     inkscape:showpageshadow="0"
     inkscape:pageopacity="0"
     inkscape:pagecheckerboard="0"
     inkscape:deskcolor="#505050"
     inkscape:document-units="mm"
     inkscape:zoom="0.72604517"
     inkscape:cx="716.20888"
     inkscape:cy="339.51056"
     inkscape:window-width="1920"
     inkscape:window-height="1017"
     inkscape:window-x="-8"
     inkscape:window-y="-8"
     inkscape:window-maximized="1"
     inkscape:current-layer="layer1"><inkscape:page
       x="-2.1715997e-21"
       y="-1.1663851e-20"
       width="195.13107"
       height="195.13107"
       id="page2"
       margin="0"
       bleed="0" /></sodipodi:namedview><defs
     id="defs1" /><g
     inkscape:label="Capa 1"
     inkscape:groupmode="layer"
     id="layer1"
     transform="translate(-9.8997283,-19.690923)"><path
       style="fill:#000000;stroke-width:0.588121"
       d="M 9.8997282,117.25646 V 19.690921 H 107.46526 205.0308 V 117.25646 214.822 H 107.46526 9.8997282 Z M 188.65942,207.88323 c 4.44554,-0.91825 7.98343,-4.49754 8.94672,-9.05141 0.14679,-0.69392 0.18894,-18.92656 0.18894,-81.73097 V 36.263059 l -0.35789,-1.23605 c -0.60078,-2.074865 -1.47774,-3.564675 -2.98349,-5.068459 -1.48876,-1.486814 -2.75972,-2.294319 -4.59457,-2.919182 l -1.24486,-0.423938 -80.8378,-0.04276 c -74.609268,-0.03946 -80.927706,-0.02298 -82.004836,0.213731 -4.149695,0.911981 -7.526128,4.219469 -8.562243,8.387404 -0.307152,1.235571 -0.309163,1.851256 -0.269504,82.549475 l 0.03996,81.30462 0.478758,1.2706 c 0.706876,1.87603 1.391146,2.93178 2.86679,4.42314 1.785133,1.80414 3.738277,2.86092 5.990867,3.24144 0.427919,0.0723 36.860394,0.13963 80.961058,0.14962 72.76545,0.0166 80.29394,-0.005 81.3821,-0.22947 z M 26.841592,207.11436 c -2.459723,-0.38466 -4.550253,-1.50384 -6.261418,-3.35205 -1.100958,-1.18913 -1.739292,-2.29081 -2.382581,-4.11199 l -0.439716,-1.24485 -0.04459,-79.98195 c -0.03008,-53.951856 0.0075,-80.473292 0.115227,-81.491655 0.264504,-2.498457 1.204508,-4.520263 2.917757,-6.275651 1.701683,-1.743539 3.604318,-2.741043 5.959012,-3.124164 1.1136,-0.181189 13.817001,-0.215096 80.370967,-0.21452 52.32272,4.53e-4 79.51313,0.05394 80.42314,0.158197 3.56319,0.408229 6.69661,2.60542 8.27482,5.8024 0.38802,0.785993 0.8091,1.933554 0.93594,2.550605 0.20226,0.98399 0.2257,11.035232 0.19093,81.849238 -0.0378,77.14286 -0.052,80.76896 -0.31899,81.66114 -0.56739,1.89631 -1.33615,3.16852 -2.82965,4.68268 -1.16121,1.17728 -1.63201,1.53377 -2.72626,2.06429 -0.72746,0.3527 -1.74279,0.7645 -2.25631,0.91513 -0.88535,0.25969 -5.06213,0.27512 -80.75998,0.29843 -66.299824,0.0204 -80.053734,-0.011 -81.168289,-0.18528 z m 61.799931,-11.93773 c 0.555687,-0.28073 0.75312,-0.49695 0.996084,-1.0909 0.336479,-0.82253 0.275607,-0.95804 -0.495064,-1.10204 -0.393896,-0.0736 -0.505716,-0.0411 -0.505716,0.14701 0,0.13281 -0.20468,0.44617 -0.454851,0.69634 -0.431558,0.43156 -0.522754,0.45485 -1.780806,0.45485 -1.176894,0 -1.375026,-0.0422 -1.762545,-0.37522 l -0.436597,-0.37521 -0.04875,-2.91432 c -0.03382,-2.02046 0.0087,-3.05306 0.138626,-3.36669 0.294371,-0.71069 0.921838,-0.94452 2.359277,-0.87925 1.128189,0.0512 1.270813,0.0947 1.611681,0.49097 0.205683,0.23912 0.373968,0.5665 0.373968,0.72751 0,0.25057 0.0841,0.27978 0.583526,0.20271 0.32094,-0.0495 0.605633,-0.10808 0.632652,-0.13012 0.027,-0.022 -0.02377,-0.30972 -0.112847,-0.6393 -0.390111,-1.44322 -1.219756,-1.92343 -3.314532,-1.91848 -1.698928,0.004 -2.517092,0.29657 -3.094827,1.10661 -0.360729,0.50578 -0.375296,0.63392 -0.422146,3.71379 -0.05558,3.65507 -0.01358,4.01125 0.552721,4.68425 0.617839,0.73427 1.164603,0.90465 2.925083,0.91151 1.318462,0.005 1.670057,-0.0485 2.255066,-0.34402 z m 5.670729,-4.86272 -0.0041,-5.13503 h -0.618207 -0.618198 v 5.05723 c 0,2.78147 0.02402,5.11357 0.05334,5.18246 0.02932,0.0689 0.309435,0.10389 0.622423,0.0778 l 0.569072,-0.0474 z m 4.905839,3.11214 v -2.1007 h 1.055759 1.05576 l 1.00604,2.0618 c 0.93656,1.91941 1.03826,2.06459 1.47285,2.10233 0.95472,0.0829 0.94658,-0.0874 -0.10599,-2.21823 -0.64548,-1.30668 -0.919,-2.01314 -0.79622,-2.05647 0.5182,-0.18283 1.24427,-0.81079 1.49499,-1.29299 0.41982,-0.80738 0.30996,-3.01 -0.18476,-3.70478 -0.66262,-0.93055 -1.05964,-1.03813 -3.83137,-1.03813 h -2.489715 l -0.04506,4.96796 c -0.02477,2.73237 -0.0094,5.06063 0.03396,5.17393 0.04754,0.12376 0.329429,0.20597 0.706362,0.20597 h 0.627301 z m 0,-5.21283 v -1.86729 h 1.377249 c 1.51239,0 2.28282,0.19246 2.51621,0.62857 0.0838,0.15654 0.15233,0.74771 0.15233,1.31372 0,0.91297 -0.0465,1.07217 -0.41174,1.41069 -0.38194,0.35396 -0.52837,0.38159 -2.0229,0.38159 h -1.611149 z m 14.514379,6.9389 c 0.52621,-0.35192 0.96629,-0.96023 1.10249,-1.52396 0.0926,-0.38319 0.0499,-0.43465 -0.48303,-0.58265 -0.78597,-0.21828 -0.818,-0.21224 -0.818,0.1542 0,0.17506 -0.17187,0.49016 -0.38194,0.70022 -0.34922,0.34923 -0.50254,0.38196 -1.78948,0.38196 -1.19401,0 -1.45414,-0.0466 -1.71478,-0.30726 -0.45894,-0.45892 -0.49495,-0.78015 -0.4418,-3.94029 0.0465,-2.76761 0.065,-2.91871 0.39812,-3.25141 0.27879,-0.27848 0.56892,-0.36134 1.43712,-0.41039 0.59829,-0.0338 1.26567,-0.0168 1.48304,0.0377 0.55055,0.13817 1.00972,0.64048 1.00972,1.10455 0,0.37198 0.032,0.38597 0.66134,0.28957 0.36373,-0.0557 0.68343,-0.1195 0.71045,-0.14175 0.0271,-0.0222 -0.0257,-0.31845 -0.11723,-0.65825 -0.39952,-1.48372 -1.3446,-1.96154 -3.71744,-1.87949 -1.72418,0.0596 -2.11612,0.231 -2.78885,1.21946 -0.33703,0.49518 -0.35012,0.64311 -0.35012,3.95609 0,3.97006 0.0717,4.24757 1.26125,4.88438 0.6227,0.33334 0.8369,0.36115 2.39552,0.31111 1.34391,-0.0431 1.80449,-0.11701 2.14362,-0.34382 z m 10.22713,-0.24365 v -0.61827 l -2.2952,-0.0431 -2.2952,-0.0431 -0.0413,-4.55029 -0.0412,-4.5503 -0.62007,0.0243 -0.62008,0.0243 v 5.18733 5.18732 h 2.95652 2.95653 z m 8.99546,-0.039 0.048,-0.57954 -2.45911,-0.0429 -2.45912,-0.0429 0.0113,-0.38902 c 0.006,-0.21396 0.0233,-0.96671 0.038,-1.67277 l 0.0268,-1.28376 h 2.0229 2.02288 v -0.62243 -0.62243 h -2.10069 -2.1007 l 0.002,-1.28376 c 0.003,-2.14391 -0.20546,-1.98398 2.59294,-1.98398 h 2.40314 l -0.0483,-0.58353 -0.0483,-0.58352 h -3.03434 -3.03433 l -0.0384,4.97942 c -0.0212,2.73868 -0.005,5.06874 0.0355,5.17791 0.0573,0.15356 0.7528,0.18877 3.07282,0.1556 l 2.99879,-0.0429 z m -23.31094,-28.48007 3.6e-4,-6.10756 -1.40082,0.0499 -1.40082,0.0499 v 6.05763 6.05762 h 1.40046 1.40047 z M 101.59503,164.6 c 0.0479,-0.42455 0.0163,-0.78047 -0.0741,-0.83636 -0.0866,-0.0535 -0.55206,-0.14369 -1.03438,-0.20037 -1.503498,-0.17671 -5.139866,-1.02744 -7.430981,-1.73849 C 75.907675,156.50291 62.5106,142.85971 57.21558,125.32636 c -0.65125,-2.15649 -1.721759,-7.01273 -1.722552,-7.81419 -3.36e-4,-0.34137 -0.05757,-0.42264 -0.246576,-0.35012 -0.135375,0.0519 -0.481088,0.0944 -0.768251,0.0944 -0.514196,0 -0.520869,0.009 -0.439984,0.58353 1.625859,11.55156 7.069015,22.68292 15.225584,31.13666 7.814916,8.09964 17.735606,13.53652 28.709474,15.7338 1.966697,0.39378 2.497625,0.4893 3.364215,0.60524 0.0978,0.0131 0.21083,-0.3011 0.25758,-0.71574 z m 16.99249,0.28264 c 2.25201,-0.42192 6.76653,-1.58546 7.2064,-1.85731 0.14677,-0.0907 0.1349,-0.27806 -0.0524,-0.82798 l -0.24217,-0.71073 -0.96435,0.30058 c -1.88203,0.5866 -5.19438,1.36736 -7.22752,1.70358 l -2.06179,0.34096 v 0.75366 c 0,0.72852 0.0151,0.75365 0.45291,0.75365 0.2491,0 1.54914,-0.20538 2.88899,-0.45641 z m 12.4329,-1.66522 c 1.60424,-0.63908 4.54232,-2.08084 6.39918,-3.1402 2.92558,-1.66907 7.16178,-4.65747 8.89918,-6.27788 0.44419,-0.41428 0.85982,-0.75323 0.92361,-0.75323 0.0638,0 0.27486,0.14924 0.46903,0.33166 l 0.35303,0.33165 0.74625,-0.62554 c 0.41043,-0.34405 0.87481,-0.76806 1.03195,-0.94225 0.27801,-0.30815 0.27642,-0.32929 -0.0587,-0.78256 l -0.34442,-0.46585 1.30588,-1.45217 c 3.13839,-3.48997 5.92235,-7.36415 7.81528,-10.87584 l 0.71805,-1.33211 -2.03627,-1.21242 c -1.11996,-0.66684 -2.09455,-1.15275 -2.16576,-1.0798 -0.0712,0.073 -0.70044,1.07789 -1.39829,2.23321 -2.39176,3.95967 -4.9045,7.21971 -7.84273,10.1752 -4.78702,4.81514 -10.45734,8.67182 -16.50766,11.22771 -0.77026,0.32538 -1.42459,0.60946 -1.45407,0.63127 -0.1081,0.0799 1.45055,4.57471 1.58637,4.57471 0.0772,0 0.77922,-0.25451 1.56007,-0.56556 z m 17.12495,-9.97125 c 0.0215,-0.14673 0.27792,-0.39844 0.56975,-0.55934 l 0.53061,-0.29257 -0.53625,0.55933 c -0.61962,0.6463 -0.61573,0.64429 -0.56411,0.29258 z m 1.11958,-1.21752 c -0.14504,-0.37796 -0.11995,-0.49652 0.12501,-0.59052 0.12211,-0.0469 0.29692,0.005 0.38846,0.11535 0.1225,0.14759 0.0895,0.27016 -0.125,0.46428 -0.26698,0.24161 -0.29959,0.24253 -0.38847,0.0109 z m -37.6761,-1.78641 c 6.83266,-0.56213 12.61317,-2.55483 18.20601,-6.27614 6.12974,-4.07855 10.96721,-9.90328 14.29927,-17.21756 3.6649,-8.04492 4.51003,-17.39898 2.33908,-25.8896 -0.77785,-3.042193 -1.67501,-5.375273 -3.28619,-8.545813 -2.97183,-5.84806 -7.44828,-10.86559 -13.10137,-14.68495 -1.49796,-1.01206 -1.67054,-1.09151 -1.85912,-0.85584 -0.11432,0.14288 -0.97137,1.78069 -1.90453,3.63957 l -1.69665,3.37978 0.97088,0.65467 c 9.76394,6.58383 15.28067,18.384393 13.8808,29.691693 -1.3778,11.12893 -7.74728,20.33291 -17.42369,25.17742 -4.11202,2.05869 -7.68424,2.95367 -12.36957,3.09908 -7.94767,0.24665 -15.362753,-2.48089 -21.429333,-7.88252 -7.10734,-6.3283 -11.253421,-16.5814 -10.472643,-25.89846 0.838066,-10.000623 5.965337,-18.783353 14.084966,-24.126783 7.866615,-5.17691 17.67402,-6.47425 26.46898,-3.50136 l 1.27844,0.43214 1.4199,-3.09674 c 0.78094,-1.70321 1.55298,-3.40722 1.71564,-3.78669 l 0.29574,-0.68995 -1.2735,-0.46022 c -1.8562,-0.67079 -3.22415,-1.0588 -5.24149,-1.48671 -3.21675,-0.68232 -4.41929,-0.79889 -8.09157,-0.78431 -2.87,0.0114 -3.85179,0.0756 -5.44624,0.35636 -7.018265,1.23571 -12.875501,3.83543 -18.206008,8.0807 -1.759322,1.40114 -4.526171,4.13955 -5.909307,5.84855 -3.407188,4.20992 -6.499304,10.31156 -7.79268,15.377223 -1.883968,7.37878 -1.574605,15.52876 0.85338,22.48136 2.252425,6.4499 5.473515,11.55122 10.150574,16.07575 3.960163,3.83102 8.660546,6.8376 13.512719,8.64338 4.880352,1.81626 10.935962,2.66484 16.027512,2.24596 z m 47.73318,-18.00855 c 1.55574,-3.41253 3.21887,-9.20958 3.90622,-13.61561 0.1982,-1.2705 0.19434,-1.36157 -0.0578,-1.36157 -0.14861,0 -0.47555,-0.0411 -0.72653,-0.0913 l -0.45633,-0.0913 -0.34484,1.99746 c -0.74795,4.33235 -1.99378,8.52087 -3.75764,12.63326 -0.26983,0.62909 -0.46845,1.16254 -0.4414,1.18543 0.16623,0.14067 1.01164,0.53808 1.15568,0.54328 0.0951,0.003 0.42026,-0.53645 0.72265,-1.19972 z m -47.73318,-8.81653 c 1.46616,-0.39013 3.93079,-1.68146 5.13503,-2.69046 2.33629,-1.95753 3.94688,-4.81822 4.44253,-7.89073 0.26813,-1.66213 0.11626,-4.38466 -0.32197,-5.77175 -1.34899,-4.26981 -4.34769,-7.417543 -8.39975,-8.817163 -1.41963,-0.49036 -1.57393,-0.51078 -3.89017,-0.51494 -2.10271,-0.004 -2.56068,0.0424 -3.57227,0.36006 -5.731906,1.79994 -9.39511,6.798023 -9.369971,12.784413 0.0094,2.25092 0.364375,3.70952 1.427394,5.86607 0.622588,1.26304 1.038914,1.85805 2.040125,2.91576 1.938982,2.04841 3.792022,3.14135 6.487482,3.82636 1.44553,0.36736 4.51648,0.33287 6.02157,-0.0676 z m -53.139764,-12.9296 v -1.47826 h -5.60185 -5.601849 v 1.47826 1.47826 h 5.601849 5.60185 z m 111.881374,0 v -1.47826 h -5.60185 -5.60185 v 1.47826 1.47826 h 5.60185 5.60185 z M 55.633511,102.396 c 0.347861,-2.638263 1.664758,-7.962133 2.405649,-9.725433 0.07047,-0.16772 -0.08544,-0.31039 -0.55394,-0.50694 -0.358612,-0.15044 -0.702257,-0.22046 -0.763663,-0.1556 -0.167614,0.17703 -1.15455,3.44098 -1.693459,5.6005 -0.397829,1.59419 -1.084186,5.411653 -1.089965,6.062283 -0.0017,0.18311 1.225759,0.35952 1.415868,0.2035 0.05217,-0.0428 0.177948,-0.70805 0.27951,-1.47831 z m 107.850249,1.00703 c 0,-1.22753 -0.65809,-4.880233 -1.34489,-7.464713 -3.79216,-14.27029 -12.70563,-26.20176 -25.10829,-33.609676 -5.80358,-3.466389 -11.89332,-5.796696 -18.47934,-7.071328 -1.13455,-0.219575 -2.34244,-0.399228 -2.68422,-0.399228 h -0.62141 v 0.778034 c 0,0.42792 0.0176,0.778407 0.0389,0.778864 0.0214,4.56e-4 0.85218,0.13812 1.84617,0.305922 5.39874,0.911385 10.4897,2.597828 15.55132,5.151558 12.75284,6.434172 22.38048,17.496654 26.89552,30.903834 1.04039,3.08942 2.34246,8.674613 2.35144,10.086523 0.006,0.97464 0.10675,1.09528 0.86267,1.03515 0.64289,-0.0511 0.69213,-0.0863 0.69213,-0.49494 z M 60.304465,89.441717 c 0.416331,-1.17806 2.500024,-5.3039 3.59534,-7.11901 4.003337,-6.63415 9.466871,-12.26598 15.954836,-16.446307 2.730232,-1.759148 6.559467,-3.728697 9.171195,-4.717166 0.855845,-0.323912 1.604864,-0.631269 1.66451,-0.683017 0.111853,-0.09706 -0.916004,-3.729503 -1.119226,-3.955352 -0.283468,-0.315024 -6.347795,2.351749 -9.414874,4.140165 -5.924538,3.454607 -11.665295,8.361751 -15.709459,13.428297 -1.636704,2.05048 -4.054451,5.62748 -5.277801,7.80839 -1.178364,2.10071 -3.133465,6.31126 -2.958305,6.37107 0.07574,0.0258 0.942975,0.4298 1.927189,0.89765 0.984214,0.46785 1.827932,0.85247 1.874928,0.85472 0.04699,0.002 0.178242,-0.2585 0.291667,-0.57944 z M 74.335158,61.371029 c 0.505713,-0.354735 0.919474,-0.696367 0.919474,-0.759182 0,-0.06282 -0.236013,-0.506149 -0.524475,-0.985187 l -0.524479,-0.87098 -0.875983,0.62728 c -0.481794,0.345005 -0.875988,0.660903 -0.875988,0.701995 0,0.105672 0.453453,-0.156803 1.082372,-0.62651 0.599971,-0.448094 0.643251,-0.428333 1.234265,0.563599 l 0.341739,0.573556 -0.862591,0.651264 c -0.760598,0.574255 -0.894766,0.626033 -1.134684,0.437889 -0.246546,-0.193347 -0.252039,-0.187813 -0.05852,0.05893 0.11746,0.149772 0.246376,0.272313 0.286485,0.272313 0.04012,0 0.486682,-0.290239 0.992389,-0.644975 z m -1.934993,-0.828205 c -0.09893,-0.211163 -0.203996,-0.313842 -0.233484,-0.228179 -0.02946,0.08566 0.03158,0.258432 0.135762,0.383931 0.27317,0.32915 0.302782,0.281952 0.09772,-0.155752 z m 37.243605,-6.851791 v -6.30208 h -1.40047 -1.40046 l -0.0243,3.306647 c -0.0206,2.812528 -0.0123,7.378281 0.0161,8.869594 l 0.008,0.427919 h 1.40046 1.40047 z m -14.263572,4.061823 c 1.126632,-0.290719 2.976167,-0.693352 4.110079,-0.894739 l 2.061653,-0.366159 1.4e-4,-0.816937 c 9e-5,-0.5783 -0.0606,-0.816936 -0.20796,-0.816936 -0.91213,0 -8.098355,1.583266 -8.378195,1.845883 -0.105152,0.09867 0.17694,1.577468 0.300911,1.577468 0.0357,0 0.986749,-0.237861 2.113372,-0.52858 z"
       id="path14" /></g></svg>
