<?xml version="1.0" encoding="UTF-8" standalone="no"?>
<!-- Created with Inkscape (http://www.inkscape.org/) -->

<svg
   width="202.68799mm"
   height="202.688mm"
   viewBox="0 0 202.68799 202.688"
   version="1.1"
   id="svg1"
   xml:space="preserve"
   sodipodi:docname="dibujo.svg"
   inkscape:version="1.4.4 (dcaf3e7, 2026-05-05)"
   inkscape:export-filename="sequence.svg"
   inkscape:export-xdpi="96"
   inkscape:export-ydpi="96"
   xmlns:inkscape="http://www.inkscape.org/namespaces/inkscape"
   xmlns:sodipodi="http://sodipodi.sourceforge.net/DTD/sodipodi-0.dtd"
   xmlns="http://www.w3.org/2000/svg"
   xmlns:svg="http://www.w3.org/2000/svg"><sodipodi:namedview
     id="namedview1"
     pagecolor="#505050"
     bordercolor="#eeeeee"
     borderopacity="1"
     inkscape:showpageshadow="0"
     inkscape:pageopacity="0"
     inkscape:pagecheckerboard="0"
     inkscape:deskcolor="#505050"
     inkscape:document-units="mm"
     inkscape:zoom="0.72604517"
     inkscape:cx="716.20888"
     inkscape:cy="339.51056"
     inkscape:window-width="1920"
     inkscape:window-height="1017"
     inkscape:window-x="-8"
     inkscape:window-y="-8"
     inkscape:window-maximized="1"
     inkscape:current-layer="layer1"><inkscape:page
       x="0"
       y="0"
       width="202.68799"
       height="202.688"
       id="page2"
       margin="0"
       bleed="0" /></sodipodi:namedview><defs
     id="defs1" /><g
     inkscape:label="Capa 1"
     inkscape:groupmode="layer"
     id="layer1"
     transform="translate(-5.5267223,-4.749815)"><path
       style="fill:#000000;stroke-width:0.610912"
       d="M 5.5267229,106.09382 V 4.7498149 H 106.87072 208.21471 V 106.09382 207.43781 H 106.87072 5.5267229 Z M 191.32403,199.23615 c 1.94411,-0.54502 3.50046,-1.39953 4.85792,-2.66733 2.13459,-1.99344 3.27996,-4.18451 3.71016,-7.09801 0.2193,-1.48482 0.24184,-10.87943 0.20302,-84.18513 -0.0426,-79.654537 -0.0541,-82.550166 -0.34228,-83.564374 -1.20494,-4.243844 -3.99148,-7.111078 -8.19329,-8.430524 l -1.20534,-0.378484 h -83.4835 c -80.741834,0 -83.520677,0.01 -84.614958,0.299306 -4.150383,1.09799 -7.076351,3.915747 -8.359982,8.050878 l -0.368206,1.186167 -0.0372,83.241081 c -0.04079,91.15763 -0.111218,84.10825 0.866289,86.70718 1.389041,3.69297 5.070629,6.59505 9.025696,7.11475 0.536072,0.0706 38.251337,0.11874 83.811701,0.1075 l 82.83688,-0.0214 z m -159.693552,-0.52644 -8.889824,-0.0816 -1.195795,-0.44319 c -3.524771,-1.30575 -6.004722,-4.10615 -6.928564,-7.82385 -0.257346,-1.03547 -0.276791,-6.4481 -0.298118,-82.97499 -0.01248,-45.02696 0.03274,-82.630914 0.100855,-83.564352 0.210876,-2.893683 1.155498,-5.014145 3.08978,-6.935922 1.260223,-1.252057 2.412606,-1.980238 4.046333,-2.556795 1.102236,-0.389008 1.478244,-0.428198 5.353075,-0.557921 2.292165,-0.0767 39.896143,-0.116989 83.56425,-0.08947 73.31692,0.0463 79.48037,0.07061 80.48706,0.318297 2.44117,0.600607 4.92598,2.353577 6.33005,4.465526 0.9013,1.355677 1.2708,2.203997 1.61014,3.695615 0.24183,1.063123 0.26357,7.99094 0.26357,83.930262 0,91.71916 0.0938,83.95961 -1.04061,86.39467 -1.40973,3.0271 -3.89741,5.08734 -7.12196,5.89805 -1.28498,0.32315 -1.75668,0.32538 -75.88682,0.36542 -41.026429,0.0227 -78.594014,0.006 -83.483422,-0.042 z m 38.549517,-15.59824 c 0.07982,-1.91617 0.08762,-1.94858 0.633177,-2.62656 0.303809,-0.37765 0.605061,-0.68633 0.669473,-0.68633 0.06446,0 0.8602,1.20007 1.768383,2.66693 l 1.651241,2.66684 h 0.781176 c 0.429648,0 0.819434,-0.0624 0.866174,-0.13748 0.04685,-0.076 -0.715756,-1.39456 -1.694524,-2.93084 -1.634631,-2.56579 -2.250601,-3.59763 -2.250601,-3.77001 0,-0.0366 0.767492,-1.00377 1.705541,-2.14978 2.293574,-2.80209 2.230966,-2.64973 1.088307,-2.64769 l -0.935067,0.002 -1.535514,1.95291 c -0.844538,1.0741 -1.808272,2.3212 -2.141643,2.77096 l -0.606123,0.81826 v -2.77252 -2.77256 h -0.808156 -0.808167 v 5.79663 5.79673 l 0.767745,-0.0181 0.767752,-0.0181 z m 16.132006,1.23133 0.04953,-0.65719 -2.716469,-0.0442 -2.716463,-0.045 v -1.77791 -1.77793 l 2.384104,-0.0455 2.384083,-0.0453 v -0.71863 -0.71877 l -2.384083,-0.0449 -2.384104,-0.0454 v -1.69714 -1.69712 l 2.707361,-0.0447 2.707359,-0.0449 v -0.72341 -0.72339 h -3.475128 -3.475099 v 5.71099 c 0,3.14106 0.05448,5.76722 0.121223,5.836 0.06667,0.0691 1.612283,0.0877 3.434705,0.0425 l 3.313463,-0.0835 z m 7.466438,-1.47572 v -2.26539 l 0.953134,-1.89668 c 0.524202,-1.04311 1.353808,-2.64228 1.843597,-3.55339 l 0.890482,-1.65675 -0.914256,0.002 -0.914202,0.002 -1.256274,2.585 c -0.690936,1.42176 -1.309182,2.58245 -1.373863,2.57905 -0.114886,-0.009 -2.086548,-4.00865 -2.353529,-4.77814 -0.121317,-0.34954 -0.227663,-0.38804 -1.071056,-0.38804 h -0.936345 l 1.753258,3.43458 1.75326,3.43481 0.005,2.27615 c 0.0025,1.25212 0.0531,2.32501 0.112485,2.38429 0.05927,0.0604 0.422943,0.10757 0.808166,0.10757 h 0.700425 z m 17.458171,1.90167 c 1.04223,-0.70944 1.21048,-1.10414 1.21048,-2.84095 0,-2.51185 -0.47684,-2.91967 -4.10173,-3.50793 -1.75501,-0.28476 -2.12112,-0.59354 -2.12112,-1.78809 0,-1.08114 0.0965,-1.31706 0.65799,-1.6074 0.56904,-0.29416 2.81584,-0.31421 3.37739,-0.0299 0.23894,0.121 0.46023,0.42734 0.55277,0.76541 0.2,0.73176 0.13794,0.69357 0.91531,0.56226 l 0.67645,-0.11424 -0.0882,-0.65561 c -0.0967,-0.72043 -0.45997,-1.29426 -1.14291,-1.80498 -0.38509,-0.28805 -0.72453,-0.33993 -2.49535,-0.38297 -2.02717,-0.0491 -2.05776,-0.0453 -2.78865,0.4227 -1.0467,0.6691 -1.32779,1.33965 -1.25692,2.99828 0.0449,1.04313 0.13115,1.42092 0.41689,1.82145 0.58125,0.81506 1.21195,1.03251 4.61869,1.59349 0.96859,0.15944 1.2437,0.54919 1.2437,1.76252 0,0.77596 -0.0773,1.12756 -0.309,1.41424 -0.29144,0.35984 -0.41208,0.38155 -2.11558,0.38155 -1.70359,0 -1.82414,-0.0224 -2.11545,-0.38155 -0.17002,-0.20991 -0.30899,-0.5555 -0.30899,-0.76773 0,-0.41206 -0.12862,-0.44938 -0.96791,-0.28154 -0.51164,0.10246 -0.52172,0.12086 -0.44317,0.81814 0.0899,0.79417 0.56001,1.41617 1.33024,1.75844 0.32095,0.14271 1.20082,0.21771 2.60256,0.22187 1.93592,0.008 2.16378,-0.0255 2.65228,-0.35741 z m 6.14017,-1.93964 1.3e-4,-2.22243 1.97999,-0.006 c 3.34908,-0.009 3.98994,-0.57385 3.99695,-3.54159 0.006,-1.89594 -0.34125,-2.75963 -1.30021,-3.24878 -0.54945,-0.28026 -0.95815,-0.31783 -3.45799,-0.31783 h -2.83517 v 5.71104 c 0,3.14098 0.0507,5.76145 0.11226,5.82314 0.0629,0.0624 0.42529,0.0922 0.80793,0.0672 l 0.69597,-0.0453 z m 1.3e-4,-5.77844 v -2.10105 l 1.65672,0.003 c 2.03172,0.003 2.33374,0.0784 2.63299,0.65678 0.50745,0.9812 0.18918,3.17897 -0.4985,3.44294 -0.14396,0.0558 -1.05576,0.10053 -2.0265,0.10053 h -1.76471 z m 8.97113,6.78868 c 0.49827,-1.75985 0.27271,-1.6316 2.78249,-1.58041 2.50212,0.0515 2.16501,-0.17016 2.71581,1.7824 l 0.26206,0.92943 h 0.79681 c 0.43808,0 0.79663,-0.0656 0.79663,-0.14625 0,-0.0811 -0.62546,-2.06248 -1.38988,-4.40448 -0.76435,-2.34192 -1.57666,-4.8583 -1.80506,-5.59176 l -0.4151,-1.33341 -0.98317,0.003 -0.98318,0.003 -0.68996,2.13921 c -0.37934,1.1765 -1.2182,3.75414 -1.86437,5.72791 l -1.17453,3.58896 0.73299,0.0477 c 0.40313,0.0268 0.77528,0.0112 0.82688,-0.0333 0.0521,-0.0453 0.2278,-0.55353 0.39158,-1.13138 z m 1.0192,-2.99409 c -0.0464,-0.0471 0.0579,-0.5012 0.23122,-1.01021 0.17389,-0.50909 0.54531,-1.65878 0.8257,-2.55498 0.28029,-0.89634 0.5761,-1.65993 0.65764,-1.6971 0.082,-0.0376 0.204,0.11416 0.2724,0.33637 0.88779,2.8879 1.27983,4.19699 1.36759,4.56618 l 0.1057,0.44447 h -1.6878 c -0.92823,0 -1.72591,-0.0383 -1.77245,-0.0848 z m 10.53712,0.006 c 0,-2.74791 0.0584,-4.28338 0.16152,-4.28338 0.0892,0 0.16164,0.086 0.16164,0.19105 0,0.10494 0.55716,1.48681 1.23819,3.07089 l 1.23824,2.88012 h 0.66244 0.66243 l 1.34984,-3.07088 c 0.74237,-1.6892 1.39638,-3.07119 1.45324,-3.0712 0.0574,-2e-5 0.1034,1.90926 0.1034,4.24294 v 4.24275 h 0.72729 0.72742 l 0.043,-5.77826 0.0426,-5.77836 -1.01216,0.002 -1.01223,0.002 -0.71764,1.65522 c -1.93947,4.47387 -2.2469,5.14507 -2.35691,5.14635 -0.0655,6e-4 -0.76055,-1.51199 -1.54475,-3.36132 l -1.42612,-3.36266 -1.05555,-0.0475 -1.05561,-0.0475 0.0125,5.70493 c 0.01,3.13766 0.0463,5.75946 0.0873,5.82604 0.0423,0.0667 0.39794,0.12118 0.79265,0.12118 h 0.71795 z m 34.63538,-38.80407 c 2.91956,-0.75641 5.04976,-3.02487 5.60504,-5.96847 0.1335,-0.70806 0.16987,-10.45883 0.13495,-36.125063 l -0.0478,-35.155195 -0.44942,-1.050619 c -0.8792,-2.055403 -2.41637,-3.575405 -4.44397,-4.394419 l -0.92539,-0.373752 -65.29977,-0.04249 -65.299776,-0.0425 -1.127935,0.341192 c -2.627656,0.794864 -4.682048,3.004891 -5.245879,5.643335 -0.143197,0.6697 -0.177894,9.618115 -0.140768,36.286621 l 0.04931,35.39768 0.599348,1.2552 c 1.026872,2.15052 2.907956,3.73421 5.057812,4.25832 0.628168,0.15298 15.254618,0.19993 65.680458,0.21059 58.51908,0.0123 64.96859,-0.0109 65.85401,-0.24062 z M 54.865258,141.53204 c 1.222343,-0.0276 3.222553,-0.0276 4.444903,0 1.222352,0.0276 0.222247,0.0501 -2.222459,0.0501 -2.44469,0 -3.444798,-0.0232 -2.222444,-0.0501 z m 8.081655,0.006 c 0.244458,-0.0373 0.644505,-0.0373 0.888984,0 0.244459,0.0373 0.04454,0.0674 -0.444502,0.0674 -0.488932,0 -0.688953,-0.0302 -0.444482,-0.0674 z m 1.545618,0.006 c 0.116684,-0.0466 0.25609,-0.0418 0.309787,0.0127 0.05363,0.0538 -0.04178,0.0922 -0.212135,0.0849 -0.188297,-0.009 -0.226588,-0.0466 -0.09766,-0.0977 z m 1.121324,0.004 c 0.111113,-0.0451 0.292961,-0.0451 0.404087,0 0.111119,0.0451 0.02019,0.0822 -0.202048,0.0822 -0.222245,0 -0.313158,-0.0369 -0.202039,-0.0822 z m 11.88005,-0.01 c 0.244453,-0.0373 0.644505,-0.0373 0.88897,0 0.244473,0.0373 0.04454,0.0674 -0.44449,0.0674 -0.488934,0 -0.688953,-0.0302 -0.44448,-0.0674 z m 4.853867,-0.003 c 0.424941,-0.0336 1.079562,-0.0331 1.454692,6.8e-4 0.375134,0.0338 0.02749,0.0623 -0.772638,0.0619 -0.800083,-5.4e-4 -1.106996,-0.0283 -0.682054,-0.0627 z m 2.422686,0.008 c 0.157278,-0.0419 0.37547,-0.0387 0.484896,0.007 0.109437,0.045 -0.01927,0.0783 -0.285925,0.0747 -0.266693,-0.003 -0.356235,-0.0402 -0.198971,-0.0811 z m 2.825518,0.006 c 0.11112,-0.0455 0.292945,-0.0455 0.404072,0 0.111123,0.0451 0.02019,0.082 -0.202034,0.082 -0.222247,0 -0.313185,-0.0369 -0.202038,-0.082 z m 4.855318,-0.0127 c 0.559091,-0.0317 1.431921,-0.0315 1.93962,4.7e-4 0.507691,0.0321 0.05042,0.0586 -1.016558,0.0582 -1.066785,-3.2e-4 -1.482156,-0.027 -0.923062,-0.059 z m 14.550876,0.01 c 0.11655,-0.0467 0.25603,-0.0418 0.30968,0.0127 0.0539,0.0538 -0.0428,0.0921 -0.21203,0.0848 -0.18838,-0.008 -0.22668,-0.0462 -0.0977,-0.0976 z m 48.31819,-0.007 c 0.28862,-0.0359 0.76161,-0.0359 1.05055,0 0.28896,0.0359 0.0528,0.0653 -0.52534,0.0653 -0.57788,0 -0.81421,-0.0292 -0.52521,-0.0653 z m 14.2237,0 c 0.28889,-0.0359 0.76156,-0.0359 1.05053,0 0.28898,0.0359 0.0531,0.0653 -0.52527,0.0653 -0.57804,0 -0.8142,-0.0292 -0.52526,-0.0653 z m -128.013546,-0.1542 c 0.111117,-0.0454 0.292948,-0.0454 0.404068,0 0.111141,0.0451 0.0202,0.0819 -0.202029,0.0819 -0.222239,0 -0.313161,-0.0369 -0.202039,-0.0819 z m -0.63643,-0.16506 c 0.116673,-0.0468 0.256071,-0.0418 0.309797,0.0127 0.05365,0.0538 -0.04174,0.0922 -0.212142,0.0849 -0.18829,-0.008 -0.226603,-0.0461 -0.09766,-0.0977 z m 129.199266,-0.0154 c -0.31841,-0.0525 -0.36882,-0.13907 -0.31093,-0.53399 l 0.0697,-0.47153 -6.15453,0.011 c -3.58596,0.007 -6.01959,0.0695 -5.8312,0.15023 0.28431,0.12209 0.26867,0.14033 -0.13076,0.15028 -0.26235,0.007 -0.41208,-0.0571 -0.35465,-0.14951 0.0655,-0.10592 -5.05866,-0.17508 -15.0628,-0.20291 -11.53179,-0.0321 -9.84081,-0.0485 7.06254,-0.0689 12.22345,-0.0145 22.13318,0.01 22.0214,0.0554 -0.11161,0.0454 -0.16002,0.15155 -0.10718,0.23667 0.22402,0.36267 -0.59317,0.92271 -1.20123,0.82303 z m 2.40038,0.0864 c 0.13067,-0.12927 1.61646,-0.7568 1.61646,-0.68282 0,0.0374 -0.20023,0.1694 -0.44451,0.29385 -0.48413,0.24624 -1.30212,0.51768 -1.17195,0.38897 z M 41.409293,141.01606 c 0,-0.0836 0.06997,-0.19529 0.155447,-0.24817 0.09918,-0.0622 0.09764,-0.24805 -0.0048,-0.51622 -0.157874,-0.41525 -0.152554,-0.41906 0.450673,-0.31918 0.335731,0.0559 19.594249,0.11966 42.796674,0.14241 40.291323,0.0406 40.769583,0.0442 10.646837,0.0829 l -31.539442,0.0421 -0.200682,0.48446 c -0.233283,0.56333 -0.420968,0.61682 -0.565513,0.16132 -0.08482,-0.26704 -0.158753,-0.293 -0.426933,-0.14944 -0.270777,0.14494 -0.338884,0.11814 -0.41209,-0.16174 -0.08749,-0.33459 -0.111167,-0.33545 -9.443567,-0.33545 -7.020527,0 -9.355872,0.047 -9.355872,0.1886 0,0.10375 -0.04562,0.14301 -0.101307,0.0874 -0.133438,-0.1335 -1.03013,0.33347 -1.03013,0.53644 0,0.0868 -0.218197,0.15756 -0.484897,0.15756 -0.266693,0 -0.484893,-0.0686 -0.484893,-0.15216 z m 13.334744,-0.0961 c -0.266714,-0.12215 -0.389697,-0.22536 -0.273325,-0.22944 0.116365,-0.005 0.16662,-0.0806 0.11167,-0.16893 -0.168768,-0.27304 0.30207,-0.16849 0.686959,0.15257 0.632157,0.52742 0.363852,0.65299 -0.525304,0.2458 z m 5.253068,-0.32706 c 0,-0.13857 0.07389,-0.20631 0.164266,-0.15048 0.09033,0.0563 0.122433,0.1693 0.07127,0.25203 -0.138564,0.22418 -0.235556,0.18239 -0.235556,-0.10155 z m 6.245242,0.01 c -0.05657,-0.1476 -2.57e-4,-0.24244 0.144341,-0.24244 0.130552,0 0.237371,0.1091 0.237371,0.24244 0,0.13345 -0.06503,0.24236 -0.144339,0.24236 -0.07938,0 -0.186197,-0.10891 -0.237373,-0.24236 z m 26.173172,-0.0299 c -0.04692,-0.12203 0.07987,-0.17979 0.34913,-0.1591 0.232531,0.018 0.450213,0.11473 0.483769,0.21542 0.08232,0.24698 -0.73764,0.19161 -0.832899,-0.0568 z m 80.319831,0.1096 c -0.11843,-0.19175 0.55356,-0.47684 0.85405,-0.36252 0.1517,0.0584 0.1301,0.13713 -0.0814,0.29693 -0.34573,0.26231 -0.63646,0.28701 -0.77339,0.0657 z M 48.036243,140.52161 c -0.188923,-0.1221 -0.14432,-0.15722 0.20204,-0.15918 0.24448,-0.002 0.444492,0.0706 0.444492,0.15918 0,0.20436 -0.330284,0.20436 -0.646532,0 z m -9.48084,-0.40575 c -0.57755,-0.45523 -0.571478,-0.81162 0.02335,-1.3703 l 0.371685,-0.34927 0.78494,0.60577 c 0.431719,0.33329 0.669227,0.56374 0.527818,0.51197 -0.331365,-0.12102 -0.511573,0.0138 -0.752921,0.56312 -0.238662,0.54329 -0.311176,0.54618 -0.954876,0.0392 z M 174.8977,139.98237 c 0.12203,-0.14786 0.15747,-0.26893 0.0791,-0.26893 -0.0791,0 -0.21563,-0.16367 -0.30434,-0.36361 -0.0924,-0.20774 -0.28969,-0.3527 -0.46062,-0.33819 -0.22737,0.0196 -0.151,-0.12653 0.31728,-0.60611 0.69743,-0.71413 0.79874,-0.77078 0.55115,-0.30831 -0.14595,0.2728 -0.1229,0.32318 0.14781,0.32318 0.17661,0 0.39026,0.12392 0.47499,0.27538 0.13623,0.24344 0.1886,0.24791 0.45266,0.0411 0.27962,-0.22015 0.28369,-0.21453 0.0635,0.0882 -0.45139,0.62138 -0.89928,1.08172 -1.21992,1.25344 -0.28958,0.15528 -0.30004,0.14526 -0.10146,-0.0956 z m -133.436007,-0.8242 c -1.402038,-0.43965 -2.488135,-1.42436 -3.070363,-2.78426 -0.244031,-0.57003 -0.262922,-3.47725 -0.232436,-35.76979 0.03238,-34.341887 0.04035,-35.165586 0.34532,-35.855006 0.501216,-1.133078 1.226992,-1.918862 2.224927,-2.408914 l 0.922592,-0.45306 64.811197,-0.04124 c 71.55983,-0.0455 65.74326,-0.129656 67.17547,0.971973 0.37459,0.288162 0.90678,0.923962 1.18258,1.4129 l 0.50143,0.888986 0.0816,34.751127 c 0.045,19.113124 0.0211,35.111254 -0.0537,35.551204 -0.26023,1.54926 -1.09516,2.66029 -2.5926,3.45014 l -0.82884,0.43721 -64.8957,0.0299 c -53.08704,0.0251 -65.018743,-0.009 -65.570871,-0.18135 z m 16.396163,-14.45708 c 0.03037,-3.4884 -0.01029,-4.97456 -0.141012,-5.13187 -0.14801,-0.17832 -1.106211,-0.22149 -4.918984,-0.22149 -2.604344,0 -4.850226,0.0444 -4.990849,0.0981 -0.225463,0.0866 -0.255669,0.6849 -0.255669,5.06447 0,2.73159 0.04959,5.01594 0.110023,5.07646 0.06046,0.061 2.369839,0.0909 5.131857,0.0674 l 5.021842,-0.0432 z m -9.498334,-0.18108 v -4.36415 h 4.364104 4.364076 v 4.36415 4.36414 h -4.364076 -4.364104 z m 24.53022,0.18108 c 0.03041,-3.4884 -0.01047,-4.97456 -0.141006,-5.13187 -0.148162,-0.17849 -1.119757,-0.22149 -5.007353,-0.22149 -4.603444,0 -4.83114,0.0142 -4.990815,0.31265 -0.180277,0.33684 -0.24308,9.3232 -0.06837,9.77849 0.08822,0.22984 0.647843,0.2533 5.131854,0.21532 l 5.032865,-0.0432 z m -9.382724,0.42495 c 0.01916,-2.06679 0.03728,-4.03061 0.04031,-4.36405 l 0.006,-0.60613 h 4.283265 4.283283 v 4.36415 4.36414 l -4.323687,-5e-5 -4.323689,-8e-5 z m 2.026023,3.48937 c -0.111116,-0.045 -0.292968,-0.045 -0.404093,0 -0.111119,0.0452 -0.02019,0.0821 0.202044,0.0821 0.222245,0 0.313169,-0.0368 0.202049,-0.0821 z m 64.736539,-3.91432 c 0.0301,-3.4884 -0.01,-4.97456 -0.14098,-5.13187 -0.25468,-0.30678 -49.265309,-0.33396 -49.571768,-0.0279 -0.142254,0.1423 -0.193946,1.49178 -0.193946,5.06448 0,2.67884 0.04873,4.91928 0.108264,4.9788 0.05956,0.0599 11.278909,0.0902 24.93194,0.0674 l 24.82369,-0.0413 z m -49.09854,-0.14069 9e-6,-4.40454 h 24.164151 24.16419 v 4.36313 4.36306 l -24.16419,0.0419 -24.16417,0.0419 z m 10.869839,4.05501 c -0.111119,-0.045 -0.292966,-0.045 -0.404087,0 -0.11112,0.0452 -0.02019,0.0821 0.202046,0.0821 0.222254,0 0.313165,-0.0368 0.202041,-0.0821 z m 55.318781,-4.0954 v -5.09148 l -4.7337,-0.0433 c -3.0798,-0.028 -4.84456,0.0164 -5.05097,0.12695 -0.30446,0.16292 -0.31713,0.36629 -0.31713,5.06694 0,2.69342 0.0497,4.94669 0.10987,5.00719 0.0621,0.061 2.33354,0.091 5.05109,0.0674 l 4.94084,-0.043 z m -9.28849,0 0.0137,-4.36415 h 4.27377 4.27376 l 0.0177,0.36371 c 0.01,0.20004 0.041,2.16393 0.0672,4.36412 l 0.0496,4.00046 h -4.35498 -4.35474 z m 0.9339,4.08763 c -0.32516,-0.0497 -0.45142,-0.17586 -0.50111,-0.50107 -0.0615,-0.39267 -0.0688,-0.38388 -0.0908,0.0908 -0.0231,0.49444 0.01,0.52395 0.50101,0.50113 0.47456,-0.0222 0.48325,-0.0305 0.0909,-0.0909 z m 26.82375,-3.90655 c 0.0299,-3.4884 -0.01,-4.97456 -0.141,-5.13187 -0.14935,-0.18002 -1.27078,-0.22149 -5.99347,-0.22149 -3.69566,0 -5.92339,0.0614 -6.12219,0.16733 -0.29856,0.15977 -0.3127,0.38824 -0.3127,5.06452 0,2.69344 0.0495,4.94649 0.10964,5.00679 0.0618,0.0608 2.87883,0.0908 6.2633,0.0674 l 6.15351,-0.0428 z m -11.76123,-0.18108 v -4.36415 h 5.49557 5.4955 v 4.36415 4.36414 h -5.4955 -5.49557 z m 5.61349,4.10475 c -0.0539,-0.0537 -0.19324,-0.0599 -0.30983,-0.0127 -0.12894,0.0518 -0.0909,0.0903 0.0976,0.0977 0.17043,0.008 0.26585,-0.0312 0.21223,-0.0849 z M 57.701906,113.49661 c 0.142345,-0.14228 0.193967,-1.4989 0.193967,-5.09653 0,-4.51706 -0.02227,-4.91165 -0.282854,-5.01869 -0.369104,-0.15161 -9.409709,-0.15161 -9.778802,0 -0.260813,0.10711 -0.282875,0.50636 -0.282875,5.11835 0,3.8506 0.04664,5.02104 0.20205,5.08374 0.111124,0.0452 2.35136,0.0874 4.97831,0.0943 3.51407,0.01 4.827516,-0.0386 4.970204,-0.1812 z m -9.342384,-4.97833 v -4.364 h 4.116572 c 3.460466,0 4.102733,0.036 4.029797,0.22607 -0.04778,0.12429 -0.0092,0.27406 0.08589,0.33276 0.101083,0.0628 0.172658,-0.0312 0.172658,-0.22609 0,-0.18309 0.06624,-0.33274 0.147234,-0.33274 0.08443,0 0.156177,1.86218 0.168201,4.364 l 0.02099,4.36413 H 52.730199 48.35955 Z m 24.312572,5.07415 c 0.225464,-0.0866 0.255667,-0.68552 0.255667,-5.07163 0,-3.90309 -0.04557,-5.01127 -0.211733,-5.14928 -0.222744,-0.18484 -9.673944,-0.12832 -9.978153,0.0601 -0.241647,0.14938 -0.20386,9.82228 0.03935,10.06546 0.142002,0.14201 1.458956,0.19393 4.916604,0.19393 2.597443,0 4.837678,-0.0445 4.9783,-0.0981 z m -9.17865,-2.20511 c -0.04942,-0.82236 -0.07434,-2.80438 -0.05543,-4.4045 l 0.03421,-2.90943 3.879217,0.0401 c 2.133551,0.0221 4.079208,0.0404 4.323675,0.0407 l 0.444489,5.6e-4 v 4.3641 4.36412 h -4.268199 -4.268195 z m 24.266503,-2.85801 c 0.02748,-3.26278 -0.01511,-5.11627 -0.119054,-5.18047 -0.224697,-0.13887 -9.610284,-0.0794 -9.839678,0.0631 -0.272622,0.1685 -0.262888,9.81408 0.01017,10.08723 0.147185,0.14712 1.410378,0.1855 5.051032,0.15351 l 4.854762,-0.0431 z m -9.336662,0.49409 c 0,-2.12243 0.0451,-4.08397 0.09999,-4.35886 l 0.09998,-0.50001 4.183395,-0.0455 4.183412,-0.0457 -10e-5,4.40442 -1.12e-4,4.40455 h -4.283297 -4.283274 z m 0.565716,-4.5459 c 0.05483,-0.0892 0.02289,-0.16163 -0.07128,-0.16163 -0.09414,0 -0.171165,0.0729 -0.171165,0.16163 0,0.0891 0.03203,0.16161 0.07125,0.16161 0.03921,0 0.116236,-0.0729 0.171172,-0.16161 z m 23.646949,9.01911 c 0.28456,-0.28449 0.27681,-9.88588 -0.009,-10.10386 -0.21838,-0.16697 -9.723417,-0.19631 -9.889264,-0.0304 -0.178212,0.17817 -0.207912,9.98569 -0.03073,10.16284 0.250862,0.25089 9.675664,0.22384 9.928034,-0.0285 z m -9.18078,-4.96135 v -4.3472 l 2.545683,-0.0576 c 1.400119,-0.0316 3.327601,-0.0325 4.283377,-0.002 l 1.73752,0.0552 v 4.34939 4.34935 H 97.738511 93.45517 Z m 23.98931,5.05717 c 0.22536,-0.0866 0.25575,-0.68552 0.25575,-5.07163 0,-4.23176 -0.0365,-5.00367 -0.24336,-5.17542 -0.18664,-0.15492 -1.32789,-0.18583 -4.89357,-0.13261 -2.55766,0.0383 -4.73927,0.12441 -4.84815,0.19172 -0.28947,0.1789 -0.28554,10.06215 0.005,10.17899 0.29148,0.11762 9.42028,0.12602 9.72516,0.01 z m -9.11903,-5.07415 v -4.364 l 4.16208,0.0188 c 2.28901,0.0103 4.03474,0.0522 3.87912,0.0924 -0.3455,0.0907 -0.37615,0.3735 -0.0414,0.3735 0.13335,0 0.25101,0.0911 0.26163,0.20208 0.01,0.11111 0.0748,-0.016 0.14251,-0.28289 0.0679,-0.2667 0.13191,1.49715 0.14249,3.91958 l 0.0193,4.40455 h -4.28329 -4.28326 z m 24.24635,0.16166 c 0.0457,-2.71139 0.0571,-5.01792 0.026,-5.12573 -0.0313,-0.10765 -0.17734,-0.2277 -0.32465,-0.26673 -0.14739,-0.0392 -2.41361,-0.024 -5.03621,0.0341 l -4.76816,0.10514 -0.0433,4.91034 c -0.0305,3.51791 0.0105,4.97384 0.14303,5.13418 0.15207,0.18345 1.06486,0.21612 5.05325,0.18113 l 4.86777,-0.0432 z m -9.37609,-0.16166 v -4.364 l 2.70727,-0.0274 c 2.68895,-0.0273 3.38209,-0.026 5.01076,0.01 l 0.84848,0.0182 v 4.36407 4.36415 h -4.28332 -4.28319 z m 24.20671,-0.0153 0.043,-5.10694 -4.32579,-0.0867 c -2.37929,-0.0476 -4.65333,-0.041 -5.05337,0.0153 l -0.72724,0.10204 -0.0434,4.91034 c -0.0304,3.51789 0.01,4.97383 0.14306,5.13415 0.1521,0.18345 1.06481,0.21613 5.05345,0.18112 l 4.86751,-0.0431 z m -8.52825,4.13709 c 0.1647,-0.19857 0.1536,-0.24243 -0.0623,-0.24243 -0.14423,0 -0.26219,-0.0774 -0.26219,-0.1712 0,-0.0941 -0.0656,-0.13088 -0.14474,-0.0824 -0.28217,0.1745 -0.34013,-0.45751 -0.33769,-3.67984 0.004,-2.8353 0.0893,-3.77718 0.33883,-3.66281 0.0346,0.0157 0.27374,-0.0674 0.53146,-0.18475 l 0.46863,-0.21356 -0.38782,-0.10858 c -0.21336,-0.0602 0.92127,-0.1304 2.52151,-0.15702 2.85805,-0.0476 4.94979,-0.0176 5.03978,0.0726 0.0422,0.0411 0.0938,6.83205 0.0635,8.14686 l -0.0119,0.52531 h -3.9797 c -3.51936,0 -3.95652,-0.0281 -3.77865,-0.24249 z m 26.91174,-4.12165 v -5.09141 l -1.93944,-0.0815 c -1.06675,-0.0445 -3.8671,-0.0445 -6.22295,0 l -4.28332,0.0815 -0.0431,4.91034 c -0.0302,3.5127 0.0103,4.97395 0.14262,5.13377 0.15307,0.18429 1.25022,0.21599 6.26565,0.18109 l 6.08035,-0.0428 z m -11.71832,0 v -4.36403 h 5.49557 5.4955 v 4.36404 4.36412 h -5.4955 -5.49557 z M 65.798449,97.30587 c 0.130697,-0.157534 0.171404,-1.685511 0.141,-5.293515 l -0.04278,-5.072065 h -9.132231 -9.132293 l -0.04281,5.161288 c -0.03325,4.021557 0.0028,5.189929 0.161622,5.290985 0.112389,0.07158 4.177689,0.130855 9.03398,0.132213 7.280773,0.003 8.861866,-0.03646 9.013379,-0.218906 z m -17.438716,-5.152908 -2.11e-4,-4.485326 h 8.404923 8.404916 v 4.44491 4.444866 l -0.606127,0.03696 c -0.33336,0.02035 -4.11548,0.03858 -8.404711,0.0406 l -7.798597,0.004 z m 32.94063,5.180296 c 0.224792,-0.224789 0.280759,-9.925139 0.05929,-10.274056 -0.10106,-0.159219 -1.269442,-0.194925 -5.290997,-0.161631 l -5.161299,0.04279 -0.04278,5.072067 c -0.03041,3.607995 0.01024,5.135964 0.141019,5.293488 0.251051,0.302498 9.993706,0.328441 10.29474,0.02754 z m -9.130082,-0.727984 -0.515015,-0.06691 -0.01498,-4.02472 c -0.0085,-2.213619 0.03129,-4.209561 0.08805,-4.435448 l 0.103079,-0.410678 h 4.427394 4.427389 v 4.493845 4.493852 l -4.000425,0.0087 c -2.200226,0.0048 -4.232182,-0.02177 -4.515438,-0.05863 z m 24.52823,0.754673 c 0.298578,-0.159832 0.31253,-0.389103 0.31253,-5.139943 0,-3.652076 -0.05172,-5.024119 -0.193921,-5.166575 -0.277146,-0.277248 -10.002601,-0.277248 -10.279836,0 -0.277262,0.277257 -0.277262,10.002633 0,10.279829 0.252897,0.252957 9.692134,0.277756 10.161227,0.02696 z m -9.386529,-0.709418 c -0.02933,-0.317401 -0.04968,-5.166954 -0.02846,-6.764936 l 0.02948,-2.226973 4.364096,0.01408 4.364045,0.01408 v 4.507471 4.507377 l -4.364054,-0.01969 c -2.400259,-0.01061 -4.364607,-0.02538 -4.36522,-0.03184 z m 24.698708,0.682729 c 0.22482,-0.224799 0.28081,-9.925151 0.0603,-10.274097 -0.10103,-0.159172 -1.25333,-0.194928 -5.21007,-0.161628 l -5.0805,0.04283 -0.0438,5.161288 c -0.0331,4.021539 0.002,5.189905 0.16174,5.290974 0.34873,0.221408 9.88756,0.165458 10.1124,-0.05964 z m -8.97888,-0.731111 -0.52526,-0.06526 v -4.434681 -4.434675 h 4.44493 4.44503 v 4.525729 4.525776 l -3.91969,-0.02615 c -2.1558,-0.01407 -4.15592,-0.05539 -4.44501,-0.09126 z m 0.12137,-0.269807 c 0,-0.03504 -0.10903,-0.10541 -0.24254,-0.156601 -0.1333,-0.05128 -0.2424,-0.02274 -0.2424,0.06363 0,0.08629 0.1091,0.156547 0.2424,0.156547 0.13351,0 0.24254,-0.0285 0.24254,-0.06382 z m 24.04521,1.060223 c 0.15924,-0.101056 0.19484,-1.269428 0.16163,-5.290985 l -0.0434,-5.161288 h -5.17227 -5.17215 l -0.0434,5.072065 c -0.0302,3.608004 0.0102,5.135981 0.14108,5.293515 0.14804,0.178577 1.12527,0.220913 5.05319,0.218906 2.67834,-0.002 4.96174,-0.0613 5.07404,-0.132213 z m -9.40413,-0.794813 c -0.0523,-0.05182 -0.094,-2.082284 -0.094,-4.512145 v -4.417969 h 4.44488 4.44481 v 4.509156 4.509161 l -4.35076,0.003 c -2.39293,0.002 -4.39296,-0.03965 -4.4449,-0.091 z m 24.77995,0.70812 c 0.13078,-0.157534 0.17135,-1.685511 0.14108,-5.293515 l -0.0431,-5.072065 -5.07206,-0.04281 c -3.60804,-0.0304 -5.13609,0.01024 -5.29348,0.141006 -0.17864,0.148311 -0.22142,1.144994 -0.22142,5.166567 0,4.575092 0.0236,4.996334 0.2828,5.147573 0.17456,0.1017 2.14662,0.166602 5.15255,0.169696 3.93025,0.004 4.90505,-0.03793 5.05342,-0.216501 z m -9.51896,-5.112499 v -4.525735 h 4.445 4.44494 v 4.525735 4.525763 h -4.44494 -4.445 z m 32.63255,5.112499 c 0.1308,-0.157534 0.1714,-1.685511 0.14091,-5.293515 l -0.0431,-5.072065 h -9.13226 -9.1323 l -0.0431,5.072065 c -0.03,3.608004 0.01,5.135981 0.14104,5.293515 0.15131,0.182527 1.73789,0.221408 9.03394,0.221408 7.2959,0 8.88251,-0.03909 9.03392,-0.221408 z m -16.3075,-0.753967 c -0.31118,-0.06277 -0.46267,-0.123096 -0.33676,-0.134807 0.33859,-0.0314 0.0716,-0.232681 -0.35013,-0.263645 -0.3637,-0.02691 -0.36373,-0.02701 -0.41191,-3.569309 -0.0265,-1.948433 -0.006,-3.851749 0.0503,-4.229559 l 0.0985,-0.686947 h 8.31411 8.31426 v 4.511575 4.511586 l -7.55629,-0.01254 c -4.15605,-0.0077 -7.81101,-0.06402 -8.12196,-0.126227 z M 58.181066,76.211056 c 0.03063,-3.637245 -0.0098,-5.135349 -0.142886,-5.29573 -0.152277,-0.183509 -1.102761,-0.215999 -5.295816,-0.181009 l -5.110208,0.04272 -0.04284,5.089963 c -0.02353,2.799477 -0.0075,5.182551 0.03614,5.29573 0.06215,0.161958 1.189719,0.196684 5.295845,0.163121 l 5.216885,-0.04273 z m -9.821544,-0.181005 v -4.525736 l 4.323674,0.0023 c 2.851265,0.0021 4.241122,0.05584 4.081249,0.159161 -0.161635,0.104454 -0.175112,0.157505 -0.04038,0.159154 0.308161,0.0039 0.448715,-0.06565 0.404075,-0.199561 -0.02227,-0.06668 0.03234,-0.121225 0.121236,-0.121225 0.103894,0 0.161632,1.616326 0.161632,4.525726 v 4.525739 H 52.88525 48.359524 Z m 0.764375,4.266454 c -0.05365,-0.05366 -0.193105,-0.05945 -0.309791,-0.01269 -0.128936,0.05151 -0.09064,0.08991 0.09766,0.09766 0.170386,0.0071 0.265855,-0.03122 0.212136,-0.0849 z m 7.963805,-0.04388 c 0,-0.135707 -1.621578,-0.06884 -1.763122,0.07275 -0.03781,0.03779 0.343448,0.06877 0.8472,0.06877 0.503758,0 0.915922,-0.06368 0.915922,-0.141491 z m 16.729042,-4.222594 v -5.253084 l -5.152935,-0.04275 c -3.667772,-0.03043 -5.216731,0.01017 -5.374294,0.141014 -0.178758,0.148359 -0.221377,1.154899 -0.221377,5.228435 0,2.774591 0.04945,5.094191 0.109937,5.154651 0.06046,0.06041 2.47889,0.09079 5.374282,0.06737 l 5.264387,-0.04263 z m -9.778819,0 V 71.50429 h 4.525747 4.525717 v 4.525737 4.52573 h -4.525717 -4.525747 z m 2.703985,4.266453 c -0.05363,-0.05365 -0.193111,-0.05944 -0.309785,-0.01269 -0.128946,0.05151 -0.09065,0.08992 0.09766,0.09766 0.170385,0.0071 0.265852,-0.03123 0.21213,-0.0849 z m 0.973176,-0.01375 c -0.155567,-0.04069 -0.410134,-0.04069 -0.565716,0 -0.155578,0.04069 -0.02845,0.07389 0.28286,0.07389 0.311142,0 0.43843,-0.0332 0.282856,-0.07389 z m 1.289703,0.01376 c -0.05363,-0.05366 -0.193126,-0.05945 -0.3098,-0.01269 -0.12894,0.05151 -0.09068,0.08992 0.09766,0.09766 0.170368,0.0071 0.265839,-0.03121 0.212143,-0.08491 z m 1.293058,0 c -0.05363,-0.05366 -0.19312,-0.05945 -0.309797,-0.01269 -0.128948,0.05151 -0.09067,0.08992 0.09766,0.09766 0.170404,0.0071 0.265858,-0.03121 0.212143,-0.08491 z m 18.856749,0.811774 c 0.05389,-0.140627 0.09811,-2.459241 0.09811,-5.152473 0,-3.948751 -0.04292,-4.932373 -0.221413,-5.080556 -0.157505,-0.130715 -1.685496,-0.171418 -5.293491,-0.141015 l -5.072079,0.04277 -0.04281,5.089955 c -0.02354,2.799478 -0.0078,5.181553 0.03532,5.293484 0.06052,0.157744 1.239116,0.203529 5.238144,0.203529 4.556172,0 5.171515,-0.02999 5.258156,-0.255666 z m -9.761505,-5.078239 v -4.525737 h 4.435013 4.434994 l 0.09264,0.686937 c 0.05089,0.377832 0.07355,2.414233 0.05036,4.525365 l -0.0423,3.838415 -4.485322,3.76e-4 -4.485314,3.75e-4 z m 7.885948,4.244836 c -0.507684,-0.03198 -1.380502,-0.03217 -1.939596,-5.73e-4 -0.559101,0.03158 -0.143723,0.05782 0.923041,0.05812 1.066792,3.19e-4 1.524227,-0.02561 1.016555,-0.05752 z m 17.069011,0.833384 c 0.0541,-0.140628 0.0983,-2.453576 0.0983,-5.13993 0,-3.583363 -0.0521,-4.935929 -0.19409,-5.07823 -0.27719,-0.277248 -10.002577,-0.277248 -10.279832,0 -0.142552,0.142558 -0.193959,1.527738 -0.193959,5.226139 0,2.767718 0.04868,5.080669 0.107753,5.139933 0.05927,0.0593 2.415303,0.107768 5.235692,0.107768 4.527026,0 5.139646,-0.03004 5.226166,-0.25568 z m -9.74746,-5.07822 -0.03488,-4.525738 h 4.436368 c 4.092912,0 4.441512,0.02193 4.500942,0.282864 0.0354,0.155568 0.0369,2.192142 0.003,4.525729 l -0.0624,4.242875 h -4.404578 -4.404487 z m 2.167973,4.268112 c -0.767784,-0.123433 -1.858711,-0.13893 -1.858711,-0.02649 0,0.06734 0.490998,0.11248 1.091001,0.100373 0.600131,-0.01203 0.945662,-0.04541 0.76771,-0.07395 z m 22.773047,0.810108 c 0.0542,-0.140628 0.0981,-2.453576 0.0981,-5.139931 0,-3.583363 -0.0523,-4.935929 -0.19396,-5.078229 -0.27723,-0.277248 -10.00257,-0.277248 -10.27985,0 -0.14244,0.142557 -0.19398,1.527737 -0.19398,5.226138 0,2.767718 0.0487,5.080669 0.10773,5.139933 0.0603,0.0593 2.41538,0.107768 5.23596,0.107768 4.52677,0 5.13931,-0.03002 5.22598,-0.255679 z m -9.76156,-5.078218 v -4.525736 l 4.4854,2.4e-5 4.48536,3.6e-5 0.0274,4.52571 0.027,4.525696 h -4.51231 -4.51249 z m 2.62666,4.257046 c -0.11119,-0.04492 -0.29302,-0.04492 -0.40409,0 -0.11126,0.04492 -0.0207,0.08155 0.20202,0.08155 0.22225,0 0.313,-0.03665 0.20207,-0.08155 z m 1.61938,0.0014 c -0.10951,-0.04433 -0.32764,-0.047 -0.48488,-0.0061 -0.15729,0.04103 -0.0679,0.0772 0.19894,0.08048 0.26664,0.0037 0.39538,-0.03029 0.28594,-0.0745 z m 20.76899,-4.0771 c 0.03,-3.607984 -0.01,-5.135985 -0.14093,-5.293482 -0.251,-0.302498 -9.99373,-0.328482 -10.29473,-0.02747 -0.27915,0.279169 -0.27707,10.00281 0.003,10.282101 0.14743,0.147385 1.4642,0.185579 5.29358,0.153554 l 5.09716,-0.04271 z m -9.65976,-0.181151 v -4.525727 h 4.43115 4.43134 l 0.0201,4.525727 0.0201,4.525736 h -4.45103 -4.45089 z m 3.75781,4.257051 c -0.11095,-0.04489 -0.29285,-0.04489 -0.40395,0 -0.11105,0.04493 -0.0208,0.08155 0.20193,0.08155 0.22222,0 0.3133,-0.03665 0.20202,-0.08155 z m 4.69054,0.0014 c -0.10952,-0.04431 -0.32759,-0.04701 -0.48487,-0.0061 -0.15724,0.04103 -0.0678,0.0772 0.19895,0.08048 0.26666,0.0037 0.39538,-0.03031 0.28592,-0.0745 z m 16.50664,0.820145 c 0.0538,-0.140627 0.0981,-2.453587 0.0981,-5.139934 0,-3.583362 -0.0521,-4.935928 -0.19398,-5.078231 -0.27733,-0.277345 -10.1641,-0.277345 -10.44145,0 -0.14248,0.142408 -0.19409,1.508577 -0.19409,5.139937 0,3.631361 0.0523,4.997533 0.19409,5.139937 0.14274,0.142693 1.54771,0.193957 5.3165,0.193957 4.52217,0 5.13418,-0.03002 5.2208,-0.255666 z m -9.76158,-5.078314 v -4.525731 h 4.50079 4.50062 l 0.0235,4.52573 0.0238,4.525733 h -4.52398 -4.52408 z m 25.49995,0.09176 c 0.0336,-4.021558 -0.004,-5.18994 -0.16155,-5.291007 -0.34921,-0.221566 -10.21098,-0.165537 -10.4358,0.05931 -0.14253,0.14255 -0.19374,1.527733 -0.19374,5.226137 0,2.767704 0.0497,5.081649 0.1097,5.14211 0.0621,0.06041 2.47897,0.09077 5.37434,0.06737 l 5.26428,-0.04263 z m -9.82146,-0.09175 v -4.525732 h 4.52558 4.52586 v 4.525731 4.525732 h -4.52586 -4.52558 z m 3.92262,4.258077 c -0.10929,-0.04432 -0.32772,-0.04701 -0.48482,-0.006 -0.15732,0.04102 -0.0679,0.0772 0.19894,0.08047 0.26667,0.0037 0.39537,-0.03033 0.28588,-0.07451 z m 1.04431,0.0087 c -0.0538,-0.05365 -0.19319,-0.05944 -0.30982,-0.01269 -0.12907,0.05151 -0.0911,0.08987 0.0976,0.09766 0.17038,0.0071 0.26588,-0.03117 0.21225,-0.0849 z m 1.61971,-0.01806 c -0.2446,-0.03705 -0.64459,-0.03705 -0.88906,0 -0.24444,0.03704 -0.0451,0.06736 0.44452,0.06736 0.48907,0 0.68892,-0.03034 0.44454,-0.06736 z M 156.38887,71.9092 c 0.0517,-0.133339 0.0229,-0.242449 -0.0632,-0.242449 -0.0861,0 -0.15656,0.10911 -0.15656,0.242449 0,0.133349 0.0287,0.242452 0.0636,0.242452 0.0349,0 0.10528,-0.109103 0.15652,-0.242452 z M 36.537699,137.51816 c -0.180225,-0.40746 -0.298986,-0.76955 -0.263917,-0.80463 0.03508,-0.0351 0.216733,0.29841 0.403684,0.74076 0.186952,0.44251 0.305712,0.8046 0.263918,0.8046 -0.04179,0 -0.223465,-0.33325 -0.403685,-0.74073 z m 0.390756,0.0675 c -0.337429,-0.40655 -0.414212,-1.05245 -0.13774,-1.15855 0.168767,-0.0648 0.255308,-0.30346 0.256955,-0.70879 0.002,-0.4541 0.04276,-0.54887 0.159154,-0.36863 0.106637,0.16481 0.151485,-0.2481 0.140412,-1.29322 -0.0092,-0.84447 -0.04957,-1.40812 -0.09024,-1.25266 -0.0895,0.34248 -0.347088,0.3537 -0.770528,0.0337 -0.311842,-0.23589 -0.311279,-0.24257 0.04039,-0.48896 0.339031,-0.23755 0.527751,-1.20078 0.235417,-1.20165 -0.0667,-1.9e-4 -0.128776,-0.21465 -0.138018,-0.47674 -0.0164,-0.46556 0.28938,-0.75465 0.597098,-0.56449 0.08688,0.0537 0.147044,-1.6044 0.147044,-4.04986 0,-2.53001 -0.05883,-4.10434 -0.151259,-4.04723 -0.08322,0.0516 -0.201469,-0.25343 -0.262832,-0.67739 -0.06138,-0.424 -0.184205,-0.862 -0.272954,-0.97334 -0.0888,-0.11133 -0.117762,-0.42047 -0.06448,-0.68693 0.0726,-0.36306 0.03714,-0.4845 -0.141507,-0.4845 -0.317137,0 -0.305414,-0.30771 0.01642,-0.4312 0.140153,-0.0538 0.326168,-0.28546 0.413357,-0.51475 0.127999,-0.33667 0.187395,-0.37136 0.308414,-0.17996 0.102635,0.16228 0.149874,-0.0437 0.149874,-0.65207 0,-0.64781 -0.04398,-0.82325 -0.162117,-0.64652 -0.139408,0.20846 -0.189411,0.19716 -0.356979,-0.0815 -0.270473,-0.44869 -0.253939,-0.59144 0.118436,-1.02263 0.289547,-0.33523 0.334194,-0.67722 0.411405,-3.1518 0.04766,-1.52672 0.102194,3.01328 0.12123,10.08879 0.03517,13.07504 0.04036,13.19922 0.611154,14.61307 0.120289,0.29786 0.10678,0.30428 -0.172467,0.0813 -0.278894,-0.2232 -0.293387,-0.21665 -0.182316,0.0815 0.09499,0.25446 0.07854,0.2815 -0.07724,0.12685 -0.155407,-0.15428 -0.237391,-0.14237 -0.381747,0.0553 -0.152731,0.20896 -0.214413,0.21458 -0.364395,0.0341 z m 139.942975,-0.32739 c -0.01,-0.23916 -0.0865,-0.48003 -0.17563,-0.53506 -0.23736,-0.1467 0.13651,-0.77144 0.40099,-0.66993 0.12506,0.0478 0.25349,-0.0647 0.30863,-0.27037 0.0526,-0.19381 0.0921,-9.44436 0.0899,-20.55665 -0.007,-15.899855 -0.047,-20.110063 -0.20001,-19.762742 -0.20489,0.464497 -0.42143,0.432324 -0.71568,-0.1061 -0.28201,-0.516031 -0.4136,3.457002 -0.34048,10.288842 0.0368,3.40212 0.0226,7.16762 -0.0324,8.36779 -0.054,1.20009 -0.0985,-7.27352 -0.0986,-18.830305 -4e-5,-11.556754 0.0275,-20.666808 0.062,-20.24454 0.0561,0.706126 0.0955,0.769051 0.4962,0.783873 l 0.43555,0.01603 -0.40405,0.112108 c -0.39543,0.109724 -0.40512,0.149682 -0.45341,1.883078 -0.0624,2.188059 0.0643,3.204773 0.37932,3.083847 0.3279,-0.125892 0.46069,0.193061 0.2092,0.503193 -0.11872,0.146523 -0.1333,0.216888 -0.0325,0.156377 0.10835,-0.0649 0.22349,0.0385 0.28065,0.251832 0.15406,0.574897 0.11893,0.765938 -0.14102,0.765938 -0.13332,0 -0.24249,0.07792 -0.24249,0.17317 0,0.09523 -0.10914,0.282285 -0.24244,0.415632 -0.18572,0.185777 -0.24245,0.653174 -0.24245,1.999333 0,0.966279 0.0667,1.798213 0.14867,1.848726 0.0823,0.05058 0.25819,-0.01768 0.39197,-0.151636 0.13403,-0.133898 0.35754,-0.199734 0.49684,-0.146274 0.22804,0.08756 0.25762,-0.946161 0.29694,-10.3854 0.0244,-5.765424 0.0431,5.373622 0.0423,24.753468 l -0.003,35.23606 -0.35013,0.72736 c -0.31404,0.65271 -0.35131,0.68267 -0.36359,0.29232 z m 0.63303,-46.132669 c 0,-2.396251 -0.0368,-2.831917 -0.2301,-2.757525 -0.13605,0.05215 -0.34495,-0.08658 -0.50992,-0.338276 -0.26153,-0.399125 -0.28693,-0.406304 -0.39407,-0.111468 -0.0631,0.173344 -0.10073,0.551552 -0.0843,0.840481 0.0167,0.288913 0.0434,0.982601 0.0591,1.541521 0.0243,0.858207 0.0744,1.019687 0.32466,1.038548 0.18096,0.01361 0.36639,-0.146097 0.47632,-0.410108 0.13952,-0.335043 0.17779,-0.359624 0.16987,-0.109141 -0.0327,1.047104 0.0404,3.151843 0.10808,3.151843 0.0454,0 0.0816,-1.280639 0.0816,-2.845875 z m -0.96983,-1.128239 c 0,-0.539794 0.0251,-0.571904 0.28279,-0.369357 0.15556,0.122011 0.33633,0.294551 0.4017,0.383468 0.14529,0.197793 0.16352,0.497808 0.0222,0.355881 -0.0568,-0.05609 -0.23793,-0.02939 -0.40409,0.05958 -0.2694,0.144145 -0.30199,0.09767 -0.30199,-0.429565 z m -0.0517,1.680941 c -0.0521,-0.128937 -0.0903,-0.09065 -0.0978,0.09766 -0.01,0.170389 0.0311,0.265857 0.0851,0.212129 0.0537,-0.05363 0.0607,-0.1931 0.0128,-0.309786 z m 0.85923,-4.01052 c -0.12829,-0.07923 -0.2695,-0.107695 -0.31382,-0.06325 -0.0451,0.04451 0.0246,0.145646 0.15217,0.224877 0.12829,0.07924 0.2695,0.107688 0.314,0.06324 0.0451,-0.04451 -0.0245,-0.145644 -0.15235,-0.224875 z m -1.39545,48.290337 c 0.0538,-0.20129 0.10703,-0.72977 0.11793,-1.17419 l 0.0204,-0.80839 0.14042,0.71573 c 0.0779,0.39361 0.23292,0.7744 0.34595,0.84607 0.18577,0.11804 0.0626,0.20056 -0.23305,0.15661 -0.0632,-0.01 -0.0778,0.082 -0.031,0.20243 0.0465,0.12075 -0.038,0.2663 -0.1869,0.32369 -0.21881,0.0841 -0.25223,0.0334 -0.17308,-0.26195 z M 35.993112,100.75992 c 0,-19.157569 0.01885,-26.994754 0.04187,-17.415969 0.02302,9.578775 0.02302,25.253089 0,34.831959 -0.02302,9.57879 -0.04187,1.74161 -0.04187,-17.41599 z m 0.243909,32.75766 c 0,-0.11853 0.107952,-0.21544 0.239886,-0.21544 0.181582,0 0.196414,0.0528 0.06103,0.21544 -0.09837,0.11854 -0.206317,0.21547 -0.239888,0.21547 -0.03353,0 -0.06103,-0.0969 -0.06103,-0.21547 z M 176.0753,131.95512 c 0,-0.22221 0.0371,-0.3131 0.0822,-0.202 0.0454,0.11112 0.0454,0.29299 0,0.404 -0.0455,0.1112 -0.0822,0.0205 -0.0822,-0.202 z M 36.398662,131.79351 c 0,-0.0892 0.07273,-0.16168 0.161632,-0.16168 0.08894,0 0.161633,0.0728 0.161633,0.16168 0,0.0892 -0.07275,0.16161 -0.161633,0.16161 -0.08894,0 -0.161632,-0.0729 -0.161632,-0.16161 z M 176.04971,123.4694 c 0,-3.45223 0.0422,-6.23557 0.0916,-6.1851 0.11487,0.11472 0.10726,12.26298 -0.01,12.37779 -0.0464,0.0464 -0.0843,-2.74049 -0.0843,-6.19269 z M 37.05795,122.64774 c 0.008,-0.18826 0.04606,-0.22661 0.09766,-0.0977 0.04674,0.11668 0.04097,0.25608 -0.01275,0.30983 -0.05369,0.0537 -0.0919,-0.0422 -0.0849,-0.21217 z m -0.689594,-5.99658 c 0.116673,-0.0466 0.256083,-0.0413 0.309794,0.0127 0.05369,0.0537 -0.04174,0.0921 -0.212138,0.0847 -0.188298,-0.008 -0.226603,-0.0463 -0.09766,-0.0977 z m 1.048535,-8.61779 c 0,-0.48891 0.03034,-0.68895 0.06734,-0.44444 0.03704,0.24447 0.03704,0.64448 0,0.88895 -0.03704,0.24447 -0.06734,0.0448 -0.06734,-0.44451 z m 0.01617,-4.28322 c 2.29e-4,-1.33349 0.02527,-1.85749 0.05562,-1.16445 0.03039,0.69304 0.03018,1.78405 -4.09e-4,2.42446 -0.03056,0.6405 -0.05542,0.0736 -0.0552,-1.26001 z m -0.375148,-0.66004 c 0.008,-0.18832 0.04606,-0.22659 0.09766,-0.0977 0.04674,0.11669 0.04098,0.25608 -0.01275,0.30983 -0.05368,0.0537 -0.0919,-0.0422 -0.0849,-0.21218 z m 0.310511,-4.925906 c 0,-1.468091 -0.06224,-2.557173 -0.143316,-2.507038 -0.18769,0.115977 -0.558629,-0.333988 -0.437239,-0.53038 0.05156,-0.08381 -0.01489,-0.193458 -0.14772,-0.244471 -0.300412,-0.115258 -0.316653,-0.809047 -0.02463,-1.051421 0.119306,-0.09901 0.252973,-0.143966 0.297046,-0.09989 0.04407,0.0441 0.09013,-0.185048 0.102295,-0.509175 0.02599,-0.690616 0.17591,-0.933131 0.227816,-0.368464 0.01973,0.214839 0.07631,-1.318659 0.125724,-3.407757 0.07362,-3.114335 0.09629,-2.437572 0.125729,3.757973 0.01974,4.155979 -4.65e-4,7.556339 -0.04494,7.556339 -0.04447,0 -0.0808,-1.168024 -0.0808,-2.595715 z m -0.484892,0.351918 c 0,-0.08916 0.07269,-0.206542 0.161626,-0.261512 0.08894,-0.05506 0.161635,-0.02724 0.161635,0.06221 0,0.08896 -0.07271,0.206609 -0.161635,0.261511 -0.08894,0.05506 -0.161626,0.02734 -0.161626,-0.06221 z m -0.53878,-0.126852 c -0.148044,-0.148014 -0.136547,-1.023058 0.01345,-1.025831 0.0667,-0.002 0.284874,-0.04636 0.484891,-0.09968 0.274178,-0.07372 0.363676,-0.0288 0.363676,0.181149 0,0.180219 -0.08493,0.246003 -0.240504,0.18632 -0.132284,-0.05072 -0.232772,-0.04054 -0.22331,0.02338 0.09281,0.622717 -0.119209,1.014037 -0.398229,0.73499 z m 0.631589,-9.799768 c -0.0724,-0.248608 -0.08653,-0.497131 -0.03139,-0.552241 0.180926,-0.180927 0.287324,0.07723 0.224605,0.544993 l -0.06157,0.459266 z m 0.463704,-7.791275 c -6.8e-5,-2.666949 0.02207,-3.780654 0.04922,-2.474901 0.02716,1.305764 0.02722,3.48781 1.35e-4,4.849002 -0.02708,1.361187 -0.04928,0.292843 -0.04935,-2.374101 z m -0.05884,-7.771867 c 0.008,-0.188291 0.04607,-0.226591 0.09766,-0.09765 0.04674,0.116679 0.04096,0.256082 -0.01274,0.309799 -0.05368,0.05368 -0.09192,-0.04177 -0.0849,-0.212153 z M 176.04823,68.999 c -0.0457,-2.133555 -0.13734,-4.024663 -0.20444,-4.202448 -0.0671,-0.177802 -0.01,-0.08407 0.12582,0.208292 0.20435,0.438172 0.2401,1.176543 0.20438,4.202466 l -0.0442,3.670894 z M 37.393977,71.665953 c 0,-0.222251 0.03667,-0.313161 0.08154,-0.202041 0.04488,0.111121 0.04488,0.29296 0,0.404084 -0.04487,0.111122 -0.08154,0.02018 -0.08154,-0.202043 z m 0.03675,-4.040828 c 0,-1.111222 0.02583,-1.565821 0.05738,-1.010212 0.03156,0.555616 0.03156,1.464801 0,2.020417 -0.03152,0.555616 -0.05738,0.101021 -0.05738,-1.010205 z m -0.628011,-0.808167 c 0.05492,-0.08895 0.172633,-0.161636 0.261532,-0.161636 0.08894,0 0.116687,0.07271 0.06175,0.161636 -0.05491,0.08894 -0.172632,0.161631 -0.261532,0.161631 -0.08894,0 -0.116686,-0.07275 -0.06176,-0.161631 z M 176.37303,65.281447 c 0,-0.133355 0.0729,-0.242458 0.1616,-0.242458 0.0893,0 0.1616,0.109103 0.1616,0.242458 0,0.133345 -0.0731,0.242437 -0.1616,0.242437 -0.0893,0 -0.1616,-0.109092 -0.1616,-0.242437 z m 0.92062,-0.242458 c -0.085,-0.392869 -0.16307,-0.499842 -0.25656,-0.350121 -0.10533,0.169011 -0.15855,0.15221 -0.24684,-0.0777 -0.0623,-0.161325 -0.0399,-0.317744 0.0501,-0.347586 0.10787,-0.03595 0.10963,-0.194576 0.008,-0.469992 -0.0871,-0.228653 -0.12961,-0.444217 -0.0948,-0.479045 0.12955,-0.129523 0.77119,1.600111 0.71923,1.938552 -0.042,0.267717 -0.0834,0.216626 -0.17611,-0.214071 z m -1.16311,-0.323265 c -0.0554,-0.08894 -0.0232,-0.16163 0.0718,-0.16163 0.0942,0 0.17119,0.07276 0.17119,0.16163 0,0.08894 -0.0324,0.161629 -0.0719,0.161629 -0.0398,0 -0.11613,-0.07272 -0.17096,-0.161629 z M 37.853355,64.069198 c 0,-0.08893 -0.0545,-0.153024 -0.121223,-0.142497 -0.357384,0.05641 -0.525309,-0.05299 -0.525309,-0.342405 0,-0.177782 0.08165,-0.323279 0.181433,-0.323279 0.121471,0 0.111577,-0.08413 -0.02999,-0.254667 -0.186512,-0.224726 -0.245046,-0.191492 -0.497914,0.282853 -0.1576,0.295663 -0.289599,0.460857 -0.293328,0.367139 -0.0092,-0.233806 0.881337,-1.618818 1.146283,-1.782552 0.118182,-0.07295 0.05217,0.07401 -0.146659,0.326804 -0.380755,0.484055 -0.268545,0.898797 0.243169,0.898797 0.177555,0 0.212847,0.108877 0.135358,0.417631 -0.06733,0.268158 -0.04531,0.380847 0.06145,0.314872 0.09887,-0.06111 0.127244,-0.0017 0.07003,0.14809 -0.109207,0.284589 -0.223305,0.330171 -0.223306,0.08926 z m 1.281127,-1.68276 c 0.118263,-0.142504 0.130202,-0.264578 0.0318,-0.325384 -0.08661,-0.05346 -0.129954,-0.31455 -0.09634,-0.580075 0.07035,-0.555883 -0.02089,-0.588855 -0.57452,-0.207666 -0.27385,0.18853 -0.339953,0.201256 -0.210022,0.04033 0.104284,-0.129102 0.431591,-0.375574 0.727346,-0.547706 0.472267,-0.274859 0.509707,-0.278537 0.307468,-0.03037 -0.209436,0.25714 -0.194818,0.274494 0.161637,0.19173 0.296845,-0.06898 0.46435,0.0097 0.690646,0.324157 0.164311,0.228333 0.273409,0.4313 0.242446,0.451035 -0.03093,0.0197 -0.324196,0.232977 -0.651629,0.473856 -0.648291,0.476898 -0.927908,0.570228 -0.628853,0.209895 z M 173.9709,62.285843 c -0.20976,-0.17483 -0.30588,-0.317883 -0.21352,-0.317883 0.16321,0 0.67602,0.437923 0.67602,0.577273 0,0.110196 -0.058,0.07798 -0.4625,-0.25939 z m 1.54766,-0.594972 c -0.15229,-0.152392 -0.27695,-0.195557 -0.27695,-0.09596 0,0.101563 -0.14195,0.144004 -0.32328,0.09662 -0.1777,-0.04663 -0.32328,-0.153087 -0.32328,-0.23686 0,-0.08379 -0.0731,-0.107368 -0.16165,-0.05239 -0.0892,0.05487 -0.16161,0.03133 -0.16161,-0.05244 0,-0.08376 0.16369,-0.195341 0.36374,-0.247917 0.26656,-0.07014 0.49221,0.03264 0.84539,0.385229 0.26495,0.264464 0.4442,0.480827 0.39826,0.480827 -0.0461,0 -0.20795,-0.124678 -0.36062,-0.277082 z M 42.260927,61.047786 c 0.157281,-0.04103 0.375481,-0.03825 0.484911,0.0061 0.109428,0.0443 -0.01928,0.07778 -0.285941,0.07451 -0.26668,-0.0033 -0.356222,-0.03953 -0.19897,-0.0805 z m 16.07943,-0.0074 c 0.466718,-0.03251 1.23044,-0.03251 1.697155,0 0.466727,0.03251 0.08486,0.05941 -0.848566,0.05941 -0.933435,0 -1.315294,-0.02677 -0.848589,-0.05941 z m 8.243279,0.01208 c 0.11114,-0.04489 0.292977,-0.04489 0.404097,0 0.111121,0.04485 0.02019,0.08154 -0.202036,0.08154 -0.222248,0 -0.313176,-0.03667 -0.202061,-0.08154 z m 5.990548,-0.0034 c 0.116676,-0.04676 0.256101,-0.04096 0.309794,0.01267 0.05362,0.05364 -0.04171,0.09191 -0.212138,0.0849 -0.188296,-0.008 -0.226601,-0.04609 -0.09766,-0.09764 z m 3.629723,-0.0021 c 0.15725,-0.041 0.375473,-0.03826 0.484901,0.006 0.109432,0.04431 -0.01926,0.07778 -0.285929,0.07451 -0.266715,-0.0033 -0.356227,-0.03954 -0.198972,-0.08048 z m 13.170015,-0.0062 c 0.377835,-0.034 0.99607,-0.034 1.373897,0 0.377818,0.03401 0.06873,0.06182 -0.686953,0.06182 -0.755624,0 -1.064741,-0.02794 -0.686944,-0.06182 z m 8.728294,0.0022 c 0.288776,-0.03587 0.76155,-0.03587 1.050597,0 0.288957,0.03584 0.05295,0.06519 -0.525291,0.06519 -0.578,0 -0.814246,-0.0294 -0.525306,-0.06519 z m 3.879124,0.0031 c 0.19999,-0.03846 0.52722,-0.03846 0.72729,0 0.19995,0.03846 0.0364,0.07005 -0.3637,0.07005 -0.40001,0 -0.56367,-0.03153 -0.36359,-0.07005 z m 16.97583,-0.0049 c 0.38006,-0.0341 0.96199,-0.03361 1.29303,0.0017 0.331,0.03469 0.0204,0.06262 -0.6913,0.06208 -0.71115,-5.81e-4 -0.98202,-0.02902 -0.60173,-0.06314 z m 3.88488,0.0085 c 0.11674,-0.04677 0.25603,-0.04096 0.30985,0.01271 0.0538,0.05362 -0.0425,0.09191 -0.21226,0.0849 -0.18832,-0.008 -0.22656,-0.0461 -0.0976,-0.09765 z m 8.88162,-0.0043 c 0.20107,-0.03869 0.49211,-0.03716 0.64659,0.0032 0.15449,0.0404 -0.01,0.07207 -0.36554,0.07028 -0.35544,-0.0022 -0.48206,-0.03484 -0.28105,-0.07352 z m 15.36335,0.0043 c 0.11675,-0.04677 0.25611,-0.04096 0.3099,0.01271 0.0537,0.05362 -0.0424,0.09191 -0.21222,0.0849 -0.18827,-0.008 -0.22663,-0.0461 -0.0977,-0.09765 z m 0.88196,-0.0021 c 0.15732,-0.04102 0.3755,-0.03825 0.48498,0.006 0.10937,0.0443 -0.0193,0.07778 -0.28588,0.0745 -0.26676,-0.0033 -0.35633,-0.03951 -0.1991,-0.08048 z m 9.21003,-0.0061 c 0.33331,-0.03479 0.87896,-0.03479 1.21224,0 0.33349,0.03483 0.062,0.06344 -0.60613,0.06344 -0.66665,0 -0.93959,-0.02853 -0.60611,-0.06344 z m 17.07217,-0.312827 c -0.20117,-0.243844 -0.18799,-0.250853 0.14183,-0.07509 0.37598,0.200407 0.46878,0.344037 0.22183,0.344037 -0.0783,0 -0.24165,-0.121003 -0.36366,-0.268904 z m -54.92949,-0.199513 c 0.017,-0.322822 0.50028,-0.662847 0.94204,-0.662847 0.59914,0 0.64479,0.154515 0.14379,0.486429 -0.36353,0.24083 -1.09564,0.359772 -1.08583,0.176418 z m 6.04637,-0.415254 c -0.30714,-0.232479 -0.30646,-0.237415 0.0328,-0.242446 0.19036,-0.0031 0.38826,0.103952 0.4393,0.237309 0.11807,0.307593 -0.0697,0.309635 -0.47213,0.0054 z M 42.64651,59.987975 c 0.04124,-0.06668 0.175448,-0.121224 0.298298,-0.121224 0.122842,0 0.257082,0.05454 0.298289,0.121224 0.04124,0.06668 -0.09299,0.121224 -0.298289,0.121224 -0.205279,0 -0.339501,-0.05451 -0.298298,-0.121224 z m 49.430783,0.04691 c 0.05707,-0.09243 0.293563,-0.16811 0.525371,-0.16811 0.506646,0 0.448037,0.0774 -0.171244,0.226184 -0.30043,0.07215 -0.42228,0.05227 -0.354127,-0.05807 z M 40.894084,59.918142 c 0.116673,-0.04677 0.256071,-0.04099 0.309797,0.01269 0.05365,0.05363 -0.04174,0.09191 -0.212142,0.0849 -0.18829,-0.008 -0.226603,-0.04609 -0.09766,-0.09766 z m 130.872366,-0.0512 -0.48486,-0.123382 0.5656,-0.01659 c 0.31118,-0.0094 0.67492,0.05384 0.80814,0.140038 0.19966,0.128912 0.18525,0.153729 -0.0814,0.140036 -0.17772,-0.0094 -0.54139,-0.07213 -0.80809,-0.140036 z M 41.611333,59.755375 c 0.155562,-0.04073 0.41015,-0.04073 0.565709,0 0.155569,0.04072 0.02842,0.07389 -0.282855,0.07389 -0.311146,0 -0.438424,-0.03321 -0.282854,-0.07389 z m 33.05398,-0.171436 c 17.712975,-0.02271 46.697877,-0.02271 64.410797,0 17.71296,0.02271 3.22051,0.04124 -32.20539,0.04124 -35.425943,0 -49.918386,-0.01851 -32.205407,-0.04124 z"
       id="path14" /></g></svg>
