<?xml version="1.0" encoding="UTF-8" standalone="no"?>
<!-- Created with Inkscape (http://www.inkscape.org/) -->

<svg
   width="201.5648mm"
   height="197.76401mm"
   viewBox="0 0 201.5648 197.76401"
   version="1.1"
   id="svg1"
   xml:space="preserve"
   sodipodi:docname="dibujo.svg"
   inkscape:version="1.4.4 (dcaf3e7, 2026-05-05)"
   inkscape:export-filename="dibujo.svg"
   inkscape:export-xdpi="96"
   inkscape:export-ydpi="96"
   xmlns:inkscape="http://www.inkscape.org/namespaces/inkscape"
   xmlns:sodipodi="http://sodipodi.sourceforge.net/DTD/sodipodi-0.dtd"
   xmlns="http://www.w3.org/2000/svg"
   xmlns:svg="http://www.w3.org/2000/svg"><sodipodi:namedview
     id="namedview1"
     pagecolor="#505050"
     bordercolor="#eeeeee"
     borderopacity="1"
     inkscape:showpageshadow="0"
     inkscape:pageopacity="0"
     inkscape:pagecheckerboard="0"
     inkscape:deskcolor="#505050"
     inkscape:document-units="mm"
     inkscape:zoom="0.72604517"
     inkscape:cx="716.20888"
     inkscape:cy="339.51056"
     inkscape:window-width="1920"
     inkscape:window-height="1017"
     inkscape:window-x="-8"
     inkscape:window-y="-8"
     inkscape:window-maximized="1"
     inkscape:current-layer="layer1"><inkscape:page
       x="0"
       y="0"
       width="201.5648"
       height="197.76401"
       id="page2"
       margin="0"
       bleed="0" /></sodipodi:namedview><defs
     id="defs1" /><g
     inkscape:label="Capa 1"
     inkscape:groupmode="layer"
     id="layer1"
     transform="translate(-5.1053356,-4.8653584)"><path
       style="fill:#000000;stroke-width:0.744954"
       d="M 5.1053356,103.74735 V 4.8653584 H 105.88774 206.67016 V 103.74735 202.62936 H 105.88774 5.1053356 Z M 189.74084,196.30899 c 4.54587,-0.61485 8.10002,-4.0374 9.15826,-8.81929 0.21177,-0.95704 0.26215,-164.180951 0.0521,-165.907443 -0.35397,-2.89876 -1.42353,-5.065799 -3.37471,-6.838365 -1.09293,-0.992427 -3.06195,-2.011571 -4.65795,-2.410447 -0.96604,-0.241367 -7.4053,-0.261718 -85.03034,-0.268629 -78.529313,-0.0074 -84.053256,0.01 -85.030172,0.260504 -0.57465,0.147391 -1.705264,0.586164 -2.512498,0.975057 -2.966136,1.428915 -4.918636,4.074212 -5.530884,7.493343 -0.208117,1.162215 -0.210694,165.57675 -0.0034,166.63748 0.478713,2.43969 1.45158,4.3062 3.069939,5.88976 1.642174,1.60652 3.776595,2.65834 6.061991,2.98684 1.439635,0.2066 166.267344,0.20789 167.797334,0.002 z M 21.834118,195.36142 c -2.095738,-0.40377 -4.055394,-1.45003 -5.495112,-2.93421 -1.579941,-1.62882 -2.387261,-3.43007 -2.70798,-6.04164 -0.136601,-1.11192 -0.170641,-22.56448 -0.132136,-83.26893 0.04928,-77.671098 0.06625,-81.822329 0.336597,-82.796046 0.987232,-3.554373 3.450184,-6.000848 7.102487,-7.055001 0.915287,-0.264161 5.198513,-0.280579 84.065866,-0.322084 53.34831,-0.0281 83.56896,0.01141 84.40765,0.110266 3.97294,0.468067 6.88704,2.802358 8.28544,6.636006 l 0.37385,1.025095 0.0511,82.638204 c 0.0396,63.06706 0.007,82.89967 -0.14013,83.74197 -0.27443,1.59364 -0.78185,2.85295 -1.678,4.16326 -1.00389,1.46828 -2.08073,2.39484 -3.69685,3.18097 -2.44448,1.18971 5.66505,1.08945 -86.79819,1.07327 -46.352988,-0.01 -83.577272,-0.0772 -83.973213,-0.15113 z m 65.568807,-17.64964 c 0,-2.42869 0.05505,-4.41585 0.122713,-4.41585 0.06757,0 0.736554,1.38181 1.486816,3.07085 l 1.364109,3.07099 0.60278,0.006 c 0.331505,0.003 0.657002,0.0234 0.723316,0.045 0.143017,0.0472 0.243427,-0.1508 1.80828,-3.56194 0.66305,-1.44533 1.259789,-2.62788 1.326101,-2.62792 0.06642,-6e-5 0.120532,1.98717 0.120532,4.41572 v 4.41598 h 0.80372 0.803671 l -0.0067,-6.00012 -0.0067,-5.99992 -1.063949,0.0468 -1.063948,0.0468 -0.876754,1.8924 c -0.48223,1.04079 -1.187792,2.60008 -1.567929,3.46491 -0.380133,0.86472 -0.751819,1.58949 -0.825956,1.61053 -0.113926,0.0328 -1.75738,-3.56015 -2.866214,-6.2653 l -0.320311,-0.78137 h -1.085888 -1.086087 v 5.99287 5.99284 h 0.803633 0.803681 z m 14.520625,2.99635 0.43301,-1.41941 2.44886,2.8e-4 2.44864,5.5e-4 0.4018,1.37959 0.40174,1.37961 0.84417,0.0481 c 0.46384,0.0264 0.84368,-0.0137 0.84368,-0.089 0,-0.17635 -1.32371,-4.26757 -2.75512,-8.51514 l -1.12941,-3.35109 h -1.03135 c -0.56736,0 -1.03129,0.022 -1.03129,0.0462 0,0.0267 -0.90435,2.6902 -2.00938,5.92181 -1.10504,3.23177 -2.009176,5.90758 -2.009176,5.94671 0,0.0409 0.384916,0.0727 0.855386,0.0727 h 0.85536 z m 1.43257,-2.9403 c -0.19892,-0.0435 -0.36172,-0.14331 -0.36172,-0.22302 0,-0.0808 0.36901,-1.26357 0.81972,-2.63056 0.45075,-1.36695 0.85029,-2.58469 0.88786,-2.70548 0.0384,-0.12071 0.10756,-0.18101 0.15575,-0.1336 0.10661,0.10462 1.83832,5.52715 1.78276,5.58144 -0.0893,0.0874 -2.94946,0.18364 -3.28437,0.11122 z m 17.48014,3.57136 v -0.78874 h -2.97376 c -1.63539,0 -2.97341,-0.0355 -2.97341,-0.0799 0,-0.10444 2.59924,-4.07106 4.36452,-6.65983 1.31811,-1.93321 1.4219,-2.14303 1.4219,-2.87791 v -0.79273 h -3.85778 -3.85777 v 0.70964 0.70965 h 2.89354 c 1.59154,0 2.89332,0.0366 2.89332,0.0809 0,0.045 -0.9625,1.51641 -2.13851,3.2723 -3.96712,5.92262 -3.80883,5.65379 -3.80883,6.47412 v 0.74016 h 4.01825 4.01853 z m 11.05972,0.0413 -0.0499,-0.74929 -2.77245,-0.0442 -2.77255,-0.0447 v -1.80995 -1.8098 h 2.50158 2.50213 l -0.0645,-0.74917 -0.0643,-0.74901 -2.4381,-0.0446 -2.43795,-0.0449 v -1.88809 -1.88858 h 2.81292 2.81265 v -0.70964 -0.70963 h -3.61646 -3.61659 v 5.99285 5.99288 h 3.62562 3.62518 z m 30.73212,-35.99563 5.22398,-7.5e-4 V 91.052086 36.722212 l -61.52218,-1.2e-5 -61.52243,-1.1e-5 v 54.318912 54.318969 l 0.361703,0.0514 c 0.198889,0.0279 25.533137,0.0334 56.298247,0.0116 30.76515,-0.0227 58.28734,-0.0407 61.16068,-0.0413 z m -114.887632,-28.90101 0.04063,-26.060952 8.800386,-0.04156 8.800376,-0.04154 0.002,-0.353468 c 6.59e-4,-0.19436 0.01873,-7.876127 0.04021,-17.07042 l 0.03896,-16.716882 11.693644,-0.04047 11.693653,-0.04048 V 54.778285 53.438838 H 75.749459 62.649356 v 17.032409 17.032288 h -7.474291 -7.47433 V 63.61106 39.718483 l 12.175902,-0.01648 c 6.696716,-0.009 19.119716,-0.02697 27.606651,-0.03938 l 15.430752,-0.02297 0.0416,14.863831 0.0416,14.863848 H 91.422203 79.848256 v 17.268844 17.268834 h -8.599464 -8.599436 v 15.3767 15.37609 h 1.36538 1.365411 l 0.04101,-13.91749 0.04104,-13.91773 15.470971,-0.0422 15.470991,-0.042 v -1.41876 -1.41853 H 89.572835 82.741481 V 88.055462 72.205999 H 102.51226 122.283 v -1.419332 -1.419388 h -8.27892 -8.27885 l 0.0422,-14.863826 0.0423,-14.863845 h 29.57562 29.5757 V 54.464027 69.28844 l -7.35363,0.04103 -7.35371,0.04099 V 86.635812 103.9011 l -6.04151,0.0431 -6.04107,0.0428 -0.0268,1.37987 -0.0272,1.38003 7.51446,-8e-5 7.51456,-7e-5 V 89.475089 72.206155 h 5.9493 5.94957 l -0.0436,35.129265 -0.0437,35.12892 -25.99957,0.0418 -25.99995,0.0418 0.0426,-26.45562 0.0425,-26.45574 2.41102,-0.04384 2.41113,-0.04413 V 88.17054 86.794424 H 106.2095 94.55593 l -0.04655,1.379939 -0.04657,1.380069 h 7.88231 7.88218 v 26.494528 26.49452 H 96.323884 82.420105 v -8.12184 -8.12174 h 2.906723 c 1.598681,0 4.962089,-0.018 7.474174,-0.0413 l 4.567479,-0.0413 1.16e-4,-1.38002 8.8e-5,-1.38008 h -8.840586 -8.840557 v 9.54155 9.54109 H 63.693723 47.699836 Z m 107.178892,15.80874 c 2.70724,-0.50394 4.77967,-2.52382 5.30577,-5.17111 0.55013,-2.76837 -1.11074,-5.84987 -3.82514,-7.09806 -0.82313,-0.37847 -1.1102,-0.42461 -2.61246,-0.42099 -1.50053,0.005 -1.78653,0.0522 -2.57797,0.4295 -1.68642,0.8053 -2.85207,2.05693 -3.48853,3.7454 l -0.32719,0.8675 -8.85943,0.0425 -8.85914,0.0425 0.0426,-15.55728 0.043,-15.557461 0.68245,-0.197712 c 0.9082,-0.263158 2.13898,-1.053088 2.85918,-1.835136 0.80259,-0.871792 1.62836,-2.623456 1.75977,-3.733123 0.32648,-2.761311 -1.27177,-5.571029 -3.88753,-6.83381 -1.0322,-0.498412 -1.17573,-0.524728 -2.86135,-0.524728 -1.68576,0 -1.82882,0.02635 -2.86051,0.524728 -4.21051,2.034166 -5.2266,7.353091 -2.03654,10.662394 0.72903,0.756277 2.13336,1.615729 3.08953,1.890622 0.26565,0.07712 0.2812,1.024232 0.2812,17.038016 v 16.95735 l 10.38554,0.0426 10.38557,0.0425 0.31669,0.83287 c 0.63147,1.6611 2.59016,3.27741 4.54998,3.75464 1.02314,0.24906 1.44322,0.25988 2.49797,0.0646 z m -16.84556,-68.088768 0.043,-8.003606 7.20403,-0.04104 7.204,-0.04102 -0.0441,-1.338875 -0.0439,-1.338873 h -16.76499 -16.7651 v 1.340513 1.340507 h 8.19741 8.19777 v 8.042977 8.04303 h 1.36484 1.36479 z"
       id="path14" /></g></svg>
