<?xml version="1.0" encoding="UTF-8" standalone="no"?>
<!-- Created with Inkscape (http://www.inkscape.org/) -->

<svg
   width="202.2877mm"
   height="202.28773mm"
   viewBox="0 0 202.2877 202.28773"
   version="1.1"
   id="svg1"
   xml:space="preserve"
   sodipodi:docname="dibujo.svg"
   inkscape:version="1.4.4 (dcaf3e7, 2026-05-05)"
   inkscape:export-filename="skill-bar.svg"
   inkscape:export-xdpi="96"
   inkscape:export-ydpi="96"
   xmlns:inkscape="http://www.inkscape.org/namespaces/inkscape"
   xmlns:sodipodi="http://sodipodi.sourceforge.net/DTD/sodipodi-0.dtd"
   xmlns="http://www.w3.org/2000/svg"
   xmlns:svg="http://www.w3.org/2000/svg"><sodipodi:namedview
     id="namedview1"
     pagecolor="#505050"
     bordercolor="#eeeeee"
     borderopacity="1"
     inkscape:showpageshadow="0"
     inkscape:pageopacity="0"
     inkscape:pagecheckerboard="0"
     inkscape:deskcolor="#505050"
     inkscape:document-units="mm"
     inkscape:zoom="0.72604517"
     inkscape:cx="716.20888"
     inkscape:cy="339.51056"
     inkscape:window-width="1920"
     inkscape:window-height="1017"
     inkscape:window-x="-8"
     inkscape:window-y="-8"
     inkscape:window-maximized="1"
     inkscape:current-layer="layer1"><inkscape:page
       x="0"
       y="0"
       width="202.2877"
       height="202.28773"
       id="page2"
       margin="0"
       bleed="0" /></sodipodi:namedview><defs
     id="defs1" /><g
     inkscape:label="Capa 1"
     inkscape:groupmode="layer"
     id="layer1"
     transform="translate(-2.9758026,-4.6007791)"><path
       style="fill:#000000"
       d="M 2.9758027,105.74464 V 4.6007791 H 104.11966 205.26352 V 105.74464 206.8885 H 104.11966 2.9758027 Z M 189.9387,199.75378 c 0.48797,-0.15156 1.50425,-0.5784 2.25839,-0.94853 2.64534,-1.29835 4.84835,-4.03461 5.76537,-7.16092 0.26916,-0.91762 0.28607,-5.34353 0.3256,-85.22365 0.0409,-82.6527 0.0358,-84.284728 -0.26925,-85.777859 -0.85057,-4.163594 -3.48977,-7.167951 -7.59617,-8.647175 l -1.04854,-0.377709 -84.68984,-0.04432 c -77.287898,-0.04044 -84.792929,-0.02166 -85.869408,0.214882 -1.809828,0.39769 -3.88382,1.515144 -5.288399,2.849357 -1.965987,1.867495 -3.073886,4.007768 -3.44104,6.647502 -0.2331203,1.676076 -0.2388828,167.440022 -0.0059,169.052002 0.733472,5.07429 4.598106,8.87506 9.834233,9.67173 0.221806,0.0337 38.368528,0.0521 84.770494,0.0408 79.07509,-0.0193 84.42286,-0.0378 85.25444,-0.29611 z M 29.834579,199.13959 c -11.539855,-0.0937 -10.961273,-0.0471 -13.066432,-1.05401 -2.79031,-1.33465 -4.875747,-3.86479 -5.674276,-6.88429 -0.246266,-0.93121 -0.267841,-6.85155 -0.280561,-76.98767 -0.0076,-41.788382 0.02392,-79.935103 0.06999,-84.770489 0.08151,-8.55464 0.09347,-8.820411 0.443782,-9.860042 1.079158,-3.202672 4.066233,-5.956287 7.457491,-6.874638 0.994646,-0.26935 5.380838,-0.283944 85.335087,-0.283944 70.28579,0 84.43393,0.03624 85.17378,0.218149 0.48797,0.119982 1.50425,0.511165 2.25839,0.869295 2.7513,1.306546 5.09616,4.32097 5.65551,7.270406 0.0916,0.482776 0.15954,33.736513 0.1738,85.020863 0.0216,77.57437 0.003,84.31477 -0.24123,85.32673 -0.73909,3.06837 -3.07491,5.91664 -5.86353,7.1499 -2.08892,0.92382 3.45224,0.85863 -76.85056,0.90424 -40.669483,0.0231 -78.735543,0.003 -84.591241,-0.0445 z m 8.630297,-17.48423 v -2.00393 l 2.17551,-0.0528 2.17551,-0.0528 0.607156,-0.60762 0.607156,-0.60761 v -1.84059 c 0,-1.60751 -0.04231,-1.89827 -0.334095,-2.29604 -0.648027,-0.8834 -1.179393,-1.01951 -3.981053,-1.01979 l -2.540695,-2.5e-4 v 5.2427 5.24271 h 0.645255 0.645256 z m 0,-5.2552 v -2.09708 h 1.508411 c 1.643847,0 2.444215,0.19394 2.689158,0.65162 0.08685,0.16228 0.157909,0.84756 0.157909,1.52284 0,1.0885 -0.04492,1.27272 -0.395953,1.62375 -0.372597,0.37259 -0.501051,0.39595 -2.177739,0.39595 h -1.781786 z m 9.840153,5.15498 v -2.10415 l 1.169526,0.0474 1.169526,0.0474 1.013461,2.05675 1.01346,2.05676 h 0.721819 0.721819 l -1.068,-2.13131 c -0.595304,-1.18799 -0.991924,-2.15667 -0.896114,-2.18861 0.508378,-0.16945 1.270567,-0.83692 1.517941,-1.32929 0.424528,-0.84497 0.384103,-2.63069 -0.08041,-3.55184 -0.576612,-1.14346 -1.017415,-1.28381 -4.032849,-1.28411 l -2.540695,-2.5e-4 v 5.2427 5.24271 h 0.645256 0.645256 z m 0,-5.23564 v -2.01642 h 1.521981 c 1.602227,0 2.267353,0.15556 2.613577,0.61127 0.256352,0.33741 0.288302,2.18581 0.04562,2.63927 -0.287441,0.53709 -1.141348,0.78231 -2.724172,0.78231 h -1.457006 z m 15.165153,6.97683 c 1.19495,-0.81328 1.208215,-0.86653 1.208215,-4.85125 0,-3.43679 -0.01437,-3.60051 -0.3655,-4.16516 -0.569552,-0.91589 -1.15161,-1.10604 -3.385574,-1.10604 -1.735755,0 -1.98248,0.0365 -2.475987,0.36617 -1.05651,0.7058 -1.12972,1.04987 -1.078071,5.06679 0.04275,3.32465 0.06965,3.61005 0.380098,4.03285 0.605948,0.82523 1.235734,1.01907 3.311942,1.01935 1.675582,2.2e-4 1.927433,-0.0378 2.404877,-0.36271 z m -4.14493,-0.92868 c -0.627704,-0.25291 -0.696129,-0.64816 -0.696129,-4.02112 0,-3.0079 0.02253,-3.25942 0.318524,-3.55541 0.439265,-0.43926 0.921905,-0.5318 2.418999,-0.46382 1.078588,0.049 1.348121,0.1182 1.654841,0.425 0.355536,0.35563 0.366411,0.45841 0.366828,3.46721 4.66e-4,3.36242 -0.102589,3.88145 -0.825228,4.1562 -0.501715,0.19075 -2.758339,0.18513 -3.237835,-0.008 z m 14.889831,0.87838 c 0.97224,-0.72691 1.103682,-1.07222 1.166965,-3.06574 l 0.05855,-1.84436 h -1.711207 -1.711207 v 0.5569 0.5569 l 1.008213,0.048 1.008212,0.048 v 1.08445 c 0,0.91316 -0.05799,1.14247 -0.367177,1.45182 -0.319363,0.31954 -0.562798,0.37455 -1.869374,0.42239 -1.40998,0.0516 -1.531028,0.0302 -1.971875,-0.34866 l -0.469679,-0.40367 -0.04504,-3.11959 c -0.0415,-2.87399 -0.01988,-3.16017 0.274605,-3.63511 0.382013,-0.61609 0.946883,-0.75997 2.61387,-0.66578 0.96125,0.0543 1.196813,0.12564 1.450798,0.4393 0.166769,0.20595 0.303217,0.54789 0.303217,0.75987 0,0.34716 0.06951,0.38542 0.700339,0.38542 h 0.700339 l -0.110657,-0.72915 c -0.117469,-0.77403 -0.581653,-1.40117 -1.322339,-1.78655 -0.297659,-0.15487 -1.002595,-0.22664 -2.226078,-0.22664 -1.90019,0 -2.370937,0.13039 -3.002291,0.83157 -0.598933,0.66518 -0.70793,1.34434 -0.70793,4.41113 0,3.06547 0.108321,3.74122 0.70793,4.41638 0.618896,0.69686 1.161346,0.83049 3.192735,0.78649 1.612411,-0.0349 1.948415,-0.0888 2.329085,-0.37342 z m 6.030112,-1.68382 v -2.09709 h 1.128043 1.128044 l 1.050849,2.09709 1.05085,2.09708 h 0.715299 0.715299 l -1.052789,-2.11942 c -1.044682,-2.1031 -1.097834,-2.38558 -0.450627,-2.3949 0.305887,-0.004 1.040567,-0.89941 1.202884,-1.46538 0.28487,-0.99328 0.192944,-2.4337 -0.20482,-3.20941 -0.591226,-1.153 -1.036772,-1.2963 -4.030332,-1.2963 h -2.543212 v 5.2427 5.24271 h 0.645256 0.645256 z m 0,-5.25698 v -2.0307 l 1.788749,0.0546 c 1.729852,0.0528 1.801558,0.0695 2.177739,0.50721 0.306805,0.35699 0.388989,0.63594 0.388989,1.32034 0,1.79434 -0.511942,2.17925 -2.89847,2.17925 h -1.457007 z m 15.324827,6.79366 v -0.5604 l -2.460038,-0.0445 -2.460038,-0.0445 -0.04579,-1.73412 -0.04579,-1.73413 h 2.183196 2.183196 v -0.64525 -0.64526 h -2.183382 -2.183382 l 0.04597,-1.65347 0.04597,-1.65347 2.460038,-0.0445 2.460038,-0.0445 v -0.56039 -0.5604 h -3.064965 -3.064966 l -0.0365,3.75055 c -0.02007,2.0628 -0.03822,4.42161 -0.04033,5.2418 l -0.0038,1.49125 3.105294,9e-4 3.105294,9.1e-4 z m 8.934128,0.33668 c 0.29449,-0.12305 0.70956,-0.46786 0.92237,-0.76624 0.33702,-0.47254 0.38694,-0.72324 0.38694,-1.94343 0,-1.32238 -0.0259,-1.42797 -0.46257,-1.88372 -0.57948,-0.60485 -0.90637,-0.73089 -3.00568,-1.15887 -0.93159,-0.18992 -1.82083,-0.45869 -1.9761,-0.59726 -0.20715,-0.18489 -0.2823,-0.49982 -0.2823,-1.18313 0,-0.81382 0.0536,-0.9733 0.42504,-1.26551 0.35348,-0.27804 0.65347,-0.33433 1.78179,-0.33433 1.22541,0 1.39507,0.0383 1.7527,0.39595 0.21777,0.21777 0.39595,0.54443 0.39595,0.72591 0,0.27741 0.10276,0.32996 0.64526,0.32996 0.62065,0 0.64521,-0.02 0.64419,-0.52427 -0.001,-0.62376 -0.43353,-1.3308 -1.07027,-1.7506 -0.38727,-0.25532 -0.77128,-0.30403 -2.39692,-0.30403 -1.62563,0 -2.00965,0.0487 -2.396915,0.30403 -0.843489,0.55611 -1.069097,1.09056 -1.070271,2.53542 -0.0016,1.9748 0.457981,2.39582 3.144556,2.88071 0.79851,0.14412 1.64523,0.33732 1.8816,0.42934 0.56049,0.21818 0.84249,0.92609 0.73805,1.85272 -0.12602,1.118 -0.35856,1.26185 -2.14553,1.32726 -1.74912,0.064 -2.22974,-0.12311 -2.40868,-0.93781 -0.09814,-0.4468 -0.164405,-0.48941 -0.761174,-0.48941 h -0.653679 l 0.08867,0.66112 c 0.09885,0.73696 0.591553,1.36622 1.324983,1.69219 0.66861,0.29717 3.78969,0.29994 4.49799,0.004 z m 10.34454,-0.009 c 0.77201,-0.32256 1.14305,-1.01695 1.26931,-2.37548 0.0859,-0.92433 0.0514,-1.25559 -0.17898,-1.7183 -0.43075,-0.86512 -0.91277,-1.11696 -3.02775,-1.58189 -1.06467,-0.23404 -2.0628,-0.53617 -2.21806,-0.67139 -0.20786,-0.18103 -0.2823,-0.49141 -0.2823,-1.17704 0,-0.81382 0.0536,-0.9733 0.42504,-1.26551 0.3518,-0.27673 0.6538,-0.33433 1.7527,-0.33433 1.50052,0 2.17773,0.3297 2.17773,1.06025 0,0.34929 0.0697,0.39157 0.64526,0.39157 0.58728,0 0.64526,-0.0377 0.64526,-0.41923 0,-0.65682 -0.46851,-1.48068 -1.04443,-1.83662 -0.44574,-0.27548 -0.80297,-0.32517 -2.33783,-0.32517 -2.88101,0 -3.55304,0.51869 -3.55304,2.74234 0,2.03214 0.48604,2.51673 2.9831,2.97424 2.08289,0.38163 2.44089,0.5209 2.63546,1.02529 0.3726,0.96589 0.0813,2.21742 -0.57407,2.4666 -0.21372,0.0813 -1.00419,0.14774 -1.75659,0.14774 -1.23736,0 -1.40581,-0.0378 -1.76395,-0.39595 -0.21778,-0.21778 -0.39596,-0.54444 -0.39596,-0.72592 0,-0.27741 -0.10276,-0.32996 -0.64525,-0.32996 -0.61384,0 -0.64526,0.0243 -0.64526,0.49938 0,0.73708 0.47921,1.44112 1.20986,1.7775 0.83102,0.38258 3.82603,0.42859 4.67975,0.0719 z m 13.14544,-4.44584 v -4.6781 h 1.53248 1.53249 v -0.5646 -0.5646 h -3.62957 -3.62956 v 0.5646 0.5646 h 1.44022 1.44021 l 0.1033,0.84689 c 0.0568,0.4658 0.0802,2.57102 0.0519,4.67827 l -0.0514,3.83136 0.60492,-1.6e-4 0.60493,-1.5e-4 z m 6.9365,-0.5646 v -5.2427 h -0.64525 -0.64526 v 5.2427 5.24271 h 0.64526 0.64525 z m 4.83942,1.29051 c 0,-2.20358 0.0636,-3.95219 0.14367,-3.95219 0.079,0 0.70998,1.30665 1.40215,2.90365 l 1.25849,2.90366 0.57394,-2.9e-4 0.57394,-2.8e-4 1.32115,-2.85981 c 0.72664,-1.5729 1.37996,-2.87939 1.45183,-2.90331 0.0719,-0.0239 0.1192,1.73496 0.10517,3.90863 l -0.0255,3.95214 h 0.63042 0.63043 v -5.25114 -5.25113 l -0.84026,0.0488 -0.84025,0.0488 -1.45847,3.25846 c -0.80216,1.79216 -1.50782,3.20769 -1.56813,3.14562 -0.0603,-0.0621 -0.5051,-1.02023 -0.98842,-2.12926 -0.48332,-1.10904 -1.11625,-2.54272 -1.40652,-3.18595 l -0.52775,-1.16953 h -0.8632 -0.86321 v 5.2427 5.24271 h 0.64525 0.64526 z m 13.06643,-1.29051 v -5.2427 h -0.64525 -0.64526 v 5.2427 5.24271 h 0.64526 0.64525 z m 5.00073,1.20986 c 0,-2.21807 0.0545,-4.03181 0.12099,-4.03053 0.0665,0.001 0.32834,0.38239 0.58176,0.8469 0.25343,0.46452 1.26362,2.27825 2.24487,4.03053 l 1.78409,3.18595 h 0.69911 0.69912 v -5.24271 -5.2427 h -0.65315 -0.65314 l 0.0482,4.03299 c 0.0265,2.21815 0.0119,4.03186 -0.0325,4.03048 -0.0444,-0.001 -1.10237,-1.79809 -2.35115,-3.99267 l -2.27049,-3.99014 -0.75414,-0.0492 -0.75415,-0.0492 v 5.25154 5.25155 h 0.64526 0.64525 z m 15.47978,3.7746 c 1.07169,-0.4288 1.36473,-1.09284 1.4344,-3.25033 l 0.0586,-1.81478 h -1.68298 -1.68298 l 0.0121,0.56412 0.0121,0.56412 1.00821,4.8e-4 1.00821,4.7e-4 v 1.06095 c 0,0.95755 -0.046,1.10691 -0.47153,1.53249 -0.45225,0.45224 -0.53172,0.47153 -1.9431,0.47153 -1.34732,0 -1.505,-0.0334 -1.86752,-0.39595 -0.39446,-0.39446 -0.39596,-0.40833 -0.39596,-3.67981 0,-3.07581 0.0207,-3.30609 0.3271,-3.63494 0.4346,-0.46649 0.89212,-0.56332 2.32079,-0.49118 1.37029,0.0692 1.80068,0.33436 1.96508,1.21068 0.099,0.528 0.12206,0.54272 0.68873,0.44039 0.74277,-0.13413 0.72417,-0.11134 0.60516,-0.74113 -0.15396,-0.81473 -0.64469,-1.49606 -1.30231,-1.80812 -0.8994,-0.42679 -4.22604,-0.31858 -4.87565,0.1586 -0.96106,0.70597 -1.03268,1.07148 -0.98341,5.01822 0.0499,3.99435 0.0844,4.12477 1.25719,4.75377 0.74474,0.39941 3.54773,0.42455 4.50775,0.0404 z M 107.9912,156.55876 c 2.67825,-0.17898 5.2217,-0.48295 5.50474,-0.65788 0.15027,-0.0929 0.15001,-0.38214 -0.001,-1.29745 -0.10699,-0.64786 -0.22068,-1.20407 -0.25263,-1.23603 -0.032,-0.0319 -1.17205,0.051 -2.53355,0.18441 -3.8541,0.37757 -6.42861,0.45024 -9.4926,0.26795 -7.652729,-0.45528 -14.049756,-2.0423 -20.879128,-5.17983 -1.159462,-0.53268 -2.16401,-0.98331 -2.232329,-1.00141 -0.06832,-0.0181 -0.417112,0.49057 -0.775094,1.13037 l -0.650876,1.16327 1.267212,0.63715 c 8.916845,4.4833 19.879994,6.66877 30.045405,5.98945 z m 11.05,-1.71252 c 4.83353,-1.19871 10.43417,-3.48204 15.01837,-6.12286 7.37622,-4.24921 14.60687,-11.02173 19.14482,-17.9318 0.59615,-0.90779 1.08392,-1.67982 1.08392,-1.71562 0,-0.10193 -2.26291,-1.44349 -2.31755,-1.37396 -0.0268,0.0341 -0.49278,0.71677 -1.03554,1.51705 -3.55456,5.24112 -8.71578,10.51207 -14.06882,14.36792 -5.49091,3.95517 -12.28878,7.04929 -19.27702,8.77412 -0.79851,0.19709 -1.49523,0.40549 -1.54827,0.46311 -0.053,0.0576 0.009,0.6715 0.13743,1.36416 l 0.23387,1.25939 0.50783,-0.10073 c 0.2793,-0.0554 1.23374,-0.28075 2.12096,-0.50078 z m -44.072227,-7.37586 c 0.328964,-0.56236 0.598117,-1.09647 0.598117,-1.18693 0,-0.0904 -0.453696,-0.44148 -1.008213,-0.78006 -5.415346,-3.30652 -11.235416,-8.67388 -15.387365,-14.19049 -10.096414,-13.41488 -13.605207,-30.25509 -9.810541,-47.085027 0.217736,-0.965692 0.395883,-1.815723 0.395883,-1.888957 0,-0.134861 -1.948251,-0.791373 -2.348462,-0.791373 -0.263575,0 -0.41572,0.522867 -1.032672,3.548908 -1.642668,8.056996 -1.651144,16.649439 -0.02419,24.519719 1.897487,9.17895 6.248576,18.21521 12.340221,25.62792 1.885891,2.29487 6.835804,7.14309 9.051608,8.86565 2.018017,1.56879 6.164677,4.3831 6.458151,4.3831 0.09314,0 0.438497,-0.46011 0.76746,-1.02246 z M 110.73354,142.124 c 7.73247,-1.07093 15.21438,-4.28449 21.45475,-9.21504 1.92189,-1.51849 5.97896,-5.64364 7.43984,-7.56467 4.92814,-6.48044 7.75543,-13.20296 8.94579,-21.27071 0.34143,-2.31404 0.47164,-7.657558 0.24623,-10.104861 -0.42316,-4.594363 -1.3441,-8.507612 -3.0058,-12.772275 -2.33669,-5.997006 -6.19112,-11.843267 -10.50787,-15.937951 -10.54669,-10.004159 -24.73301,-14.242155 -39.091202,-11.678036 -9.682873,1.72919 -17.889829,6.060444 -24.57818,12.971233 -5.975975,6.174721 -9.802043,13.349888 -11.632037,21.813992 -0.887227,4.103608 -1.157603,10.028945 -0.654052,14.333668 0.894145,7.64382 3.709916,14.92073 8.188931,21.16301 3.152831,4.39401 8.050416,8.97462 12.785912,11.95838 1.845555,1.16286 5.823472,3.121 7.869339,3.87371 3.541853,1.30312 7.779172,2.27535 11.568994,2.65447 2.183935,0.21847 8.738275,0.0841 10.969355,-0.22492 z m -10.64673,-1.48373 C 94.041894,140.02065 88.21747,138.228 83.086213,135.40779 72.240656,129.44692 64.312787,118.8272 61.724724,106.79318 c -0.817436,-3.80093 -0.918024,-4.83751 -0.915735,-9.436868 0.002,-3.954079 0.03582,-4.465553 0.45114,-6.816908 2.348968,-13.298677 10.385073,-24.498521 22.050031,-30.730921 11.92152,-6.369476 26.67734,-6.928671 38.77683,-1.469508 4.88666,2.204809 8.77062,4.911664 12.68519,8.840703 10.17152,10.209132 14.56271,25.029864 11.68889,39.451232 -1.0338,5.18782 -3.34214,10.68256 -6.37058,15.16447 -2.25033,3.33035 -5.79124,7.17482 -8.87008,9.63051 -6.31829,5.03947 -14.40035,8.36698 -22.23809,9.15576 -1.53522,0.1545 -7.57198,0.19428 -8.89551,0.0586 z m 4.67811,-7.31094 v -2.90365 h -0.64526 -0.64525 v 2.90365 2.90365 h 0.64525 0.64526 z M 81.173529,120.9032 c -0.200054,-0.25362 -0.435278,-0.46516 -0.52272,-0.47006 -0.08744,-0.005 -1.04811,0.87806 -2.134818,1.96216 l -1.975835,1.97109 0.521679,0.54353 0.521679,0.54353 1.976875,-2.04455 1.976875,-2.04455 z m 48.560371,1.50267 c -1.0873,-1.08991 -2.0459,-1.98166 -2.13024,-1.98166 -0.21417,0 -0.90004,0.66502 -0.90004,0.87269 0,0.0942 0.88699,1.06032 1.97109,2.14703 l 1.97109,1.97583 0.5325,-0.51612 0.5325,-0.51612 z m -24.40438,-19.32716 c 1.5703,-0.25188 3.33572,-1.77272 3.94352,-3.397199 0.37618,-1.005425 0.44494,-2.795689 0.14574,-3.794334 l -0.18556,-0.61934 4.17808,-4.305402 c 2.29794,-2.367971 7.64431,-7.861637 11.88082,-12.208148 4.23651,-4.34651 7.70274,-7.978941 7.70274,-8.072069 0,-0.299496 -1.02055,-1.233223 -1.3479,-1.233223 -0.1742,0 -0.72378,0.381105 -1.2213,0.846899 -2.33448,2.185641 -12.709,11.992104 -14.28811,13.505759 -0.97595,0.935499 -2.46471,2.353594 -3.30836,3.151321 -0.84366,0.797727 -2.52456,2.40916 -3.73534,3.580962 l -2.20142,2.13055 -0.94277,-0.332961 c -2.55854,-0.903604 -5.63642,0.379941 -6.831648,2.848944 -0.574828,1.187436 -0.642291,3.206553 -0.150716,4.510821 0.464727,1.23303 1.643204,2.50433 2.771384,2.98966 0.87724,0.37738 2.08438,0.63032 2.62295,0.54961 0.17745,-0.0266 0.613,-0.0949 0.96789,-0.15185 z m -2.91025,-1.73845 c -1.83,-0.87529 -2.731819,-2.94301 -2.16833,-4.971619 0.18803,-0.676919 1.27775,-1.980447 1.94336,-2.324648 0.94759,-0.490016 2.00744,-0.605143 2.97677,-0.323352 2.89563,0.841782 3.90964,4.331126 1.93755,6.667379 -1.04855,1.24218 -3.17876,1.67475 -4.68935,0.95224 z M 71.050298,97.598283 v -0.725912 h -2.822994 -2.822995 v 0.725912 0.725913 h 2.822995 2.822994 z m 71.784722,0 v -0.725912 h -2.90366 -2.90365 v 0.61837 c 0,0.340103 0.0484,0.666764 0.10755,0.725913 0.0591,0.05915 1.36579,0.107542 2.90365,0.107542 h 2.79611 z M 81.162353,74.421609 c 0.205345,-0.192911 0.373354,-0.422698 0.373354,-0.510639 0,-0.08794 -0.884764,-1.054151 -1.966141,-2.147134 -1.893748,-1.914071 -1.977452,-1.977005 -2.273337,-1.709232 -0.718573,0.650299 -0.693071,0.70252 1.348899,2.762108 1.066405,1.075604 1.985032,1.955644 2.041394,1.955644 0.05636,0 0.270487,-0.157836 0.475831,-0.350747 z M 104.76492,62.028553 v -2.903652 h -0.64526 -0.64525 v 2.903652 2.903651 h 0.64525 0.64526 z m 52.67403,61.379967 c 3.20347,-6.56851 4.89362,-12.46829 5.81123,-20.28523 l 0.10888,-0.92756 h -1.38975 c -0.82609,0 -1.38976,0.0659 -1.38976,0.16257 0,0.0894 -0.14975,1.23272 -0.33279,2.54069 -0.89566,6.40036 -2.47887,11.58215 -5.33402,17.45804 -0.79677,1.63975 -1.39025,3.00166 -1.31885,3.02647 0.0714,0.0248 0.56537,0.32587 1.0977,0.66903 0.87921,0.56677 0.98814,0.59986 1.1889,0.36113 0.12156,-0.14454 0.82286,-1.49686 1.55846,-3.00514 z m 6.0436,-26.495821 c -6.9e-4,-2.485965 -0.31597,-6.513165 -0.71992,-9.195513 -2.33064,-15.476525 -10.38309,-29.165781 -22.66995,-38.53921 -9.31759,-7.108219 -20.10705,-11.126123 -31.75025,-11.823521 -1.37955,-0.08263 -2.56737,-0.113713 -2.63961,-0.06907 -0.0722,0.04464 -0.13133,2.531417 -0.13133,5.526163 v 5.444994 l 2.51288,0.197035 c 9.84056,0.771597 18.98047,4.371847 26.68495,10.511308 1.94891,1.553033 5.61822,5.165458 7.0444,6.935202 7.3376,9.105238 11.34197,20.137112 11.34484,31.254582 l 5.5e-4,2.13741 h 5.16205 5.16204 z m 4.89634,-14.89897 0.9435,-0.202033 -0.0996,-0.656347 c -0.23095,-1.522437 -0.47435,-2.350143 -0.69107,-2.350143 -0.59982,0 -2.30621,0.544214 -2.30621,0.735514 0,0.221934 0.44132,2.253886 0.56966,2.622873 0.0407,0.117021 0.2014,0.176631 0.3571,0.132467 0.1557,-0.04416 0.70767,-0.171213 1.22659,-0.282331 z M 50.877603,78.926191 c 0.623578,-2.096355 2.669415,-6.629469 4.228803,-9.370076 4.630217,-8.137555 12.073903,-15.718708 20.30033,-20.675229 l 1.76885,-1.065754 -0.602606,-1.196316 c -0.468065,-0.92922 -0.668569,-1.181948 -0.898055,-1.131965 -0.516766,0.112554 -4.253347,2.530956 -6.448462,4.173594 -5.242114,3.922756 -9.089456,7.762272 -12.716604,12.690736 -3.513542,4.774099 -5.882577,9.216711 -7.975658,14.95662 l -0.542205,1.486905 1.245385,0.400968 c 0.684963,0.220533 1.288339,0.404374 1.340838,0.408535 0.0525,0.0042 0.187221,-0.300946 0.299384,-0.678018 z m 115.099067,-5.616931 0.86718,-0.324455 -0.54316,-1.383534 c -0.29873,-0.760944 -0.57895,-1.419335 -0.6227,-1.463091 -0.11056,-0.110557 -2.3561,0.784501 -2.3561,0.939124 0,0.06903 0.23092,0.715455 0.51316,1.436496 0.57698,1.474053 0.45199,1.427629 2.14162,0.79546 z m -4.28756,-7.918699 c 1.3967,-0.784745 1.35841,-0.665885 0.6313,-1.959325 -0.95139,-1.692425 -0.80548,-1.630605 -2.06305,-0.874074 l -1.10843,0.666816 0.40232,0.65247 c 0.22127,0.358859 0.55762,0.960984 0.74745,1.338056 0.18983,0.377071 0.37628,0.685584 0.41435,0.685584 0.0381,0 0.47729,-0.229287 0.97606,-0.509527 z m -4.66297,-7.672822 c 0.54913,-0.439416 0.9009,-0.832021 0.83107,-0.927556 -0.0666,-0.09111 -0.50472,-0.656751 -0.97362,-1.256988 l -0.85254,-1.091339 -0.96157,0.768711 c -0.52887,0.422792 -0.95279,0.841303 -0.94206,0.930026 0.0269,0.222573 1.66347,2.317028 1.81997,2.329203 0.0696,0.0054 0.55507,-0.333009 1.07875,-0.752057 z m -5.89375,-6.762611 0.79627,-0.875844 -1.1189,-1.133674 -1.1189,-1.133675 -0.92355,1.018706 -0.92356,1.018707 1.08487,1.000747 c 0.59668,0.55041 1.15746,0.996275 1.24618,0.990811 0.0887,-0.0055 0.51964,-0.404065 0.95759,-0.885778 z M 81.89646,45.553857 c 5.927169,-2.546509 12.520866,-4.134625 18.51298,-4.458918 l 2.17774,-0.117859 0.0473,-1.35617 c 0.026,-0.745894 -0.0103,-1.405614 -0.0807,-1.466046 -0.1866,-0.160284 -3.785492,0.107649 -6.580473,0.489908 -4.169159,0.570201 -8.113179,1.570682 -12.179205,3.089503 -2.242773,0.837764 -4.933188,1.991241 -5.275168,2.261652 -0.145443,0.115006 -0.04609,0.451706 0.39833,1.349855 0.32566,0.658146 0.611494,1.19663 0.635188,1.19663 0.02369,0 1.078497,-0.44485 2.344008,-0.988555 z m 62.18874,-0.523135 c 0.37707,-0.559641 0.6844,-1.083629 0.68295,-1.164417 -0.004,-0.222917 -2.38638,-1.878697 -2.55403,-1.775082 -0.0805,0.04974 -0.43625,0.552832 -0.7906,1.117983 l -0.64427,1.027548 1.22953,0.903033 c 0.67623,0.496669 1.26582,0.904256 1.31018,0.905749 0.0444,0.0015 0.38917,-0.455173 0.76624,-1.014814 z"
       id="path14" /></g></svg>
