<?xml version="1.0" encoding="UTF-8" standalone="no"?>
<!-- Created with Inkscape (http://www.inkscape.org/) -->

<svg
   width="193.67339mm"
   height="193.6734mm"
   viewBox="0 0 193.67339 193.6734"
   version="1.1"
   id="svg1"
   xml:space="preserve"
   sodipodi:docname="dibujo.svg"
   inkscape:version="1.4.4 (dcaf3e7, 2026-05-05)"
   inkscape:export-filename="circle.svg"
   inkscape:export-xdpi="96"
   inkscape:export-ydpi="96"
   xmlns:inkscape="http://www.inkscape.org/namespaces/inkscape"
   xmlns:sodipodi="http://sodipodi.sourceforge.net/DTD/sodipodi-0.dtd"
   xmlns="http://www.w3.org/2000/svg"
   xmlns:svg="http://www.w3.org/2000/svg"><sodipodi:namedview
     id="namedview1"
     pagecolor="#505050"
     bordercolor="#eeeeee"
     borderopacity="1"
     inkscape:showpageshadow="0"
     inkscape:pageopacity="0"
     inkscape:pagecheckerboard="0"
     inkscape:deskcolor="#505050"
     inkscape:document-units="mm"
     inkscape:zoom="0.72604517"
     inkscape:cx="716.20888"
     inkscape:cy="339.51056"
     inkscape:window-width="1920"
     inkscape:window-height="1017"
     inkscape:window-x="-8"
     inkscape:window-y="-8"
     inkscape:window-maximized="1"
     inkscape:current-layer="layer1"><inkscape:page
       x="-4.9762597e-38"
       y="0"
       width="193.67339"
       height="193.6734"
       id="page2"
       margin="0"
       bleed="0" /></sodipodi:namedview><defs
     id="defs1" /><g
     inkscape:label="Capa 1"
     inkscape:groupmode="layer"
     id="layer1"
     transform="translate(-11.096318,-6.8664937)"><path
       style="fill:#000000;stroke-width:0.583727"
       d="M 11.096319,103.70319 V 6.8664935 h 96.836691 96.8367 v 96.8366965 96.8367 h -96.8367 -96.836691 z m 176.594071,90.27738 c 4.185,-0.47135 7.7046,-3.52147 8.92417,-7.73376 l 0.35571,-1.22859 v -80.62003 c 0,-76.475719 -0.014,-80.671629 -0.27186,-81.623913 -1.01077,-3.732523 -3.75135,-6.525298 -7.45579,-7.597759 l -1.23014,-0.356132 H 107.93301 27.853546 l -1.241915,0.355716 c -1.882088,0.53908 -3.346847,1.417702 -4.786119,2.870909 -1.356792,1.369927 -2.27029,2.959785 -2.804932,4.88171 -0.267738,0.96248 -0.279261,4.31986 -0.279261,81.392249 0,75.7203 0.01553,80.44871 0.267342,81.42776 0.977304,3.79977 3.458968,6.57845 6.937153,7.76742 1.259444,0.43052 1.388571,0.443 5.459957,0.52762 5.882954,0.12227 155.173869,0.0619 156.284619,-0.0632 z m -159.42583,-0.7113 c -4.053396,-0.52583 -7.335396,-3.39473 -8.467401,-7.40161 -0.27354,-0.96823 -0.283615,-3.85694 -0.283615,-81.31502 0,-67.86688 0.0331,-80.442762 0.213656,-81.160585 0.754455,-2.999485 2.813722,-5.569103 5.512555,-6.878737 2.251238,-1.092431 -5.185657,-1.006451 83.156595,-0.961395 l 79.77058,0.04069 1.21859,0.430897 c 1.46938,0.519575 2.21942,0.9456 3.3223,1.887048 1.44325,1.232007 2.39746,2.620793 3.07649,4.477612 l 0.39536,1.081112 0.0864,7.876669 c 0.0475,4.332159 0.0834,40.576429 0.0796,80.542799 l -0.007,72.66613 -0.3364,1.20475 c -1.14903,4.11499 -4.41916,6.98153 -8.58149,7.52237 -1.38436,0.17988 -157.768159,0.16737 -159.156484,-0.0127 z m 37.230348,-11.45577 0.04308,-2.04639 1.012807,-0.045 1.012814,-0.045 0.994969,2.0897 0.994968,2.08969 0.737575,0.002 0.73758,0.002 -0.211362,-0.42473 c -1.252673,-2.51724 -1.838525,-3.75825 -1.78795,-3.78742 0.03345,-0.0193 0.338824,-0.17408 0.6786,-0.34396 0.886968,-0.44349 1.1578,-1.07924 1.158091,-2.71856 2.05e-4,-1.12437 -0.05364,-1.4092 -0.350335,-1.85333 -0.620882,-0.92941 -1.111428,-1.06483 -3.858034,-1.0651 l -2.432503,-7.6e-4 v 5.09667 5.09667 h 0.613293 0.613298 z m -0.03415,-5.13529 v -1.77611 h 1.613054 c 1.470543,0 1.650337,0.032 2.035066,0.363 0.381098,0.32781 0.42253,0.46438 0.42734,1.40853 0.0047,0.95382 -0.03216,1.07777 -0.422011,1.41311 -0.391097,0.33641 -0.564149,0.36759 -2.040395,0.36759 h -1.613054 z m 9.034999,5.94612 0.411481,-1.23556 h 1.984136 1.984135 l 0.232826,0.81083 c 0.128052,0.44596 0.279517,1.00196 0.336588,1.23556 0.09498,0.38874 0.165569,0.42473 0.833271,0.42473 h 0.729501 l -0.757053,-2.35529 c -0.416384,-1.2954 -1.157613,-3.57152 -1.647173,-5.05805 l -0.890114,-2.70278 h -0.819518 -0.819512 l -1.600819,4.78778 c -0.880454,2.63328 -1.639941,4.9094 -1.687748,5.05805 -0.07402,0.23016 0.01593,0.27029 0.605798,0.27029 h 0.692726 z m 0.849971,-2.50973 c 2.92e-4,-0.0212 0.312213,-1.01161 0.693165,-2.20083 0.380952,-1.18922 0.693468,-2.2491 0.694478,-2.35528 0.0041,-0.41267 0.281012,-0.16409 0.430405,0.38611 0.215763,0.79467 1.072243,3.60646 1.199624,3.93833 0.09459,0.24643 -0.03403,0.27029 -1.457229,0.27029 -0.858528,0 -1.560729,-0.0174 -1.560443,-0.0386 z m 9.111701,1.7375 v -2.00777 h 1.782265 c 1.449068,0 1.889385,-0.055 2.355275,-0.2942 0.920731,-0.4727 1.113571,-0.96544 1.113571,-2.84529 0,-1.54016 -0.02172,-1.65038 -0.417511,-2.12078 -0.676493,-0.80397 -1.14982,-0.91751 -3.82475,-0.91751 h -2.39885 v 5.09667 5.09667 h 0.694997 0.695003 z m 0,-5.11033 v -1.867 l 1.712831,0.0523 c 2.133073,0.0651 2.302728,0.19951 2.302728,1.82444 0,0.92093 -0.04763,1.09057 -0.407173,1.45011 -0.387548,0.38755 -0.484313,0.40717 -2.007782,0.40717 h -1.600604 z m 9.112227,2.02145 v -5.09667 H 92.95188 92.334098 v 5.09667 5.09667 h 0.617782 0.617776 z m 9.112224,4.70702 c 0.32013,-0.18502 0.68226,-0.592 0.88806,-0.998 0.325,-0.6412 0.3475,-0.8803 0.3475,-3.69299 0,-2.73768 -0.029,-3.06737 -0.32373,-3.67613 -0.21585,-0.44589 -0.54202,-0.79665 -0.97884,-1.05265 -0.62687,-0.36736 -0.76613,-0.38392 -3.228501,-0.38392 H 96.81299 v 5.10942 5.10943 l 2.664166,-0.0514 c 2.335584,-0.045 2.730844,-0.0899 3.204724,-0.36379 z m -4.488206,-0.88453 c -0.0053,-0.0212 -0.03888,-1.75873 -0.07501,-3.86111 l -0.0657,-3.8225 h 1.785785 c 1.767831,0 1.790321,0.005 2.237241,0.45146 l 0.45145,0.45145 v 2.95821 2.9582 l -0.45145,0.45145 c -0.44464,0.44463 -0.4773,0.45146 -2.162226,0.45146 -0.940922,0 -1.714961,-0.0174 -1.720087,-0.0387 z m 18.878396,0.66043 -0.0585,-0.61374 -2.26222,-0.0427 -2.26222,-0.0427 0.0282,-4.44028 0.0282,-4.44028 h -0.68459 -0.68457 v 5.09667 5.09667 h 2.97713 2.97714 z m 3.9887,-4.48292 v -5.09667 h -0.69656 -0.69657 l 0.007,5.09667 0.008,5.09667 h 0.68909 0.68908 z m 4.82379,1.11971 0.0412,-3.97694 1.02951,1.69889 c 0.56623,0.93439 1.64349,2.72097 2.39389,3.97018 l 1.36438,2.27129 0.73361,0.007 0.73361,0.007 v -5.09667 -5.09667 l -0.65638,-1.1e-4 -0.65639,-1.1e-4 0.0437,3.93845 c 0.0241,2.16614 -0.0107,3.93387 -0.0772,3.92829 -0.0665,-0.006 -1.16763,-1.76045 -2.44694,-3.89972 l -2.32602,-3.88957 -0.72426,-0.0471 -0.72426,-0.047 -0.009,0.89652 c -0.005,0.49308 -0.0221,2.79035 -0.0386,5.10503 l -0.0299,4.20852 0.65378,9e-5 0.65378,1e-4 z m 15.87178,3.35917 v -0.61777 h -2.47633 -2.47634 l 0.0438,-1.66028 0.0438,-1.66028 2.04639,-0.0431 2.04639,-0.0431 v -0.61254 -0.61255 l -2.04639,0.037 -2.04639,0.037 -0.044,-1.58222 -0.044,-1.58221 h 2.47651 2.47652 v -0.61777 -0.61778 h -3.14471 -3.14471 l 0.002,5.09667 0.002,5.09667 h 3.14274 3.14275 z m -6.01114,-3.64231 c 0.007,-0.17992 0.044,-0.21651 0.0933,-0.0933 0.0446,0.11149 0.0391,0.2447 -0.0122,0.29602 -0.0513,0.0513 -0.0878,-0.0399 -0.0811,-0.20271 z m 3.50142,-0.63668 c 0.19112,-0.0368 0.50388,-0.0368 0.695,0 0.19112,0.0368 0.0347,0.0669 -0.3475,0.0669 -0.38225,0 -0.53863,-0.0301 -0.3475,-0.0669 z m -0.23167,-4.93969 c 0.14866,-0.0389 0.39191,-0.0389 0.54056,0 0.14865,0.0389 0.027,0.0706 -0.27028,0.0706 -0.2973,0 -0.41893,-0.0318 -0.27028,-0.0706 z m 10.83173,9.62227 c 0.82507,-0.34474 1.21399,-1.03979 1.29589,-2.31587 0.13665,-2.12937 -0.63009,-2.90882 -3.20845,-3.26161 -1.88598,-0.25805 -2.31666,-0.58914 -2.31666,-1.78095 0,-1.11307 0.22164,-1.29273 1.72495,-1.39824 1.51047,-0.10601 1.96441,0.0413 2.2906,0.74335 0.20016,0.43079 0.31043,0.49905 0.81083,0.50194 0.52155,0.003 0.57917,-0.0366 0.57917,-0.39803 0,-0.56635 -0.4002,-1.32074 -0.89316,-1.68362 -0.35108,-0.25844 -0.71415,-0.31727 -2.2229,-0.36018 -2.04889,-0.0583 -2.6611,0.12183 -3.25782,0.95838 -0.49144,0.68897 -0.49452,2.74159 -0.005,3.42887 0.45996,0.64594 0.8079,0.79619 2.78762,1.20371 2.11806,0.436 2.35584,0.61067 2.35584,1.73052 0,1.04231 -0.0914,1.26094 -0.64725,1.54839 -0.48867,0.25269 -2.2103,0.26915 -2.89239,0.0277 -0.44071,-0.15605 -0.77302,-0.55272 -0.77989,-0.93095 -0.004,-0.21538 -0.14186,-0.27028 -0.67918,-0.27028 h -0.67426 l 0.11446,0.62596 c 0.12918,0.70645 0.62553,1.32235 1.31128,1.62714 0.64015,0.28451 3.62832,0.28717 4.30645,0.004 z m -1.79492,-0.66726 c 0.19211,-0.037 0.47011,-0.0356 0.61777,0.003 0.14767,0.0386 -0.01,0.0689 -0.3493,0.0672 -0.33978,-0.002 -0.46059,-0.0333 -0.26847,-0.0703 z m -22.5854,-39.35134 c 6.20253,-6.28589 12.59269,-12.76986 14.20035,-14.40881 l 2.92302,-2.97993 -1.22893,-1.22892 -1.22893,-1.22894 -9.73968,9.76886 c -5.35683,5.37287 -12.59042,12.67143 -16.07465,16.21902 l -6.33497,6.45017 -9.789483,-9.92517 C 71.870942,119.60638 61.353404,108.9284 56.518946,103.98348 l -2.066382,-2.1136 0.909382,-0.99669 c 0.500161,-0.54818 4.534154,-4.70531 8.964427,-9.23807 4.430268,-4.53276 9.95322,-10.18738 12.273227,-12.56583 3.786434,-3.88181 19.200305,-19.63644 27.24063,-27.84285 l 3.0889,-3.15269 2.71375,2.7561 c 2.96263,3.00885 16.1224,16.46675 18.59321,19.01443 l 1.53824,1.5861 1.28419,-1.27721 c 0.70631,-0.70247 1.26513,-1.36037 1.24185,-1.462 -0.0851,-0.37119 -25.09525,-25.68467 -25.37693,-25.68467 -0.0942,0 -0.75687,0.60813 -1.4727,1.35139 -1.54253,1.60166 -17.219798,17.71756 -21.221534,21.81529 -4.195802,4.29646 -16.384131,16.76302 -20.158161,20.61834 -11.175953,11.41665 -14.44646,14.80222 -14.492061,15.0019 -0.02954,0.12923 3.903816,4.23199 9.277673,9.67733 5.130898,5.19915 11.547951,11.71246 14.260123,14.47402 2.712171,2.76155 8.6517,8.80805 13.198947,13.43667 4.547241,4.62861 11.211911,11.41908 14.810373,15.08995 3.59846,3.67086 6.61948,6.7045 6.71339,6.74142 0.18717,0.0736 1.12323,-0.86029 17.62687,-17.58572 z M 112.69827,131.1599 c 5.22382,-5.01626 16.70252,-16.2568 16.70252,-16.35597 0,-0.0643 -0.0656,-0.15749 -0.14576,-0.20704 -0.20614,-0.12741 -11.25411,9.23866 -16.80452,14.24626 -2.22407,2.00658 -2.66416,2.47398 -2.66416,2.82952 0,0.44413 0.6072,1.06609 1.04081,1.06609 0.1248,0 0.96681,-0.71049 1.87111,-1.57886 z m -12.47994,-1.46163 c 7.02116,-6.59 14.33254,-13.66185 19.47152,-18.83357 3.28083,-3.30175 8.06181,-8.08186 10.62438,-10.62246 2.84829,-2.82387 4.6038,-4.67471 4.51663,-4.76189 -0.0872,-0.0872 -2.08562,1.46857 -5.14162,4.00266 -4.2115,3.49225 -6.58732,5.435 -10.92153,8.93074 -0.31596,0.25483 -1.60654,1.33208 -2.86798,2.39388 -1.26143,1.06181 -2.54485,2.09669 -2.85206,2.29974 -0.3072,0.20305 -0.87415,0.65481 -1.25988,1.00389 -0.38574,0.34909 -1.87999,1.61996 -3.32056,2.82415 -1.44057,1.20419 -4.66995,3.91469 -7.17641,6.02333 -2.506458,2.10865 -4.921583,4.13575 -5.366949,4.50467 -1.162341,0.96285 -1.125707,1.24135 0.369073,2.80593 0.897019,0.93889 1.277265,1.23386 1.590598,1.23386 0.312878,0 0.873624,-0.43348 2.334788,-1.80493 z m -8.077082,-9.1111 c 6.056462,-5.61729 10.455752,-9.8174 13.552322,-12.93872 1.86878,-1.88371 4.96153,-4.95176 6.87278,-6.81787 11.91066,-11.62937 17.64414,-17.38393 17.48186,-17.5462 -0.19668,-0.19669 -0.10484,-0.26767 -5.1358,3.96991 -3.741,3.15106 -7.03016,5.85983 -9.87495,8.13247 -2.4703,1.97347 -4.0475,3.28575 -6.6025,5.4935 -1.21046,1.04595 -2.20084,1.84489 -2.20084,1.77544 0,-0.0695 0.0822,-0.20853 0.18276,-0.30905 0.10052,-0.10051 0.15221,-0.21331 0.11487,-0.25065 -0.0374,-0.0374 -1.35321,1.04224 -2.92414,2.39906 -1.57095,1.35683 -4.315768,3.69458 -6.099597,5.19501 -3.147107,2.6471 -6.443531,5.47795 -9.536953,8.18997 -1.007991,0.88371 -1.504854,1.42636 -1.50287,1.64139 0.0047,0.4937 2.557625,3.17843 3.022563,3.17843 0.264703,0 1.03238,-0.61191 2.650495,-2.11269 z m 58.570422,-5.06946 -1.46797,-1.46798 -2.00353,2.00799 -2.00353,2.00798 1.46269,1.4688 1.46269,1.4688 2.00881,-2.00881 2.00881,-2.00881 z m -61.124444,-8.45535 c 7.035214,-6.3364 13.753614,-12.62931 15.566054,-14.58023 0.3824,-0.41161 3.56286,-3.52026 7.06769,-6.90811 5.06323,-4.89423 6.33677,-6.20269 6.19886,-6.36885 -0.099,-0.11925 -0.26346,-0.15881 -0.38274,-0.0921 -0.42447,0.23754 -10.93168,8.57276 -12.87416,10.21289 -0.48668,0.41092 -0.79587,0.59217 -0.73565,0.43124 0.13043,-0.34853 0.0363,-0.28487 -1.83837,1.2436 -0.75583,0.61624 -3.04223,2.45281 -5.080897,4.08127 -6.557037,5.23769 -9.967708,8.00584 -13.205007,10.71739 -4.839781,4.05379 -5.633521,4.76544 -5.681731,5.09409 -0.05756,0.39235 2.493104,3.15738 2.912576,3.15738 0.170396,0 3.556329,-2.93827 8.053375,-6.98861 z m 44.595444,4.40166 1.27318,-1.19694 -0.37127,-0.34558 -0.37128,-0.34559 -1.30486,1.21447 c -1.30305,1.21279 -1.30445,1.21493 -1.01065,1.54253 0.16182,0.18043 0.34315,0.32806 0.40296,0.32806 0.0598,0 0.68167,-0.53862 1.38192,-1.19695 z m 27.63162,-5.04748 4.52075,-4.62276 -3.33346,-3.32812 -3.33347,-3.32812 -1.31402,1.31402 -1.31402,1.31402 2.09354,2.07303 2.09354,2.07302 -1.74324,1.78384 c -0.95878,0.98111 -2.43661,2.49604 -3.28407,3.36652 l -1.54085,1.5827 1.22958,1.23682 c 0.67626,0.68026 1.26904,1.21904 1.31727,1.19731 0.0482,-0.0217 2.12204,-2.11976 4.60845,-4.66228 z m -18.82237,-0.7828 v -1.77611 h -0.43382 c -0.31876,0 -0.70838,0.25601 -1.46905,0.96528 -1.02429,0.95508 -1.03521,0.97385 -1.0334,1.77612 l 0.002,0.81083 h 1.46722 1.46722 z M 78.975311,99.8998 c 4.485569,-3.97345 11.089433,-10.08649 16.913694,-15.65662 3.447387,-3.29696 8.211855,-7.75665 11.700905,-10.9524 1.46565,-1.34245 1.72222,-1.69114 1.33734,-1.81749 -0.0796,-0.0261 -0.94486,0.59501 -1.92272,1.38034 -0.97786,0.78534 -3.79219,3.02638 -6.25407,4.98011 -7.708602,6.11748 -16.133123,12.89584 -18.294378,14.71965 -0.548616,0.46296 -2.44249,2.20097 -4.208615,3.86225 -2.997147,2.81923 -3.21113,3.0567 -3.21113,3.56362 0,0.77187 0.777227,1.5617 1.536767,1.5617 0.479007,0 0.787209,-0.21056 2.402207,-1.64116 z m 64.086689,-7.80849 0.9338,-0.87799 -0.33398,-0.33976 -0.33398,-0.33976 -2.01656,1.83061 -2.01656,1.83061 0.32699,0.34807 0.327,0.34807 1.08974,-0.96093 c 0.59935,-0.52851 1.50996,-1.35603 2.02355,-1.83892 z m 10.08746,-0.78499 1.58036,-1.58575 -1.62173,-1.61621 -1.62173,-1.61621 -1.62173,1.61621 -1.62173,1.61621 1.58036,1.58575 c 0.8692,0.87217 1.61759,1.58575 1.6631,1.58575 0.0455,0 0.7939,-0.71358 1.6631,-1.58575 z m -20.31442,-4.70515 1.96701,-1.91948 -0.26813,-0.36884 c -0.14746,-0.20287 -0.30702,-0.37103 -0.35456,-0.3737 -0.11864,-0.007 -5.2419,4.78284 -5.2419,4.90042 0,0.0519 0.14967,0.25357 0.33258,0.44828 l 0.33259,0.35402 0.6327,-0.56061 c 0.34798,-0.30834 1.51785,-1.42438 2.59971,-2.48009 z m 8.76684,-5.53148 1.60515,-1.62904 -1.61731,-1.61731 -1.61731,-1.61731 -1.67757,1.63938 -1.67756,1.63939 1.6015,1.60697 c 0.88083,0.88383 1.64121,1.60697 1.68973,1.60697 0.0485,0 0.81054,-0.73307 1.69337,-1.62905 z m 23.44135,-0.49456 -0.043,-2.12361 h -2.04567 -2.04568 l -5.8e-4,2.12361 -5.8e-4,2.12361 h 2.08936 2.08935 z m -41.97466,-4.65466 1.15833,-1.07444 -0.33435,-0.34205 -0.33436,-0.34205 -1.5595,1.36057 -1.55951,1.36057 0.33285,0.35432 c 0.33173,0.3531 0.33424,0.35329 0.73554,0.0559 0.22147,-0.16412 0.92392,-0.78189 1.561,-1.37283 z M 148.852,74.02819 c 2.84981,-2.73729 3.09499,-2.98669 3.09635,-3.14973 5.9e-4,-0.0879 -0.37107,-0.52751 -0.82625,-0.97703 l -0.82759,-0.81732 -1.17866,1.09287 c -0.64826,0.60108 -1.26622,1.09612 -1.37324,1.1001 -0.10702,0.004 -0.74062,0.52177 -1.408,1.15065 l -1.21341,1.14343 0.90452,1.01148 c 0.49749,0.55631 0.97007,1.01152 1.05017,1.01157 0.0801,4e-5 0.87935,-0.70466 1.77611,-1.56602 z m 25.3377,-5.43827 v -2.22991 l -2.085,0.004 -2.085,0.004 v 2.20373 2.20373 l 2.085,0.0223 2.085,0.0223 z m -32.27889,-6.35508 v -2.085 h -2.08501 -2.08499 v 2.085 2.085 h 2.08499 2.08501 z m 14.58047,-5.63722 0.0145,-2.085 -2.12361,-0.043 -2.12361,-0.043 v 2.17094 2.17094 l 2.10909,-0.043 2.10908,-0.043 z"
       id="path14" /></g></svg>
