<?xml version="1.0" encoding="UTF-8" standalone="no"?>
<!-- Created with Inkscape (http://www.inkscape.org/) -->

<svg
   width="165.98779mm"
   height="165.98779mm"
   viewBox="0 0 165.98779 165.98779"
   version="1.1"
   id="svg1"
   xml:space="preserve"
   sodipodi:docname="dibujo.svg"
   inkscape:version="1.4.4 (dcaf3e7, 2026-05-05)"
   inkscape:export-filename="progress-timing.svg"
   inkscape:export-xdpi="96"
   inkscape:export-ydpi="96"
   xmlns:inkscape="http://www.inkscape.org/namespaces/inkscape"
   xmlns:sodipodi="http://sodipodi.sourceforge.net/DTD/sodipodi-0.dtd"
   xmlns="http://www.w3.org/2000/svg"
   xmlns:svg="http://www.w3.org/2000/svg"><sodipodi:namedview
     id="namedview1"
     pagecolor="#505050"
     bordercolor="#eeeeee"
     borderopacity="1"
     inkscape:showpageshadow="0"
     inkscape:pageopacity="0"
     inkscape:pagecheckerboard="0"
     inkscape:deskcolor="#505050"
     inkscape:document-units="mm"
     inkscape:zoom="0.72604517"
     inkscape:cx="716.20888"
     inkscape:cy="339.51056"
     inkscape:window-width="1920"
     inkscape:window-height="1017"
     inkscape:window-x="-8"
     inkscape:window-y="-8"
     inkscape:window-maximized="1"
     inkscape:current-layer="layer1"><inkscape:page
       x="0"
       y="0"
       width="165.98779"
       height="165.98779"
       id="page2"
       margin="0"
       bleed="0" /></sodipodi:namedview><defs
     id="defs1" /><g
     inkscape:label="Capa 1"
     inkscape:groupmode="layer"
     id="layer1"
     transform="translate(-20.467826,-13.131415)"><path
       style="fill:#000000"
       d="M 20.467828,96.125311 V 13.131414 h 82.993892 82.9939 V 96.125311 179.11921 H 103.46172 20.467828 Z M 173.95798,172.68468 c 2.7454,-0.94967 4.75338,-2.8316 5.77332,-5.41092 0.67243,-1.70049 0.63566,2.44209 0.63258,-71.259368 -0.003,-67.095383 -0.009,-68.679522 -0.25582,-69.797379 -0.73659,-3.33071 -3.21642,-5.877317 -6.55456,-6.73107 -0.94798,-0.242452 -2.87258,-0.249838 -70.18022,-0.269346 -62.819529,-0.01821 -69.278788,-6.75e-4 -69.999703,0.189997 -0.43681,0.115531 -1.34835,0.4868 -2.025644,0.825044 -2.406088,1.201612 -4.048719,3.347634 -4.664051,6.09337 -0.09328,0.416229 -0.143697,22.676804 -0.158059,69.786535 l -0.02109,69.175347 0.29775,1.05297 c 0.766712,2.71141 2.726596,4.97539 5.164724,5.96609 1.86155,0.75642 -3.493193,0.70573 71.891613,0.68048 l 69.29395,-0.0232 z M 33.816217,172.10822 c -1.531989,-0.32313 -2.842327,-1.0268 -4.055887,-2.17808 -1.061092,-1.00663 -1.685965,-2.00167 -2.167788,-3.45195 l -0.307831,-0.92657 V 96.059128 26.566631 l 0.354638,-0.970857 c 0.486991,-1.333184 1.086439,-2.280514 2.052231,-3.243222 0.971008,-0.967905 1.916619,-1.565984 3.240607,-2.049616 l 0.970857,-0.354638 h 69.492496 69.49249 l 0.81726,0.280822 c 2.68399,0.922257 4.66202,2.88014 5.51393,5.457759 l 0.36335,1.099391 -0.004,69.171608 c -0.004,63.637942 -0.0213,69.241442 -0.22091,70.044512 -0.8243,3.317 -3.54292,5.73644 -6.9991,6.22886 -0.60694,0.0865 -24.46495,0.1297 -69.16158,0.12532 -65.542529,-0.006 -68.280223,-0.0162 -69.380773,-0.24835 z m 22.758254,-13.07566 0.0367,-1.88622 h 0.97842 0.97843 l 0.89254,1.84641 c 0.95165,1.96871 0.98691,2.00339 1.91324,1.88209 l 0.33562,-0.0439 -0.81625,-1.61063 c -1.0932,-2.15713 -1.07865,-2.08514 -0.48617,-2.40484 0.26984,-0.1456 0.62648,-0.46712 0.79254,-0.7145 0.26521,-0.39507 0.30193,-0.614 0.30193,-1.80046 0,-1.51685 -0.18335,-1.96184 -1.04857,-2.54491 -0.42312,-0.28514 -0.57096,-0.30098 -2.80964,-0.30098 h -2.36303 v 4.67696 c 0,2.57232 0.0425,4.71947 0.0945,4.77143 0.052,0.052 0.3349,0.0768 0.62874,0.0551 l 0.53427,-0.0393 z m 0.0866,-3.06649 c -0.0314,-0.0303 -0.0571,-0.79478 -0.0571,-1.69876 v -1.64361 l 1.59624,0.0442 c 1.52203,0.0421 1.60804,0.0596 1.85019,0.37509 0.19399,0.2528 0.25464,0.55052 0.25689,1.26113 0.003,1.08044 -0.17503,1.42573 -0.85238,1.64927 -0.41313,0.13635 -2.65518,0.14654 -2.79381,0.0127 z m 9.17874,2.86502 0.0364,-2.05557 1.39797,-0.0162 c 0.76889,-0.009 1.69067,0.0226 2.04839,0.0701 l 0.65041,0.0863 v 2.04189 2.04188 l 0.62875,-0.0403 0.62874,-0.0403 0.0348,-4.73211 0.0348,-4.73211 h -0.66351 -0.6635 v 2.05169 2.05168 h -2.05169 -2.05168 v -2.05168 -2.05169 h -0.66183 -0.66184 l -10e-5,4.73211 -1e-4,4.73211 0.62884,-0.0161 0.62885,-0.0161 z m 12.20753,0.28046 v -1.87343 l 1.40728,-2.66013 c 0.774,-1.46307 1.4611,-2.76437 1.52687,-2.89177 0.10692,-0.20711 0.042,-0.23165 -0.61231,-0.23165 h -0.73192 l -1.1046,2.20616 -1.10461,2.20616 -1.07496,-2.20616 -1.07496,-2.20616 h -0.73702 -0.73702 l 1.45979,2.88116 1.45979,2.88115 v 1.88405 1.88404 h 0.66183 0.66183 z m 10.07999,-6.43722 1.27762,-0.0377 0.047,-0.59101 0.047,-0.59102 h -3.27703 -3.27703 v 0.59086 0.59086 l 1.29058,0.0379 1.29057,0.0379 v 4.03718 4.03718 l 0.59565,0.0662 0.59565,0.0662 0.0662,-4.10337 0.0662,-4.10336 z m 5.03954,6.22587 0.0365,-2.08478 2.01859,-0.0365 2.01859,-0.0365 3e-5,2.08823 2e-5,2.08822 0.66181,0.0398 0.66181,0.0398 v -4.77188 -4.77188 h -0.66184 -0.66183 v 2.05169 2.05168 h -2.05168 -2.05169 v -2.05168 -2.05169 h -0.66183 -0.66183 v 4.67696 c 0,2.57232 0.0397,4.71666 0.0882,4.7652 0.0485,0.0485 0.34484,0.0882 0.65847,0.0882 h 0.57023 z m 9.897769,-1.42466 c 0,-1.93689 0.0458,-3.49333 0.10174,-3.45874 0.056,0.0346 0.57552,1.19962 1.15458,2.58896 l 1.05283,2.52608 h 0.54799 0.54799 l 0.8973,-2.08478 c 0.49351,-1.14662 0.99311,-2.30753 1.11022,-2.5798 0.11711,-0.27226 0.25662,-0.49563 0.31001,-0.49637 0.0534,-7.4e-4 0.11296,1.5554 0.13237,3.45809 l 0.0353,3.45945 0.56255,0.0201 0.56256,0.0201 v -4.73704 -4.73705 h -0.76968 c -0.89942,0 -0.64908,-0.36807 -2.20568,3.24299 -0.56488,1.31043 -1.06941,2.42904 -1.12118,2.48581 -0.0518,0.0568 -0.65108,-1.20899 -1.33182,-2.81279 l -1.23769,-2.91601 h -0.74977 -0.74977 l -0.0756,2.61425 c -0.0556,1.92257 -0.0349,6.75377 0.0293,6.85833 0.003,0.005 0.27318,0.0222 0.60078,0.0392 l 0.59565,0.0308 z m 19.98262,3.21161 c 0.67308,-0.34514 1.06368,-0.97627 1.06368,-1.7187 0,-0.42812 -0.042,-0.4987 -0.29783,-0.50025 -0.1638,-9.9e-4 -0.42265,-0.0353 -0.57522,-0.0763 -0.23711,-0.0637 -0.27911,-0.014 -0.28923,0.3419 -0.024,0.84264 -0.53231,1.11556 -2.00357,1.07568 -1.07312,-0.0291 -1.55645,-0.15682 -1.76278,-0.46583 -0.0535,-0.0801 -0.0982,-1.50346 -0.0993,-3.16301 l -0.002,-3.01735 0.3249,-0.3249 c 0.29892,-0.29893 0.42449,-0.3249 1.57054,-0.3249 1.05976,0 1.2977,0.0409 1.59442,0.27434 0.25558,0.20104 0.34877,0.39556 0.34877,0.72801 0,0.48442 0.0621,0.51406 0.77765,0.37095 0.3745,-0.0749 0.41365,-0.12942 0.41365,-0.57607 0,-0.55381 -0.39072,-1.21682 -0.96968,-1.64545 -0.33664,-0.24922 -0.55494,-0.2769 -2.18405,-0.2769 -1.66037,0 -1.84424,0.0244 -2.22389,0.29522 -0.80574,0.57473 -0.87253,0.91058 -0.88696,4.45961 -0.012,2.95876 0.007,3.23364 0.25449,3.72045 0.43728,0.85934 1.11466,1.1213 2.89947,1.1213 1.26009,0 1.54775,-0.0419 2.04694,-0.29782 z m 9.53512,-0.33092 2e-5,-0.56256 h -2.05168 -2.05168 l -0.0208,-4.00409 c -0.0115,-2.20225 -0.0181,-4.07855 -0.0147,-4.16955 0.004,-0.11064 -0.20825,-0.16546 -0.64098,-0.16546 h -0.64713 l -10e-6,4.73211 -2e-5,4.73211 h 2.71351 2.7135 z m 3.70629,-4.1705 v -4.79925 l -0.59565,0.0474 -0.59565,0.0474 v 4.67466 c 0,5.0655 -0.0421,4.79912 0.76111,4.81863 l 0.43019,0.0104 z m 8.31048,4.53607 c 0.63092,-0.28635 1.07936,-1.03948 1.08465,-1.8216 0.002,-0.35822 -0.0469,-0.4305 -0.29492,-0.432 -0.1638,-9.9e-4 -0.43185,-0.0377 -0.59565,-0.0816 -0.26289,-0.0704 -0.29783,-0.0307 -0.29783,0.33874 0,0.2679 -0.11694,0.5355 -0.3249,0.74345 -0.29892,0.29893 -0.42449,0.3249 -1.57055,0.3249 -1.05976,0 -1.29769,-0.0409 -1.59441,-0.27434 l -0.34877,-0.27434 v -3.04084 -3.04084 l 0.3249,-0.3249 c 0.29979,-0.29979 0.42302,-0.3249 1.59442,-0.3249 1.17139,0 1.29463,0.0251 1.59441,0.3249 0.20271,0.20271 0.3249,0.4765 0.3249,0.72801 0,0.43141 0.0741,0.46109 0.79267,0.31739 0.41989,-0.084 0.42729,-0.0978 0.36202,-0.67696 -0.0718,-0.63737 -0.36159,-1.11314 -0.94124,-1.54555 -0.32775,-0.24449 -0.5543,-0.27291 -2.17587,-0.27291 -1.68325,0 -1.8403,0.0216 -2.24221,0.30826 -0.85751,0.61162 -0.89148,0.78146 -0.89148,4.45694 0,3.80696 0.0446,3.98688 1.1231,4.53356 0.81003,0.41058 3.20366,0.43092 4.07676,0.0346 z m 5.32329,-1.35841 c 0.0653,-1.53505 0.0722,-1.56314 0.52946,-2.14595 0.25481,-0.3248 0.49307,-0.59229 0.52947,-0.59442 0.0364,-0.002 0.32917,0.42746 0.65059,0.95464 0.32142,0.52719 0.93851,1.51017 1.37132,2.18439 l 0.78691,1.22586 0.71389,-0.0346 c 0.43037,-0.0208 0.69314,-0.0897 0.66166,-0.17333 -0.0287,-0.0763 -0.46642,-0.76133 -0.97268,-1.52222 -1.4217,-2.13679 -2.2853,-3.54809 -2.28337,-3.7315 9.7e-4,-0.0918 0.70996,-1.0306 1.57555,-2.08623 l 1.5738,-1.91931 -0.73005,-0.0401 c -0.50576,-0.0278 -0.79664,0.0201 -0.94681,0.15605 -0.11922,0.10791 -0.93154,1.12182 -1.80516,2.25314 l -1.5884,2.05696 -0.0362,-2.23353 -0.0362,-2.23353 -0.65884,-0.0457 -0.65884,-0.0457 8e-5,4.80554 8e-5,4.80555 0.62874,-0.0403 0.62874,-0.0403 z m -45.60164,-23.39572 10e-4,-4.16955 h -0.86038 -0.86039 l -0.0397,4.0239 c -0.0218,2.21314 -0.008,4.10719 0.0314,4.209 0.0528,0.13746 0.28407,0.17495 0.89872,0.14566 l 0.82769,-0.0395 z m -7.428459,0.0993 c 0.21948,-0.819 0.21714,-0.82072 -1.65348,-1.20776 -0.9553,-0.19766 -1.75262,-0.34183 -1.77183,-0.32038 -0.0192,0.0215 -0.0753,0.2836 -0.12464,0.58254 l -0.0897,0.54353 1.43136,0.29308 c 0.78725,0.16119 1.49093,0.31396 1.56373,0.33949 0.34674,0.12161 0.57179,0.0411 0.64459,-0.2305 z m 15.158049,-0.0455 c 0.91837,-0.18881 1.68272,-0.35565 1.69856,-0.37074 0.0259,-0.0247 -0.24353,-1.01996 -0.30064,-1.11036 -0.0268,-0.0425 -3.41094,0.63167 -3.47065,0.69139 -0.096,0.096 0.1507,1.133 0.2696,1.133 0.0734,0 0.88475,-0.15448 1.80313,-0.34329 z m -23.079959,-2.3126 c 0.12247,-0.36873 0.20172,-0.69027 0.1761,-0.71454 -0.0256,-0.0243 -0.76136,-0.32312 -1.63498,-0.66409 -3.28859,-1.28354 -6.89478,-3.22681 -9.78726,-5.27409 -4.59629,-3.25321 -9.02238,-7.78827 -12.00121,-12.29668 -1.89219,-2.86379 -3.63929,-6.29071 -4.80996,-9.43468 -0.27108,-0.72801 -0.51162,-1.34247 -0.53453,-1.36546 -0.0588,-0.059 -1.02547,0.21724 -1.23585,0.35312 -0.13799,0.0891 -0.0464,0.45591 0.43577,1.74484 3.75163,10.02912 10.80596,18.47738 20.15668,24.13962 2.28228,1.382 5.85072,3.07143 8.63674,4.08895 0.34884,0.1274 0.37193,0.10514 0.5985,-0.57699 z m 30.942229,0.0557 c 12.45327,-4.73389 22.69341,-15.0849 27.44253,-27.73966 0.31996,-0.85257 0.58174,-1.57664 0.58174,-1.60905 0,-0.0616 -1.16569,-0.48091 -1.33698,-0.48091 -0.0542,0 -0.17113,0.22337 -0.25988,0.49638 -0.67012,2.06156 -2.56235,6.09618 -3.93963,8.40011 -5.26564,8.80843 -13.49384,15.78726 -22.98853,19.49798 -0.87362,0.34143 -1.60936,0.64064 -1.63498,0.66492 -0.0602,0.057 0.37959,1.38494 0.45869,1.38494 0.033,0 0.78763,-0.27662 1.67704,-0.61471 z m -11.74778,-7.66021 c 10.71767,-1.39616 20.25686,-7.64175 26.27898,-17.20566 1.10253,-1.75094 2.7442,-5.17211 3.42993,-7.1478 0.56648,-1.63208 1.4593,-5.046572 1.4593,-5.580879 0,-0.344118 -0.4255,-0.625002 -0.77754,-0.513271 -0.182,0.05777 -0.30874,0.410227 -0.5381,1.496458 -0.88447,4.188822 -3.21267,9.451992 -5.70282,12.891962 -2.65679,3.67016 -6.04926,6.98885 -9.4913,9.28488 -14.01364,9.34785 -32.401899,7.42393 -44.286289,-4.63355 -1.95681,-1.98532 -2.99734,-3.24752 -4.45222,-5.4007 -2.44837,-3.62352 -4.26897,-7.77298 -5.16882,-11.780629 -0.42315,-1.884531 -0.46213,-1.965101 -0.89876,-1.857283 -0.19838,0.04899 -0.40741,0.134547 -0.46451,0.190135 -0.0571,0.05559 0.0407,0.783308 0.2173,1.617157 1.73734,8.20251 6.63393,15.88226 13.58906,21.31289 5.48608,4.28358 12.1689,6.92845 18.992029,7.51651 1.90865,0.1645 5.82204,0.0692 7.81376,-0.19022 z M 92.682621,111.47073 c 1.90466,-0.34309 4.07316,-1.85684 5.25772,-3.67023 1.12447,-1.7214 1.50973,-3.13296 1.34946,-4.94434 -0.0538,-0.6079 -0.10504,-7.893864 -0.1139,-16.191039 l -0.0161,-15.085772 1.323669,-0.369983 c 0.72802,-0.20349 2.93192,-0.815339 4.89757,-1.359663 1.96564,-0.544324 4.40781,-1.222129 5.42703,-1.506233 1.01922,-0.284105 3.19334,-0.883592 4.83138,-1.332195 1.63804,-0.448604 3.08249,-0.846106 3.20989,-0.883339 0.21951,-0.06415 0.23165,0.619417 0.23165,13.050129 V 92.29589 l -0.4302,-0.491324 c -1.88722,-2.155401 -5.45032,-2.484966 -8.38801,-0.775837 -0.95734,0.556972 -2.44355,2.111881 -3.0353,3.175592 -2.14237,3.851092 -1.09247,8.295039 2.36063,9.991919 0.78136,0.38397 1.06495,0.44929 2.18464,0.50321 1.60544,0.0773 2.52128,-0.10622 3.83946,-0.7694 2.21431,-1.11402 3.88696,-3.24777 4.53637,-5.786921 0.24636,-0.96327 0.25607,-1.617882 0.25607,-17.265312 0,-13.987019 -0.0265,-16.274257 -0.18943,-16.336773 -0.10419,-0.03998 -1.07212,0.174509 -2.15096,0.476643 -6.27694,1.757891 -8.01881,2.241944 -12.88177,3.579736 -2.94847,0.811118 -5.807589,1.605791 -6.353599,1.76594 l -0.99275,0.291179 -0.0337,14.191418 c -0.0189,7.971286 -0.0843,14.191418 -0.14925,14.191418 -0.0636,0 -0.18814,-0.08745 -0.27685,-0.194339 -0.23577,-0.284083 -1.2138,-0.805665 -2.001,-1.067132 -1.10522,-0.367095 -3.07733,-0.224184 -4.3561,0.31567 -3.82891,1.61644 -6.06112,5.798533 -5.04701,9.455723 0.80556,2.90511 3.52775,4.49672 6.71038,3.92343 z m -2.65611,-1.23498 c -1.37652,-0.43533 -2.37704,-1.40025 -2.82387,-2.7234 -1.02268,-3.02833 0.74419,-6.69725 3.94365,-8.189011 2.28675,-1.066206 4.87941,-0.566195 6.17586,1.191061 1.70104,2.30563 0.75484,6.23726 -2.03251,8.44538 -1.59712,1.26523 -3.69155,1.773 -5.26313,1.27597 z m 20.847739,-6.81469 c -2.08018,-0.68236 -3.39863,-2.42842 -3.53907,-4.686861 -0.12972,-2.086196 0.59908,-3.909026 2.21137,-5.530955 1.09974,-1.106322 2.16062,-1.722485 3.41352,-1.982586 3.7987,-0.788607 6.87381,2.38082 6.08117,6.267675 -0.38231,1.874731 -1.38599,3.516907 -2.85341,4.668637 -1.15021,0.90276 -2.21652,1.28416 -3.72518,1.33242 -0.69161,0.0221 -1.40639,-0.009 -1.5884,-0.0683 z M 54.454881,99.666119 c 0.0735,-0.091 0.17019,-0.403718 0.2149,-0.694925 0.7745,-5.044776 2.39419,-15.145412 2.54329,-15.860372 0.0428,-0.205411 0.10538,-0.345977 0.13898,-0.31237 0.0622,0.06223 1.22221,4.11025 2.63679,9.201732 1.08053,3.889149 1.25211,3.957018 2.57158,1.017225 l 0.86039,-1.916936 8.00818,-0.0046 c 4.4045,-0.0025 8.07607,-0.04834 8.15904,-0.101823 0.083,-0.05349 0.40202,-1.050288 0.70901,-2.215115 0.30699,-1.164826 0.71261,-2.699766 0.9014,-3.410977 0.18878,-0.711211 0.38371,-1.217513 0.43318,-1.125117 0.098,0.182968 1.14561,3.980321 2.31049,8.374728 0.83767,3.160052 0.9041,3.351356 1.20368,3.466313 0.31282,0.120043 0.58549,-0.09667 0.78538,-0.624227 0.0958,-0.252718 0.51444,-1.33807 0.93042,-2.411895 l 0.75631,-1.952408 h 2.36976 2.36977 l -0.0403,-0.628742 -0.0403,-0.628741 h -2.77538 -2.77538 l -0.59997,1.48228 c -0.32998,0.815254 -0.63539,1.515817 -0.67868,1.556807 -0.0433,0.04099 -0.35173,-0.953644 -0.68542,-2.210297 -2.27546,-8.569289 -2.63677,-9.8406 -2.84067,-9.995181 -0.28535,-0.216333 -0.35262,-0.209662 -0.66737,0.06618 -0.19506,0.170949 -0.54746,1.324098 -1.34499,4.401191 -0.59438,2.293253 -1.11149,4.273789 -1.14913,4.401192 -0.0642,0.217304 -0.56411,0.231641 -8.07706,0.231641 h -8.00862 l -0.5532,1.18868 c -0.30426,0.653774 -0.58876,1.189859 -0.63223,1.1913 -0.0806,0.0027 -0.58684,-1.703077 -1.90445,-6.417163 -1.61289,-5.770497 -1.98418,-7.019397 -2.11552,-7.115906 -0.21392,-0.157195 -0.76095,-0.05297 -0.87467,0.166657 -0.0896,0.173065 -0.79444,4.440671 -1.91288,11.582082 -0.18243,1.164827 -0.44986,2.825221 -0.59429,3.689764 -0.14443,0.864544 -0.26261,1.633925 -0.26261,1.709736 0,0.392229 -0.30381,-0.434511 -1.77608,-4.833053 -0.88406,-2.641199 -1.65374,-4.876636 -1.71041,-4.967638 -0.18325,-0.294282 -0.71621,-0.186924 -0.98566,0.19855 -0.13995,0.200205 -0.69498,1.182795 -1.23341,2.183534 l -0.97895,1.819526 -3.44154,0.0098 c -2.04546,0.0058 -3.33414,0.05597 -3.1768,0.123579 0.14561,0.06257 0.43514,0.117946 0.64341,0.123063 l 0.37867,0.0093 -0.31249,0.260329 c -0.17187,0.143182 -0.25292,0.268557 -0.18012,0.278613 0.0728,0.01005 -0.10589,0.09681 -0.3971,0.192781 -0.46399,0.152918 -0.0509,0.175756 3.34038,0.184671 l 3.86985,0.01017 0.31844,-0.496375 c 0.17514,-0.273006 0.58977,-0.971761 0.9214,-1.55279 0.57135,-1.001044 0.6097,-1.039202 0.73159,-0.728016 0.0708,0.180619 0.91681,2.710998 1.88014,5.623065 0.96332,2.912066 1.80938,5.369122 1.88012,5.460124 0.0707,0.091 0.26294,0.165459 0.42711,0.165459 0.16418,0 0.35863,-0.07446 0.43211,-0.165459 z m 98.840929,0.03626 c 0.0439,-0.07106 0.91707,-2.617462 1.94033,-5.658674 1.02327,-3.041212 1.9119,-5.58385 1.97473,-5.650306 0.0668,-0.07068 0.17054,0.01173 0.24989,0.19855 0.0746,0.175658 0.45239,0.855464 0.83953,1.510679 l 0.70389,1.1913 4.16223,0.02022 c 3.61662,0.01757 4.09282,-0.0028 3.63276,-0.155285 -0.29121,-0.09653 -0.44578,-0.180079 -0.3435,-0.185674 0.14546,-0.008 0.13544,-0.06601 -0.046,-0.266488 -0.225,-0.248626 -0.21668,-0.25888 0.27731,-0.341757 0.2801,-0.04699 0.56884,-0.105643 0.64164,-0.130334 0.0728,-0.02469 -1.59502,-0.05009 -3.70626,-0.05644 l -3.83864,-0.01154 -0.31081,-0.561467 c -0.17095,-0.308806 -0.69737,-1.291137 -1.16983,-2.182958 -0.79155,-1.494168 -0.88866,-1.621491 -1.23668,-1.621491 -0.20772,0 -0.41628,0.06247 -0.46347,0.138826 -0.0472,0.07635 -0.79714,2.259122 -1.66657,4.850595 -0.86942,2.591473 -1.63082,4.801205 -1.69199,4.910516 -0.13039,0.232987 -0.17601,-0.0096 -1.00729,-5.355386 -0.62828,-4.040338 -1.08782,-6.950776 -1.54312,-9.773034 -0.15267,-0.946422 -0.33646,-1.795223 -0.40841,-1.886225 -0.072,-0.091 -0.26515,-0.165459 -0.42933,-0.165459 -0.16417,0 -0.35925,0.07446 -0.43351,0.165459 -0.1397,0.171199 -0.95583,2.928181 -2.84048,9.595452 -0.60176,2.128827 -1.12744,3.871103 -1.16819,3.871725 -0.0408,6.22e-4 -0.31928,-0.535693 -0.61897,-1.19181 l -0.54489,-1.192941 -4.87425,0.03473 -4.87424,0.03473 -0.45575,0.959658 c -0.42596,0.896939 -0.66937,1.184845 -0.66937,0.791741 0,-0.09235 -0.41695,-1.327222 -0.92656,-2.744149 -0.50961,-1.416928 -0.92657,-2.585857 -0.92657,-2.597621 0,-0.01176 -0.0937,-0.05733 -0.20814,-0.101259 -0.41647,-0.159816 -0.69574,0.205985 -1.44782,1.896466 l -0.76663,1.723163 -2.39569,0.036 -2.3957,0.036 -0.0405,0.631395 -0.0405,0.631396 2.82016,-0.03575 2.82015,-0.03574 0.56256,-1.108183 0.56256,-1.108184 0.18314,0.44635 c 0.10073,0.245493 0.52364,1.429173 0.9398,2.6304 0.41617,1.201227 0.82006,2.261518 0.89755,2.3562 0.0775,0.09468 0.2917,0.154248 0.47602,0.132367 0.28961,-0.03438 0.43497,-0.259662 1.07026,-1.658791 l 0.73514,-1.619006 4.08704,0.03061 4.08704,0.03061 0.8752,1.884183 c 0.48136,1.036301 0.95873,1.916235 1.06082,1.95541 0.37893,0.145409 0.67206,-0.0838 0.81551,-0.637684 0.78247,-3.021283 3.31539,-11.772093 3.38677,-11.700713 0.045,0.04498 0.66523,3.613064 0.84461,4.858721 0.0681,0.473211 0.39406,2.587768 0.72426,4.699017 0.33021,2.111248 0.71908,4.606897 0.86416,5.545888 0.14509,0.93899 0.33063,1.787791 0.41232,1.886225 0.17183,0.207043 0.72478,0.239722 0.84218,0.04977 z M 68.484881,83.682845 c 1.31126,-7.783904 4.44633,-14.092759 9.69481,-19.509298 4.95533,-5.114005 10.22878,-8.178271 17.00912,-9.883561 4.71564,-1.18601 10.404199,-1.30099 15.288329,-0.309015 4.11792,0.836357 8.66287,2.722797 12.16739,5.050234 2.70653,1.797473 5.84334,4.66069 7.86524,7.179241 3.8331,4.774627 6.60471,11.016423 7.57848,17.067106 0.11058,0.68711 0.23094,1.297651 0.26747,1.356759 0.0879,0.142262 0.59853,0.133754 0.83167,-0.01386 0.23016,-0.145727 0.14701,-0.974914 -0.33117,-3.302708 -2.02371,-9.851529 -8.07209,-18.611126 -16.46607,-23.847081 -2.75165,-1.71641 -7.00427,-3.496569 -10.39854,-4.352852 -5.34833,-1.349242 -12.033259,-1.277122 -17.630669,0.190208 -14.10654,3.697948 -24.75597,15.600464 -26.91962,30.087165 -0.18187,1.217726 -0.11323,1.383062 0.54577,1.314701 0.30279,-0.03141 0.34461,-0.117681 0.49779,-1.027039 z m 33.917909,-4.753859 c 0.76442,-0.208855 4.15962,-1.165825 7.5449,-2.126598 3.38527,-0.960774 6.42309,-1.821971 6.7507,-1.913773 0.58704,-0.164501 0.59623,-0.175802 0.63599,-0.782457 0.0222,-0.33855 -0.014,-0.615546 -0.0805,-0.615546 -0.0665,0 -2.1992,0.589909 -4.73936,1.310909 -2.54016,0.721 -5.92891,1.678122 -7.53054,2.126938 -4.54342,1.273171 -4.16955,1.111657 -4.16955,1.801274 0,0.321757 0.0447,0.583657 0.0993,0.582001 0.0546,-0.0017 0.72471,-0.173892 1.48912,-0.382748 z M 60.503671,73.65607 c 0.22894,-0.927898 1.54799,-4.021896 2.60719,-6.115471 2.11844,-4.187239 4.86258,-7.947964 8.31258,-11.392028 4.95127,-4.942744 10.92272,-8.768323 17.05832,-10.92832 0.76427,-0.269059 0.78931,-0.344281 0.42916,-1.289383 -0.16312,-0.428042 -0.0809,-0.438779 -1.9627,0.256231 -4.16563,1.538475 -8.83314,4.22044 -12.67335,7.282138 -1.98635,1.583664 -5.83557,5.4507 -7.42666,7.461042 -2.35968,2.981439 -4.1115,5.768273 -5.65905,9.002551 -0.77247,1.614419 -2.20264,5.209123 -2.20264,5.536309 0,0.122002 0.93193,0.51668 1.27623,0.54049 0.0831,0.0057 0.19152,-0.153354 0.24092,-0.353559 z m 86.822319,0.150187 c 0.45289,-0.154315 0.60664,-0.268249 0.55248,-0.409397 -0.0413,-0.107566 -0.11292,-0.353845 -0.15921,-0.547286 -0.14583,-0.609399 -1.36562,-3.600974 -2.08637,-5.116912 -4.35944,-9.169074 -12.22852,-17.106537 -21.65434,-21.842515 -1.66271,-0.835423 -5.30207,-2.3144 -5.69511,-2.3144 -0.0916,0 -0.52612,1.095418 -0.52612,1.326294 0,0.04831 0.24531,0.161334 0.54515,0.251165 2.04135,0.611606 6.47591,2.776262 9.01801,4.402 8.64565,5.529104 15.04857,13.334471 18.5193,22.57563 0.38901,1.035764 0.74135,1.884565 0.78298,1.886225 0.0416,0.0017 0.35809,-0.0932 0.70323,-0.210804 z m -42.94298,-31.62036 0.0145,-4.434283 h -0.93117 -0.93116 v 4.434283 4.434283 h 0.91669 0.91669 z m -7.374159,0.54565 c -0.0182,-0.0453 -0.034,-0.246171 -0.0351,-0.446375 -0.004,-0.722871 -0.092,-0.74565 -1.66774,-0.431678 -2.2816,0.454626 -2.07732,0.354897 -1.97954,0.966397 0.0468,0.29263 0.11014,0.572607 0.14077,0.622171 0.0684,0.110681 3.58788,-0.595389 3.54163,-0.710515 z m 16.635349,0.232449 c 0.0847,-0.336463 0.13647,-0.62824 0.11499,-0.648393 -0.0818,-0.07672 -3.57276,-0.743488 -3.62407,-0.692182 -0.0297,0.02966 -0.0901,0.317572 -0.13423,0.6398 l -0.0803,0.58587 1.70122,0.342416 c 0.93567,0.18833 1.73883,0.351827 1.78479,0.363328 0.046,0.0115 0.15288,-0.254376 0.2376,-0.590839 z"
       id="path14" /></g></svg>
