<?xml version="1.0" encoding="UTF-8" standalone="no"?>
<!-- Created with Inkscape (http://www.inkscape.org/) -->

<svg
   width="185.08784mm"
   height="185.08784mm"
   viewBox="0 0 185.08784 185.08784"
   version="1.1"
   id="svg1"
   xml:space="preserve"
   sodipodi:docname="dibujo.svg"
   inkscape:version="1.4.4 (dcaf3e7, 2026-05-05)"
   inkscape:export-filename="rhythm-click.svg"
   inkscape:export-xdpi="96"
   inkscape:export-ydpi="96"
   xmlns:inkscape="http://www.inkscape.org/namespaces/inkscape"
   xmlns:sodipodi="http://sodipodi.sourceforge.net/DTD/sodipodi-0.dtd"
   xmlns="http://www.w3.org/2000/svg"
   xmlns:svg="http://www.w3.org/2000/svg"><sodipodi:namedview
     id="namedview1"
     pagecolor="#505050"
     bordercolor="#eeeeee"
     borderopacity="1"
     inkscape:showpageshadow="0"
     inkscape:pageopacity="0"
     inkscape:pagecheckerboard="0"
     inkscape:deskcolor="#505050"
     inkscape:document-units="mm"
     inkscape:zoom="0.72604517"
     inkscape:cx="716.20888"
     inkscape:cy="339.51056"
     inkscape:window-width="1920"
     inkscape:window-height="1017"
     inkscape:window-x="-8"
     inkscape:window-y="-8"
     inkscape:window-maximized="1"
     inkscape:current-layer="layer1"><inkscape:page
       x="0"
       y="0"
       width="185.08784"
       height="185.08784"
       id="page2"
       margin="0"
       bleed="0" /></sodipodi:namedview><defs
     id="defs1" /><g
     inkscape:label="Capa 1"
     inkscape:groupmode="layer"
     id="layer1"
     transform="translate(-12.45065,-6.5719058)"><path
       style="fill:#000000"
       d="M 12.450649,99.115828 V 6.5719056 h 92.543921 92.54392 V 99.115828 191.65975 H 104.99457 12.450649 Z M 183.29529,184.52545 c 3.084,-0.93041 5.81581,-3.40355 6.7927,-6.14952 0.70601,-1.98451 0.65887,2.96885 0.75221,-79.038705 l 0.0874,-76.75094 -0.31434,-1.312867 c -0.47201,-1.971421 -1.30912,-3.469498 -2.73425,-4.893168 -1.34884,-1.347458 -2.57945,-2.067952 -4.44273,-2.601135 l -1.17413,-0.335981 -76.97234,-0.004 c -74.023624,-0.0038 -77.016369,0.0064 -78.121667,0.265613 -3.971297,0.931469 -7.003739,4.087242 -7.623103,7.933137 -0.204941,1.272568 -0.226826,153.994716 -0.02222,155.040636 0.829232,4.23884 4.171885,7.39446 8.503614,8.0278 0.494853,0.0724 34.542588,0.11953 77.632366,0.10756 73.60869,-0.0204 76.7872,-0.0322 77.63653,-0.28847 z M 28.538827,183.95896 c -1.392919,-0.1572 -2.140766,-0.38532 -3.468552,-1.05802 -2.254769,-1.14234 -4.064131,-3.41421 -4.715853,-5.9213 -0.205085,-0.78893 -0.228679,-8.79434 -0.228679,-77.589977 0,-84.300906 -0.07373,-77.66326 0.886208,-79.780362 1.138411,-2.510711 3.393645,-4.36862 6.162458,-5.076764 1.096836,-0.280523 2.466054,-0.285537 77.967761,-0.285537 76.04976,0 76.86321,0.003 77.99135,0.291571 1.69043,0.432338 2.79532,1.078184 4.16332,2.4336 0.96716,0.958261 1.31201,1.427232 1.79478,2.440757 0.32867,0.690021 0.67374,1.619888 0.76682,2.066372 0.12609,0.604799 0.16599,20.32526 0.15648,77.341332 -0.007,42.091248 -0.0498,76.795218 -0.0951,77.119938 -0.27416,1.96589 -1.36177,4.08286 -2.79123,5.43299 -1.61846,1.52864 -3.34306,2.31408 -5.7187,2.6045 -1.41801,0.17336 -151.331735,0.15463 -152.871063,-0.0191 z m 64.535615,-13.77043 c 0.06308,-0.32999 -0.0031,-0.38586 -0.694804,-0.58696 -0.420487,-0.12224 -0.87892,-0.34866 -1.01874,-0.50316 -0.242986,-0.2685 -0.237732,-0.28505 0.118912,-0.37456 0.7064,-0.17729 1.37635,-0.92406 1.548299,-1.72583 0.204468,-0.9534 0.206167,-7.2637 0.0022,-7.99835 -0.210795,-0.75907 -0.933458,-1.5435 -1.589946,-1.72584 -0.297742,-0.0827 -1.37412,-0.15073 -2.391949,-0.15118 -1.629119,-7.2e-4 -1.928394,0.0389 -2.500613,0.33127 -1.164455,0.59493 -1.245495,0.91549 -1.308167,5.17448 -0.05772,3.92218 0.03932,4.77354 0.614671,5.3928 0.567647,0.61098 1.041732,0.76087 2.406529,0.76087 h 1.287827 l 0.845299,0.88558 0.845299,0.88559 h 0.882756 c 0.821631,0 0.887583,-0.0252 0.952474,-0.36471 z m -5.744221,-2.9103 c -0.591177,-0.28581 -0.655849,-0.75735 -0.608648,-4.43777 0.04429,-3.45305 0.04757,-3.4846 0.402474,-3.86207 0.345196,-0.36715 0.418122,-0.38042 2.066372,-0.37589 1.844973,0.005 2.100282,0.0905 2.366935,0.79183 0.08962,0.23573 0.153401,1.78322 0.153401,3.72215 0,3.4589 -0.08901,4.02227 -0.670803,4.24552 -0.393386,0.15096 -3.362916,0.0839 -3.709731,-0.0838 z m -17.345936,1.29646 c 0.598661,-0.31148 1.015917,-0.83157 1.195383,-1.49 0.327865,-1.20287 0.125802,-3.05465 -0.40386,-3.70112 -0.476715,-0.58185 -0.990524,-0.78742 -2.902124,-1.16111 -2.431887,-0.47539 -2.641883,-0.61756 -2.70062,-1.82839 -0.07809,-1.6098 0.398016,-1.94598 2.593547,-1.83131 1.243124,0.0649 1.395697,0.10556 1.660477,0.44217 0.160364,0.20387 0.291571,0.52777 0.291571,0.71977 0,0.32177 0.05936,0.34909 0.758549,0.34909 h 0.758548 l -0.08934,-0.75439 c -0.1145,-0.96677 -0.628161,-1.65047 -1.486182,-1.97815 -0.524631,-0.20036 -1.033653,-0.23944 -2.574868,-0.19768 -2.123169,0.0575 -2.410923,0.16547 -3.086123,1.15754 -0.289439,0.42527 -0.332096,0.67654 -0.332096,1.95623 0,2.35175 0.369253,2.7084 3.472959,3.35447 2.351565,0.4895 2.583712,0.64018 2.689965,1.74598 0.09092,0.9462 -0.162249,1.70923 -0.639215,1.92655 -0.204418,0.0931 -1.068964,0.16934 -1.921213,0.16934 -1.448396,0 -1.573191,-0.0236 -1.911828,-0.36228 -0.23229,-0.23229 -0.362286,-0.5302 -0.362286,-0.83024 0,-0.44539 -0.02224,-0.4635 -0.461244,-0.3757 -0.253684,0.0507 -0.595031,0.0923 -0.758549,0.0923 -0.270299,0 -0.289309,0.0675 -0.209283,0.7432 0.103696,0.87555 0.495076,1.48496 1.166083,1.81569 0.656169,0.32341 4.647734,0.35236 5.251754,0.0381 z m 11.542211,-0.45681 v -0.6642 h -2.582965 -2.582964 v -1.91877 -1.91877 h 2.213969 2.21397 v -0.66419 -0.66419 l -0.848688,-0.009 c -0.466779,-0.005 -1.44646,-0.0216 -2.17707,-0.0369 l -1.328382,-0.0278 -0.04144,-1.80808 -0.04144,-1.80807 h 2.587507 2.587508 v -0.73799 -0.73799 h -3.320954 -3.320955 v 5.83012 5.83012 h 3.320955 3.320954 z m 22.289594,0.39052 c 0.28286,-0.15051 0.66264,-0.53242 0.84396,-0.84868 0.32314,-0.56365 0.32971,-0.67366 0.33209,-5.55646 l 0.002,-4.98143 h -0.73799 -0.73799 v 4.78058 c 0,5.92545 0.19882,5.45642 -2.34268,5.52661 -1.738226,0.048 -1.787595,0.0405 -2.15353,-0.32539 l -0.374521,-0.37452 v -4.80364 -4.80364 h -0.73799 -0.737989 v 4.92131 c 0,4.8351 0.0059,4.93245 0.335774,5.55628 0.550767,1.04152 0.977457,1.18265 3.575576,1.18265 1.87706,0 2.29774,-0.0421 2.73286,-0.27367 z m 11.51034,-0.38704 v -0.6607 l -2.54607,-0.0404 -2.54606,-0.0404 -0.0489,-1.88188 -0.0489,-1.88187 h 2.22595 2.22594 l 7e-5,-0.70109 7e-5,-0.70109 h -2.17714 -2.17714 l -0.0414,-1.80808 -0.0414,-1.80807 h 2.58751 2.58751 v -0.73799 -0.73799 h -3.32096 -3.32095 v 5.83012 5.83012 h 3.32095 3.32096 z m 4.79693,-3.76725 c 0,-2.43529 0.0553,-4.40941 0.12281,-4.38693 0.11627,0.0387 0.65106,1.02281 3.52604,6.48852 l 1.22189,2.32297 0.84868,0.002 0.84869,0.002 v -5.83012 -5.83012 h -0.73585 -0.73586 l -0.039,4.53863 c -0.0255,2.96437 -0.087,4.43625 -0.17741,4.24345 -0.12432,-0.26523 -1.11122,-2.11129 -3.80721,-7.12161 l -0.89349,-1.66047 h -0.79072 -0.79072 v 5.83012 5.83012 l 0.70109,-8e-5 0.70109,-8e-5 z m 16.60627,4.09586 c 0.7074,-0.48145 1.05401,-1.02021 1.13848,-1.76962 0.0674,-0.59798 0.0418,-0.66815 -0.27453,-0.75283 -0.48163,-0.12892 -1.16725,-0.12086 -1.12946,0.0133 0.0171,0.0609 -0.0138,0.3237 -0.0688,0.58403 -0.1509,0.71416 -0.7015,0.92884 -2.38215,0.92884 -1.24788,0 -1.44432,-0.037 -1.79446,-0.3382 l -0.39318,-0.3382 -0.0209,-3.63531 c -0.0201,-3.48217 -0.008,-3.65291 0.28971,-4.05284 0.29981,-0.40295 0.36162,-0.41903 1.77117,-0.46067 0.80329,-0.0237 1.60913,-0.006 1.79075,0.0392 0.40032,0.0999 0.76393,0.62071 0.80839,1.15792 0.0347,0.41929 0.35802,0.50473 1.12901,0.29835 0.31493,-0.0843 0.34179,-0.15613 0.27613,-0.73867 -0.10501,-0.9316 -0.69002,-1.73655 -1.48185,-2.03895 -0.52048,-0.19877 -1.03942,-0.23894 -2.58074,-0.19976 -2.13286,0.0542 -2.41688,0.16021 -3.0936,1.15452 -0.32532,0.47799 -0.33209,0.57412 -0.33155,4.70956 5.2e-4,3.95217 0.0193,4.25232 0.29385,4.70266 0.56933,0.93378 0.99649,1.06757 3.41062,1.06818 1.99259,5.1e-4 2.19207,-0.0245 2.64319,-0.33154 z m 11.21595,-0.33209 v -0.6642 h -2.58297 -2.58296 v -1.91877 -1.91877 h 2.21397 2.21397 v -0.66025 -0.66024 l -2.17707,-0.0409 -2.17707,-0.0408 -0.0414,-1.80808 -0.0414,-1.80807 h 2.58751 2.58751 v -0.73799 -0.73799 h -3.32096 -3.32095 v 5.83012 5.83012 h 3.32095 3.32096 z M 48.907346,105.03029 c 1.741181,-0.58167 3.119392,-1.38664 4.358178,-2.54546 1.18745,-1.1108 1.793687,-1.93193 2.541809,-3.442801 0.93782,-1.893974 1.139832,-2.798468 1.137289,-5.09213 -0.0026,-2.361092 -0.208238,-3.266538 -1.200636,-5.286973 -1.164208,-2.370226 -3.504801,-4.519033 -6.047988,-5.552423 -2.236501,-0.908771 -5.461948,-1.06696 -7.651957,-0.375282 -4.14343,1.308634 -7.00409,4.269807 -8.040711,8.323229 -0.409217,1.600133 -0.411101,4.169058 -0.0042,5.782899 0.808305,3.206201 2.952267,5.905681 5.891654,7.418251 2.09182,1.07642 3.34375,1.35628 5.769448,1.28973 1.598049,-0.0438 2.032637,-0.1133 3.247155,-0.51904 z m -5.988562,-1.18617 c -3.786043,-0.99285 -6.54248,-3.69861 -7.523367,-7.385055 -0.340197,-1.278555 -0.341582,-3.730928 -0.0028,-5.018331 0.982797,-3.735099 3.759525,-6.435674 7.608569,-7.3999 2.384868,-0.597435 5.281591,-0.178105 7.529773,1.09001 0.446483,0.251845 1.379017,1.027383 2.072297,1.723418 2.192551,2.201264 3.05042,4.440864 2.907217,7.589739 -0.126382,2.779009 -0.9787,4.683939 -2.99272,6.688729 -0.99512,0.99056 -1.457128,1.32402 -2.595015,1.87299 -2.303922,1.1115 -4.815857,1.41219 -7.003919,0.8384 z m 3.544874,-2.66829 c 2.327035,-0.33632 4.487187,-1.934389 5.501305,-4.069834 1.384262,-2.914863 0.846838,-6.067324 -1.420951,-8.335113 -3.950597,-3.950597 -10.668754,-2.319372 -12.278814,2.981399 -0.417645,1.375005 -0.349004,3.639153 0.148619,4.902236 0.917533,2.328916 3.203161,4.144752 5.696595,4.525702 1.053167,0.1609 1.211603,0.16061 2.353246,-0.004 z m 32.110878,3.91741 c 3.812259,-1.19863 6.632255,-4.01714 7.826506,-7.822386 0.497102,-1.583919 0.569262,-4.314781 0.159324,-6.029604 -0.799886,-3.346024 -3.161998,-6.273534 -6.262941,-7.762047 -1.545223,-0.741736 -2.634114,-1.024311 -4.379652,-1.136552 -2.924804,-0.188068 -5.558387,0.60814 -7.896491,2.387337 -3.045086,2.317181 -4.681008,5.98404 -4.46104,9.999259 0.163485,2.984211 1.411245,5.596783 3.691978,7.730293 1.597601,1.49448 3.492355,2.46943 5.713594,2.93994 1.509031,0.31965 4.061291,0.18029 5.608722,-0.30624 z m -5.892526,-1.25257 c -1.960177,-0.53053 -3.180093,-1.2434 -4.66829,-2.72797 -2.099973,-2.094845 -2.854731,-3.781235 -2.974568,-6.646208 -0.08911,-2.130369 0.13461,-3.269672 0.98543,-5.01833 2.870132,-5.898875 10.490487,-7.546231 15.666727,-3.386808 0.996959,0.801116 2.134826,2.176073 2.671634,3.228303 1.585896,3.108614 1.39524,7.177197 -0.470521,10.040877 -1.316877,2.021226 -3.351876,3.604596 -5.536171,4.307536 -1.663831,0.53545 -4.120386,0.62316 -5.674241,0.2026 z m 4.264845,-2.81779 c 3.926263,-0.90472 6.490199,-5.195741 5.378716,-9.001864 -1.039155,-3.558452 -4.553856,-5.84697 -8.163094,-5.315212 -3.998334,0.589083 -6.792649,4.233059 -6.240427,8.137938 0.452325,3.198486 2.66155,5.553008 5.855553,6.240658 0.582125,0.12533 2.52177,0.0877 3.169252,-0.0615 z m 31.290835,4.14246 c 3.20228,-0.90714 5.81422,-3.09332 7.30717,-6.116072 0.91758,-1.857804 1.16619,-2.988436 1.16998,-5.320766 0.003,-1.78615 -0.0302,-2.01569 -0.4788,-3.320954 -1.33609,-3.887594 -4.15466,-6.570645 -8.09889,-7.709492 -1.62515,-0.469244 -4.4825,-0.46703 -6.1387,0.0048 -5.829149,1.660498 -9.472352,7.317532 -8.458469,13.134009 0.849855,4.875475 4.483645,8.606025 9.314419,9.562455 1.41917,0.28098 3.95454,0.1708 5.38329,-0.23394 z m -5.38329,-1.20129 c -0.40589,-0.0754 -1.41634,-0.46648 -2.24543,-0.86905 -3.512301,-1.70541 -5.58844,-4.84387 -5.763718,-8.712888 -0.103059,-2.274873 0.363087,-3.998628 1.622617,-6.000254 0.677967,-1.077417 2.325844,-2.653486 3.442189,-3.292194 2.831732,-1.620151 6.685122,-1.764778 9.604752,-0.360489 2.10626,1.013069 3.76042,2.644601 4.78443,4.718987 0.86184,1.745875 1.06921,2.745444 0.99259,4.784576 -0.11197,2.979892 -1.15873,5.262444 -3.32263,7.245262 -1.17919,1.08051 -3.18267,2.12159 -4.68686,2.43545 -1.1419,0.23827 -3.28584,0.26277 -4.42794,0.0506 z m 3.79338,-2.94496 c 4.04938,-0.84444 6.56044,-4.986138 5.49762,-9.067652 -0.4987,-1.915131 -1.9354,-3.586927 -3.90104,-4.539374 -1.14244,-0.553569 -1.38387,-0.614773 -2.64448,-0.670392 -2.37817,-0.104926 -3.97401,0.448299 -5.55864,1.926986 -2.378087,2.219112 -2.961673,5.726755 -1.449329,8.711221 0.486022,0.959119 1.948509,2.418214 2.971179,2.964281 1.38646,0.74032 3.45467,1.01485 5.08469,0.67493 z m -2.70072,-0.12757 c -0.37318,-0.0666 -0.88463,-0.22777 -1.13655,-0.35805 -0.25192,-0.13027 -0.58118,-0.23686 -0.73167,-0.23686 -0.43679,0 -1.52745,-0.767743 -2.27912,-1.604333 -1.460806,-1.625835 -2.072539,-3.628138 -1.767482,-5.78526 0.197973,-1.399912 0.868993,-2.939348 1.381351,-3.169062 0.18769,-0.08415 0.325204,-0.231932 0.305586,-0.328405 -0.06699,-0.329432 1.039955,-1.251845 2.114905,-1.762334 0.59037,-0.280366 1.5092,-0.584405 2.04184,-0.675643 1.78766,-0.306213 4.31119,0.280037 5.40596,1.255878 0.20678,0.184318 0.28981,0.277176 0.1845,0.206352 -0.11845,-0.07966 -0.19147,-0.06757 -0.19147,0.03171 0,0.200784 0.45983,0.44667 0.68395,0.365729 0.29241,-0.1056 1.18131,1.103679 1.6779,2.28262 0.79924,1.897487 0.75259,3.983855 -0.13132,5.872708 -0.89322,1.908783 -3.27728,3.77399 -4.52469,3.53998 -0.31714,-0.0595 -0.50471,-0.0453 -0.4554,0.0345 0.0464,0.0751 -0.0954,0.10709 -0.31756,0.0717 -0.31437,-0.0502 -0.35342,-0.03 -0.18003,0.0929 0.18687,0.13242 0.17536,0.1575 -0.0738,0.16078 -0.16236,0.002 -0.52766,0.0314 -0.81179,0.0651 -0.28413,0.0337 -0.82192,0.007 -1.19511,-0.06 z m 8.1175,-6.470638 c 0.008,-0.106265 -0.0372,-0.161128 -0.10063,-0.121919 -0.0635,0.03921 -0.12441,0.2922 -0.13549,0.562203 -0.0183,0.447244 -0.009,0.45809 0.10064,0.121919 0.0664,-0.202947 0.12739,-0.455939 0.13548,-0.562203 z M 98.305892,93.331833 c -0.04712,-0.117744 -0.08209,-0.08277 -0.08917,0.08917 -0.0064,0.155593 0.02848,0.242768 0.07752,0.193722 0.04905,-0.04905 0.05429,-0.176349 0.01165,-0.282896 z m 13.328328,-1.8542 c -0.001,-0.06088 -0.0666,-0.210327 -0.14534,-0.332095 -0.1157,-0.17903 -0.14351,-0.157847 -0.14534,0.110699 -0.001,0.182652 0.0642,0.332095 0.14534,0.332095 0.0812,0 0.14658,-0.04981 0.14534,-0.110699 z m -9.37021,-3.726848 c 0.0502,-0.08118 0.0209,-0.147598 -0.0651,-0.147598 -0.086,0 -0.15631,0.06642 -0.15631,0.147598 0,0.08118 0.0293,0.147598 0.0651,0.147598 0.0358,0 0.10614,-0.06642 0.15631,-0.147598 z m 3.82675,-0.597733 c -0.15642,-0.05683 -0.3413,-0.07012 -0.41086,-0.02954 -0.20083,0.117172 0.22316,0.314025 0.47128,0.218811 0.18301,-0.07023 0.17196,-0.104855 -0.0604,-0.189272 z m 31.94046,18.017278 c 3.95734,-1.1182 7.01738,-4.19106 8.17052,-8.20474 0.43625,-1.518449 0.47344,-4.353549 0.0762,-5.810271 -0.88092,-3.230569 -3.04833,-6.007969 -5.79178,-7.421818 -3.23594,-1.667653 -6.43265,-1.863526 -9.83447,-0.602591 -5.60607,2.077975 -8.66974,8.644156 -6.74354,14.453051 1.39686,4.212559 4.97818,7.202629 9.49901,7.930799 0.9439,0.15203 3.55549,-0.0425 4.62404,-0.34443 z m -5.67602,-1.31883 c -2.93185,-0.79487 -5.3472,-2.79995 -6.61768,-5.493625 -0.76784,-1.627955 -0.9879,-2.626619 -0.98763,-4.481775 3.7e-4,-2.449446 0.6209,-4.230186 2.19776,-6.306913 1.2288,-1.618343 3.42485,-3.029643 5.56805,-3.578332 1.12456,-0.287903 3.55785,-0.288177 4.77798,-5.39e-4 2.89698,0.682953 5.38444,2.652826 6.81006,5.393044 0.85459,1.642627 1.07973,2.770625 0.99984,5.009333 -0.0552,1.545546 -0.13209,2.024632 -0.47401,2.951959 -0.55154,1.495834 -1.4932,2.875098 -2.78927,4.085488 -1.20199,1.12253 -2.08532,1.65447 -3.67103,2.2107 -1.50209,0.5269 -4.27681,0.62744 -5.81407,0.21066 z m 35.13803,1.38936 c 2.24059,-0.59268 3.81551,-1.47577 5.3976,-3.02655 2.52288,-2.472941 3.81582,-6.065778 3.41276,-9.483402 -0.5663,-4.801678 -3.7262,-8.556922 -8.35849,-9.93326 -1.13715,-0.33787 -1.59397,-0.393992 -3.17335,-0.389859 -2.70866,0.0071 -4.70941,0.641633 -6.8843,2.183382 -2.09115,1.482386 -3.79166,4.048487 -4.45442,6.721794 -1.22319,4.933893 1.316,10.498385 5.87759,12.880405 2.5605,1.33707 5.61138,1.72763 8.18261,1.04749 z m -5.1811,-0.1472 c -1.70982,-0.37174 -4.6726,-1.87521 -4.36494,-2.215 0.0599,-0.0661 0.0386,-0.0803 -0.0473,-0.0315 -0.21836,0.12397 -0.95618,-0.49614 -1.0151,-0.85314 -0.0268,-0.16236 -0.11908,-0.27987 -0.20508,-0.26114 -0.24157,0.0526 -1.02812,-0.80258 -1.50856,-1.64025 -0.23829,-0.415455 -0.43388,-0.794528 -0.43464,-0.842382 -7.6e-4,-0.04785 0.15861,-0.159903 0.35415,-0.248999 0.32479,-0.147982 0.39078,-0.108546 0.76312,0.456002 0.22417,0.339897 0.64535,0.905969 0.93595,1.257929 0.2906,0.35197 0.51175,0.70067 0.49146,0.77489 -0.0203,0.0742 0.0238,0.11835 0.0981,0.0981 0.0742,-0.0203 0.42314,0.20178 0.77536,0.4935 0.35223,0.29171 1.23798,0.83484 1.96833,1.20695 6.86472,3.49756 15.12831,-1.66765 15.12831,-9.456056 0,-1.884776 -0.68012,-4.095954 -1.74541,-5.674568 -1.41755,-2.100635 -3.74822,-3.752713 -6.09076,-4.3174 -1.24721,-0.30065 -1.31359,-0.334871 -1.01543,-0.523435 0.18024,-0.113988 0.17145,-0.137697 -0.0517,-0.139573 -0.14786,-0.0012 -0.37076,-0.104181 -0.49533,-0.228752 -0.17446,-0.174463 -0.27376,-0.187264 -0.43225,-0.05573 -0.29557,0.245299 -0.25429,0.399938 0.12634,0.473249 0.18265,0.03518 -0.10794,0.07301 -0.64575,0.08406 -0.53781,0.01105 -1.202,0.05396 -1.47597,0.09535 -0.27398,0.04139 -0.41512,0.03585 -0.31365,-0.0123 0.10147,-0.04815 0.1845,-0.290933 0.1845,-0.539515 v -0.451968 l 1.80807,0.08315 c 3.40353,0.156513 6.22035,1.479355 8.28697,3.891756 3.17358,3.704571 3.65305,9.216104 1.15774,13.308186 -1.57939,2.590066 -4.36429,4.615426 -7.22298,5.253016 -1.28181,0.28589 -3.73525,0.29355 -5.01344,0.0156 z m -1.23033,-0.8119 c 0,-0.0812 -0.0293,-0.1476 -0.0651,-0.1476 -0.0358,0 -0.10614,0.0664 -0.15631,0.1476 -0.0502,0.0812 -0.0209,0.14759 0.0651,0.14759 0.086,0 0.15631,-0.0664 0.15631,-0.14759 z m 8.89277,-19.776513 c -0.49926,-0.304409 -0.64149,-0.497236 -0.25829,-0.350188 0.12177,0.04673 0.2214,0.01918 0.2214,-0.06122 0,-0.193335 -0.66733,-0.315487 -0.90868,-0.16633 -0.2287,0.141347 -0.20889,0.161574 0.53968,0.551078 0.75377,0.392207 1.03582,0.410736 0.40589,0.02666 z m -6.47362,19.617213 c -2.62891,-0.31039 -5.378,-1.88951 -6.91794,-3.97376 -2.03555,-2.755032 -2.63479,-6.473526 -1.54382,-9.579942 1.94793,-5.546529 8.56251,-8.403832 13.84172,-5.979216 2.39287,1.098987 4.01453,2.67922 5.13745,5.006217 0.76742,1.590308 0.95641,2.467215 0.95619,4.436772 -2e-4,1.836064 -0.17157,2.580506 -0.98329,4.271508 -1.94257,4.046791 -6.07635,6.339581 -10.49031,5.818421 z m -9.72097,-7.183702 c -0.30221,-0.946329 -0.47559,-3.52902 -0.29642,-4.415352 0.10593,-0.524008 0.12198,-0.538656 0.21597,-0.197084 0.0558,0.202947 0.046,0.522761 -0.0219,0.710699 -0.16772,0.464512 -0.1562,1.355672 0.0175,1.355672 0.0775,0 0.18231,-0.249071 0.2329,-0.553492 0.18435,-1.109254 0.28107,-0.964382 0.36954,0.553492 0.0497,0.852378 0.12967,1.649407 0.17776,1.771176 0.0481,0.121768 0.12512,0.3948 0.1712,0.606737 0.0729,0.335475 0.0394,0.380465 -0.25942,0.347666 -0.28943,-0.03177 -0.33262,0.01771 -0.27565,0.31575 0.12135,0.634761 -0.0546,0.371886 -0.33156,-0.495264 z m 0.51231,-5.531761 c 0,-0.132205 -0.10482,-0.345192 -0.23293,-0.473303 -0.21217,-0.212175 -0.21112,-0.298601 0.0119,-0.96993 0.2653,-0.79873 0.28612,-0.813639 0.76426,-0.547272 l 0.32179,0.179267 -0.29667,0.885588 c -0.31056,0.927044 -0.56831,1.346864 -0.56831,0.92565 z m 1.13634,-3.244666 c -0.31317,-0.32872 -0.23618,-0.677907 0.25021,-1.134846 l 0.34828,-0.327197 0.0963,0.383687 c 0.0542,0.216038 0.16423,0.341705 0.25176,0.287606 0.21287,-0.131562 -0.24419,0.732572 -0.48648,0.919748 -0.13932,0.107627 -0.26939,0.07116 -0.46007,-0.128998 z m 2.05744,-2.108923 c 0.0467,-0.121768 0.14819,-0.221397 0.22548,-0.221397 0.0773,0 0.0999,-0.06566 0.0503,-0.145907 -0.0522,-0.08452 0.009,-0.107895 0.14526,-0.05556 0.21304,0.08175 0.21159,0.116686 -0.0152,0.367304 -0.30087,0.332459 -0.52384,0.362982 -0.40587,0.05556 z m -0.46322,-0.516593 c 0.14694,-0.162357 0.30036,-0.295195 0.34095,-0.295195 0.0406,0 -0.0464,0.132838 -0.19335,0.295195 -0.14693,0.162358 -0.30036,0.295196 -0.34095,0.295196 -0.0406,0 0.0464,-0.132838 0.19335,-0.295196 z m 2.93296,-1.15567 c 0.15492,-0.173491 0.23648,-0.412831 0.18574,-0.545056 -0.0667,-0.173808 0.074,-0.307037 0.53559,-0.507124 0.83724,-0.362927 1.65507,-0.533384 1.5214,-0.317098 -0.0555,0.08986 -0.20379,0.163381 -0.32946,0.163381 -0.13788,0 -0.19624,0.08401 -0.14717,0.211861 0.0447,0.116524 0.002,0.244118 -0.0949,0.283544 -0.11097,0.04515 -0.0942,0.07653 0.0452,0.08478 0.22336,0.01321 -0.98343,0.620566 -1.63885,0.824805 -0.34971,0.108975 -0.35059,0.106716 -0.0775,-0.199089 z"
       id="path14" /></g></svg>
