<?xml version="1.0" encoding="UTF-8" standalone="no"?>
<!-- Created with Inkscape (http://www.inkscape.org/) -->

<svg
   width="208.78799mm"
   height="208.78799mm"
   viewBox="0 0 208.78799 208.78799"
   version="1.1"
   id="svg1"
   xml:space="preserve"
   sodipodi:docname="dibujo.svg"
   inkscape:version="1.4.4 (dcaf3e7, 2026-05-05)"
   inkscape:export-filename="skill-bar.png"
   inkscape:export-xdpi="96"
   inkscape:export-ydpi="96"
   xmlns:inkscape="http://www.inkscape.org/namespaces/inkscape"
   xmlns:sodipodi="http://sodipodi.sourceforge.net/DTD/sodipodi-0.dtd"
   xmlns="http://www.w3.org/2000/svg"
   xmlns:svg="http://www.w3.org/2000/svg"><sodipodi:namedview
     id="namedview1"
     pagecolor="#505050"
     bordercolor="#eeeeee"
     borderopacity="1"
     inkscape:showpageshadow="0"
     inkscape:pageopacity="0"
     inkscape:pagecheckerboard="0"
     inkscape:deskcolor="#505050"
     inkscape:document-units="mm"
     inkscape:zoom="0.72604517"
     inkscape:cx="716.20888"
     inkscape:cy="339.51056"
     inkscape:window-width="1920"
     inkscape:window-height="1017"
     inkscape:window-x="-8"
     inkscape:window-y="-8"
     inkscape:window-maximized="1"
     inkscape:current-layer="layer1"><inkscape:page
       x="-3.751032e-24"
       y="-2.0430032e-23"
       width="208.78799"
       height="208.78799"
       id="page2"
       margin="0"
       bleed="0" /></sodipodi:namedview><defs
     id="defs1" /><g
     inkscape:label="Capa 1"
     inkscape:groupmode="layer"
     id="layer1"
     transform="translate(-0.58963271,-0.8582767)"><path
       style="fill:#000000"
       d="M 0.58963269,105.25227 V 0.85827667 H 104.98363 209.37763 V 105.25227 209.64627 H 104.98363 0.58963269 Z M 193.47711,201.98805 c 2.00913,-0.63183 3.37506,-1.45351 4.84394,-2.9139 1.09987,-1.09351 1.49065,-1.62969 2.12653,-2.9178 0.4917,-0.99603 0.86462,-2.0387 1.01106,-2.82684 0.1955,-1.05227 0.2499,-14.90968 0.34571,-88.07724 0.1278,-97.5884258 0.24936,-88.066196 -1.16152,-90.990936 -1.56514,-3.244502 -4.78604,-5.6756334 -8.24796,-6.2255427 C 190.92528,7.8023537 19.202055,7.6428075 17.322642,7.8731336 12.789009,8.4287399 8.8647675,11.928736 7.639937,16.509051 7.3671608,17.529112 7.347233,22.607603 7.2930637,104.90816 l -0.057471,87.31687 0.4299775,1.49898 c 0.9713708,3.38637 2.9609288,5.79599 5.9941248,7.25969 2.691502,1.29881 -5.7674427,1.17492 87.660985,1.28392 46.01578,0.0537 83.70251,0.13371 83.7483,0.17784 0.0458,0.0441 1.69411,0.0417 3.66294,-0.005 3.0695,-0.0734 3.74582,-0.1378 4.74519,-0.45208 z M 68.021162,201.31744 c -47.417777,-0.0813 -50.935759,-0.1066 -51.908817,-0.37343 -1.926229,-0.52821 -4.277627,-1.96364 -5.446751,-3.32502 C 9.7076703,196.50355 8.6037051,194.1203 8.3315633,192.58027 7.9909679,190.65286 8.1522471,19.280603 8.4964938,17.328234 9.151588,13.612915 11.786381,10.608738 15.618933,9.2072656 l 1.204216,-0.4403528 75.589912,-9.222e-4 c 41.574449,-5.072e-4 81.171739,0.039546 87.993979,0.089007 12.24767,0.088796 12.41633,0.094529 13.37569,0.4547275 3.21823,1.2082989 5.66962,3.8037179 6.79981,7.1993259 0.34258,1.029249 0.36311,1.432757 0.41948,8.241632 0.0326,3.937668 -0.003,43.347651 -0.0783,87.577737 l -0.13758,80.41834 -0.44786,1.33199 c -0.57717,1.71657 -1.21433,2.80667 -2.37029,4.05524 -1.14291,1.23448 -2.65169,2.20741 -4.36128,2.81237 l -1.29509,0.45828 H 155.5989 c -20.192,0 -59.601978,-0.0392 -87.577738,-0.0872 z m 0.670992,-41.99507 c 1.210378,-0.61146 1.493477,-1.20584 1.493477,-3.13561 0,-0.89624 -0.07212,-1.8192 -0.160262,-2.05104 -0.243407,-0.64021 -1.401316,-1.38807 -2.47425,-1.59806 -4.01223,-0.78524 -4.025392,-0.79336 -4.025392,-2.48545 0,-1.0591 0.03732,-1.18275 0.456493,-1.51247 0.413284,-0.32509 0.619459,-0.35382 2.178161,-0.30346 1.875563,0.0606 2.102929,0.17678 2.308176,1.17948 0.08722,0.42611 0.151595,0.45787 0.928029,0.45787 h 0.834307 l -0.106837,-0.79086 c -0.121632,-0.90038 -0.476016,-1.45847 -1.268713,-1.99797 -0.507024,-0.34508 -0.736928,-0.37462 -2.915401,-0.37462 -2.178474,0 -2.408377,0.0295 -2.915401,0.37462 -1.089441,0.74146 -1.247039,1.12557 -1.247039,3.03932 0,1.48874 0.0475,1.78753 0.348649,2.19337 0.488314,0.65807 1.4356,1.15235 2.628721,1.37165 0.560215,0.10297 1.493217,0.27562 2.073338,0.38368 1.410003,0.26264 1.692445,0.61662 1.692445,2.12115 0,0.98227 -0.05081,1.16174 -0.429658,1.51765 -0.400044,0.37582 -0.55376,0.40364 -2.230237,0.40364 -2.036134,0 -2.409098,-0.17046 -2.600053,-1.18834 -0.110033,-0.58652 -0.19894,-0.62526 -1.046149,-0.45582 -0.471062,0.0942 -0.520305,0.16279 -0.520305,0.72462 0,0.83726 0.582194,1.66628 1.493477,2.12665 0.647044,0.32688 0.997798,0.37462 2.752212,0.37462 1.754414,0 2.105168,-0.0477 2.752212,-0.37462 z m 7.903635,-4.7357 c 0.366294,-0.47555 0.743491,-0.8689 0.838214,-0.87411 0.09472,-0.005 0.310439,0.23402 0.47937,0.53163 0.16893,0.29762 0.953055,1.60682 1.742498,2.90934 l 1.435353,2.36822 1.048609,0.004 1.048608,0.004 -0.485462,-0.70761 c -0.267005,-0.38919 -1.317586,-2.04633 -2.334625,-3.68254 l -1.849162,-2.97491 0.740179,-0.93778 c 0.407099,-0.51578 1.369601,-1.72448 2.138894,-2.686 l 1.398714,-1.74822 -0.917484,-0.0506 c -0.504615,-0.0278 -1.007311,-0.0161 -1.1171,0.026 -0.109789,0.0421 -1.203344,1.39481 -2.430122,3.00595 -1.226777,1.61114 -2.287929,2.92935 -2.358114,2.92935 -0.07018,0 -0.12761,-1.34863 -0.12761,-2.99696 v -2.99695 h -0.832488 -0.832488 v 6.40103 6.40104 l 0.790864,0.0507 0.790864,0.0507 0.08325,-2.08122 0.08325,-2.08122 z m 11.571583,-1.38309 v -6.4934 h -0.832488 -0.832488 v 6.40103 6.40104 l 0.790864,0.0624 c 0.434975,0.0343 0.809594,0.0759 0.832488,0.0924 0.02289,0.0165 0.04162,-2.89202 0.04162,-6.4634 z m 9.531988,6.34602 2.122844,-0.0191 v -0.74924 -0.74924 h -2.74721 -2.747211 v -5.66091 -5.66092 h -0.832488 -0.832488 l -0.02445,4.70355 c -0.01345,2.58696 -0.02606,4.92833 -0.02803,5.20305 -0.002,0.27473 0.009,1.07768 0.02445,1.78434 l 0.02803,1.28484 1.456854,-0.0586 c 0.80127,-0.0322 2.412134,-0.0672 3.579699,-0.0777 z m 53.49982,-2.56645 c -0.60208,-1.3141 -1.0947,-2.46823 -1.0947,-2.56473 0,-0.0965 0.22629,-0.26918 0.50286,-0.38374 1.20907,-0.50082 1.74756,-1.80601 1.61803,-3.92181 -0.0862,-1.40803 -0.33152,-2.07907 -0.98121,-2.68399 -0.67477,-0.62826 -1.21764,-0.7187 -4.31397,-0.7187 h -2.98612 v 6.41015 6.41016 h 0.82815 0.82815 l 0.046,-2.53909 0.046,-2.53908 1.29325,-0.0487 1.29325,-0.0487 0.33582,0.79791 c 0.1847,0.43886 0.68913,1.59833 1.12096,2.5766 l 0.78515,1.77867 0.83249,0.0528 c 0.45787,0.029 0.85683,-0.001 0.88658,-0.0678 0.0298,-0.0664 -0.43852,-1.19583 -1.04061,-2.50994 z m -5.59013,-6.44353 v -2.33096 l 1.87309,6.2e-4 c 2.72771,9e-4 3.11352,0.31546 3.12,2.54381 0.003,0.89727 -0.40057,1.75583 -0.91669,1.95206 -0.23932,0.091 -1.25442,0.16544 -2.25577,0.16544 h -1.82063 z m -35.2975,8.24163 v -0.74924 h -2.74721 -2.74721 v -5.66091 -5.66092 h -0.83249 -0.83248 v 6.41015 6.41016 h 3.57969 3.5797 z m 15.97194,0.45761 c 1.03513,-0.52783 1.25357,-1.01667 1.31677,-2.9468 0.0625,-1.90789 -0.15261,-2.61689 -0.8967,-2.95592 -0.49481,-0.22545 -0.51565,-0.39635 -0.077,-0.63113 0.65766,-0.35196 0.86844,-1.08552 0.80755,-2.81041 -0.0471,-1.33463 -0.11869,-1.68977 -0.42792,-2.12329 -0.67425,-0.94523 -1.16835,-1.06113 -4.52388,-1.06113 h -3.01342 v 6.41015 6.41016 l 3.12183,-2.6e-4 c 2.64309,-2.2e-4 3.20938,-0.0449 3.69274,-0.29137 z m -5.14959,-3.28807 v -2.08122 h 2.06913 c 2.03701,0 2.0745,0.007 2.41422,0.4387 0.28117,0.35745 0.34508,0.67586 0.34508,1.7192 0,1.12322 -0.0473,1.32497 -0.38535,1.64253 -0.35213,0.3308 -0.56029,0.36201 -2.41422,0.36201 h -2.02886 z m 0,-5.74416 v -1.99797 h 1.75649 c 1.82283,0 2.59128,0.20752 2.80202,0.75669 0.0569,0.14824 0.10342,0.7403 0.10342,1.31569 0,0.80626 -0.0791,1.14676 -0.34508,1.48486 -0.33833,0.43012 -0.38389,0.4387 -2.33097,0.4387 h -1.98588 z m 11.47925,7.82535 0.40716,-1.49844 h 2.50697 2.50698 l 0.42124,1.45685 0.42125,1.45685 0.86868,0.0503 c 0.47778,0.0277 0.86869,-0.002 0.86869,-0.0653 0,-0.17472 -0.58714,-2.13181 -1.69381,-5.64594 -0.54793,-1.7399 -1.26419,-4.04382 -1.59169,-5.11981 l -0.59544,-1.95634 h -1.12592 -1.12592 l -0.8384,2.53909 c -0.70532,2.13607 -2.87364,9.02908 -3.14248,9.98985 -0.0704,0.25143 0.041,0.29137 0.812,0.29134 l 0.89353,-3e-5 z m 1.11049,-3.1324 c -0.0599,-0.097 0.30457,-1.48903 0.81003,-3.09341 0.50546,-1.60438 0.91902,-2.95777 0.91902,-3.00754 0,-0.0498 0.0579,-0.0905 0.12864,-0.0905 0.0708,0 0.20883,0.31842 0.30684,0.70761 0.098,0.38919 0.49641,1.74356 0.88534,3.00971 0.38894,1.26615 0.66612,2.34312 0.61598,2.39327 -0.18563,0.18562 -3.55517,0.25993 -3.66585,0.0808 z m -14.73572,-38.70009 c 0.0102,-0.20604 0.0289,-0.74924 0.0416,-1.20711 l 0.0231,-0.83248 1.91472,-0.10153 c 1.0531,-0.0558 14.70249,-0.11471 30.33198,-0.13081 24.61961,-0.0254 28.54503,-0.0626 29.37327,-0.27828 2.41227,-0.62832 4.60529,-2.46898 5.72727,-4.80706 0.35426,-0.73822 0.72419,-1.7868 0.82206,-2.33017 0.10454,-0.58032 0.17677,-3.39684 0.17507,-6.8264 -0.003,-6.485514 -0.10067,-7.367572 -1.02114,-9.241897 -1.05558,-2.149457 -3.71641,-4.208391 -6.0084,-4.649265 -0.56096,-0.107905 -11.71851,-0.198312 -31.01227,-0.251286 -16.57484,-0.04551 -30.1548,-0.08756 -30.17769,-0.09344 -0.2958,-0.07604 0.38575,-1.419651 2.53909,-5.005628 1.41939,-2.363724 2.58071,-4.450382 2.58071,-4.637019 0,-0.186637 -0.16858,-0.527878 -0.37462,-0.758312 l -0.37462,-0.418973 -5.13363,-0.04818 -5.13363,-0.04818 -0.40241,0.467153 c -0.22133,0.256934 -0.40242,0.615927 -0.40242,0.797762 0,0.181835 1.16132,2.262918 2.58071,4.624629 1.4194,2.361711 2.58072,4.456477 2.58072,4.655035 0,0.348361 -0.0657,0.361368 -1.8731,0.371123 -1.0302,0.0056 -20.903774,0.02429 -44.16349,0.04162 l -42.290391,0.03151 -1.331981,0.46686 c -3.041953,1.066205 -5.161118,3.25332 -6.000638,6.193044 -0.424358,1.485965 -0.558575,12.570264 -0.17439,14.402034 0.400664,1.91035 1.121172,3.2162 2.580997,4.67783 1.329228,1.33086 2.602924,2.07092 4.260022,2.47522 0.644822,0.15732 10.3659,0.19935 43.122879,0.18644 23.259715,-0.009 43.095822,0.0311 44.080242,0.0895 l 1.78985,0.10621 v 1.22731 1.22731 h 0.66599 c 0.57418,0 0.66854,-0.0516 0.68448,-0.37462 z m -90.777429,-3.85015 c -2.096313,-0.74002 -3.60975,-2.12881 -4.615849,-4.23567 L 22.98356,106.834 22.90031,100.50709 c -0.04579,-3.479798 -0.02967,-6.6948 0.03581,-7.144448 0.15462,-1.061751 1.08439,-2.982212 1.894393,-3.912913 0.843187,-0.96883 2.369409,-1.938835 3.694621,-2.348151 1.056071,-0.326187 1.649612,-0.330538 45.091236,-0.330538 h 44.02108 v 1.330448 1.330448 l -43.996994,0.04316 -43.996992,0.04316 -0.939297,0.461277 c -1.095902,0.538182 -2.187285,1.653569 -2.696862,2.756178 -0.348476,0.754023 -0.359783,0.974703 -0.359783,7.022148 v 6.243661 l 0.434676,0.92683 c 0.54365,1.15917 1.460863,2.07262 2.64553,2.63466 l 0.915736,0.43446 43.996992,0.0425 43.996994,0.0425 v 1.33106 1.33106 l -44.163492,-0.004 -44.163489,-0.004 z m 90.925439,-0.9349 v -1.33374 h 8.90762 8.90762 V 99.757853 89.435002 h -8.90762 -8.90762 V 88.103021 86.77104 h 30.20448 c 29.11691,0 30.24077,0.0113 31.21234,0.313681 0.55432,0.172524 1.32896,0.501917 1.72143,0.731984 0.97718,0.572828 2.49811,2.204947 3.02658,3.247833 0.87069,1.718218 0.9337,2.294461 0.9337,8.539073 0,3.173339 -0.0748,6.173289 -0.1663,6.666549 -0.45125,2.43362 -2.47915,4.93895 -4.78902,5.91649 l -1.12184,0.47477 -30.51069,0.0434 -30.51068,0.0434 z"
       id="path14" /></g></svg>
